<?xml version="1.0" encoding="UTF-8" standalone="no"?>
<!DOCTYPE svg PUBLIC "-//W3C//DTD SVG 1.1//EN"
 "http://www.w3.org/Graphics/SVG/1.1/DTD/svg11.dtd">
<!-- Generated by graphviz version 2.47.1 (20210515.0534)
 -->
<!-- Title: compactRelationshipsDiagram Pages: 1 -->
<svg width="564pt" height="417pt"
 viewBox="0.00 0.00 564.00 417.00" xmlns="http://www.w3.org/2000/svg" xmlns:xlink="http://www.w3.org/1999/xlink">
<g id="graph0" class="graph" transform="scale(1 1) rotate(0) translate(4 413)">
<title>compactRelationshipsDiagram</title>
<polygon fill="#ffffff" stroke="transparent" points="-4,4 -4,-413 560,-413 560,4 -4,4"/>
<text text-anchor="middle" x="73.5" y="-7.2" font-family="Helvetica,sans-Serif" font-size="11.00">Generated by SchemaSpy</text>
<!-- chat_participants -->
<g id="node1" class="node">
<title>chat_participants</title>
<g id="a_node1"><a xlink:href="../../tables/chat_participants.html" xlink:title="chat_participants" target="_top">
<polygon fill="#ffffff" stroke="transparent" points="400,-303 400,-405 548,-405 548,-303 400,-303"/>
<polygon fill="#f5f5f5" stroke="transparent" points="400,-383 400,-405 548,-405 548,-383 400,-383"/>
<polygon fill="none" stroke="black" points="400,-383 400,-405 548,-405 548,-383 400,-383"/>
<text text-anchor="start" x="405" y="-392.2" font-family="Helvetica,sans-Serif" font-weight="bold" font-size="11.00">chat_participants</text>
<text text-anchor="start" x="509" y="-391.2" font-family="Helvetica,sans-Serif" font-size="11.00">[table]</text>
<polygon fill="none" stroke="black" points="400,-361 400,-383 548,-383 548,-361 400,-361"/>
<image xlink:href="../../images/primaryKeys.png" width="11px" height="12px" preserveAspectRatio="xMinYMin meet" x="405" y="-378"/>
<text text-anchor="start" x="432" y="-369.2" font-family="Helvetica,sans-Serif" font-size="11.00">chat_id</text>
<polygon fill="none" stroke="black" points="400,-339 400,-361 548,-361 548,-339 400,-339"/>
<image xlink:href="../../images/primaryKeys.png" width="11px" height="12px" preserveAspectRatio="xMinYMin meet" x="405" y="-356"/>
<text text-anchor="start" x="432" y="-347.2" font-family="Helvetica,sans-Serif" font-size="11.00">user_id</text>
<polygon fill="none" stroke="black" points="400,-321 400,-339 548,-339 548,-321 400,-321"/>
<text text-anchor="start" x="403" y="-327.2" font-family="Helvetica,sans-Serif" font-size="11.00">...</text>
<polygon fill="#ffffff" stroke="transparent" points="400,-303 400,-321 455,-321 455,-303 400,-303"/>
<polygon fill="none" stroke="black" points="400,-303 400,-321 455,-321 455,-303 400,-303"/>
<text text-anchor="start" x="403" y="-309.2" font-family="Helvetica,sans-Serif" font-size="11.00">&lt; 2</text>
<polygon fill="#ffffff" stroke="transparent" points="455,-303 455,-321 518,-321 518,-303 455,-303"/>
<polygon fill="none" stroke="black" points="455,-303 455,-321 518,-321 518,-303 455,-303"/>
<text text-anchor="start" x="475" y="-309.2" font-family="Helvetica,sans-Serif" font-size="11.00">90 rows</text>
<polygon fill="#ffffff" stroke="transparent" points="518,-303 518,-321 548,-321 548,-303 518,-303"/>
<polygon fill="none" stroke="black" points="518,-303 518,-321 548,-321 548,-303 518,-303"/>
<text text-anchor="start" x="538" y="-309.2" font-family="Helvetica,sans-Serif" font-size="11.00"> &#160;</text>
</a>
</g>
</g>
<!-- chats -->
<g id="node4" class="node">
<title>chats</title>
<g id="a_node4"><a xlink:href="../../tables/chats.html" xlink:title="chats" target="_top">
<polygon fill="#ffffff" stroke="transparent" points="221,-198 221,-366 309,-366 309,-198 221,-198"/>
<polygon fill="#f5f5f5" stroke="transparent" points="221,-344 221,-366 309,-366 309,-344 221,-344"/>
<polygon fill="none" stroke="black" points="221,-344 221,-366 309,-366 309,-344 221,-344"/>
<text text-anchor="start" x="224.5" y="-353.2" font-family="Helvetica,sans-Serif" font-weight="bold" font-size="11.00">chats</text>
<text text-anchor="start" x="270" y="-352.2" font-family="Helvetica,sans-Serif" font-size="11.00">[table]</text>
<polygon fill="none" stroke="black" points="221,-322 221,-344 309,-344 309,-322 221,-322"/>
<image xlink:href="../../images/primaryKeys.png" width="11px" height="12px" preserveAspectRatio="xMinYMin meet" x="226" y="-339"/>
<text text-anchor="start" x="241" y="-330.2" font-family="Helvetica,sans-Serif" font-size="11.00">id</text>
<polygon fill="#ffffff" stroke="transparent" points="221,-300 221,-322 309,-322 309,-300 221,-300"/>
<polygon fill="none" stroke="black" points="221,-300 221,-322 309,-322 309,-300 221,-300"/>
<image xlink:href="../../images/foreignKeys.png" width="11px" height="12px" preserveAspectRatio="xMinYMin meet" x="226" y="-317"/>
<text text-anchor="start" x="241" y="-308.2" font-family="Helvetica,sans-Serif" font-size="11.00">created_by</text>
<polygon fill="#ffffff" stroke="transparent" points="221,-278 221,-300 309,-300 309,-278 221,-278"/>
<polygon fill="none" stroke="black" points="221,-278 221,-300 309,-300 309,-278 221,-278"/>
<text text-anchor="start" x="241" y="-286.2" font-family="Helvetica,sans-Serif" font-size="11.00">name</text>
<polygon fill="#ffffff" stroke="transparent" points="221,-256 221,-278 309,-278 309,-256 221,-256"/>
<polygon fill="none" stroke="black" points="221,-256 221,-278 309,-278 309,-256 221,-256"/>
<text text-anchor="start" x="241" y="-264.2" font-family="Helvetica,sans-Serif" font-size="11.00">created_at</text>
<polygon fill="#ffffff" stroke="transparent" points="221,-234 221,-256 309,-256 309,-234 221,-234"/>
<polygon fill="none" stroke="black" points="221,-234 221,-256 309,-256 309,-234 221,-234"/>
<text text-anchor="start" x="241" y="-242.2" font-family="Helvetica,sans-Serif" font-size="11.00">updated_at</text>
<polygon fill="none" stroke="black" points="221,-216 221,-234 309,-234 309,-216 221,-216"/>
<text text-anchor="start" x="224" y="-222.2" font-family="Helvetica,sans-Serif" font-size="11.00">...</text>
<polygon fill="#ffffff" stroke="transparent" points="221,-198 221,-216 258,-216 258,-198 221,-198"/>
<polygon fill="none" stroke="black" points="221,-198 221,-216 258,-216 258,-198 221,-198"/>
<text text-anchor="start" x="224" y="-204.2" font-family="Helvetica,sans-Serif" font-size="11.00">&lt; 1</text>
<polygon fill="#ffffff" stroke="transparent" points="258,-198 258,-216 279,-216 279,-198 258,-198"/>
<polygon fill="none" stroke="black" points="258,-198 258,-216 279,-216 279,-198 258,-198"/>
<text text-anchor="start" x="269" y="-204.2" font-family="Helvetica,sans-Serif" font-size="11.00"> &#160;</text>
<polygon fill="#ffffff" stroke="transparent" points="279,-198 279,-216 309,-216 309,-198 279,-198"/>
<polygon fill="none" stroke="black" points="279,-198 279,-216 309,-216 309,-198 279,-198"/>
<text text-anchor="start" x="290" y="-204.2" font-family="Helvetica,sans-Serif" font-size="11.00">2 &gt;</text>
</a>
</g>
</g>
<!-- chat_participants&#45;&gt;chats -->
<g id="edge1" class="edge">
<title>chat_participants:w&#45;&gt;chats:e</title>
<path fill="none" stroke="black" d="M384.55,-370.32C354.52,-362.86 347.79,-333 310,-333"/>
<polygon fill="black" stroke="black" points="391.05,-371.08 398.59,-375.58 395.03,-371.54 399,-372 399,-372 399,-372 395.03,-371.54 399.41,-368.42 391.05,-371.08 391.05,-371.08"/>
<ellipse fill="none" stroke="black" cx="387.87" cy="-370.71" rx="3.2" ry="3.2"/>
</g>
<!-- users -->
<g id="node5" class="node">
<title>users</title>
<g id="a_node5"><a xlink:href="../../tables/users.html" xlink:title="users" target="_top">
<polygon fill="#ffffff" stroke="transparent" points="8,-81 8,-249 130,-249 130,-81 8,-81"/>
<polygon fill="#f5f5f5" stroke="transparent" points="8,-227 8,-249 130,-249 130,-227 8,-227"/>
<polygon fill="none" stroke="black" points="8,-227 8,-249 130,-249 130,-227 8,-227"/>
<text text-anchor="start" x="11.5" y="-236.2" font-family="Helvetica,sans-Serif" font-weight="bold" font-size="11.00">users</text>
<text text-anchor="start" x="91" y="-235.2" font-family="Helvetica,sans-Serif" font-size="11.00">[table]</text>
<polygon fill="none" stroke="black" points="8,-205 8,-227 130,-227 130,-205 8,-205"/>
<image xlink:href="../../images/primaryKeys.png" width="11px" height="12px" preserveAspectRatio="xMinYMin meet" x="13" y="-222"/>
<text text-anchor="start" x="28" y="-213.2" font-family="Helvetica,sans-Serif" font-size="11.00">id</text>
<polygon fill="#ffffff" stroke="transparent" points="8,-183 8,-205 130,-205 130,-183 8,-183"/>
<polygon fill="none" stroke="black" points="8,-183 8,-205 130,-205 130,-183 8,-183"/>
<text text-anchor="start" x="28" y="-191.2" font-family="Helvetica,sans-Serif" font-size="11.00">username</text>
<polygon fill="#ffffff" stroke="transparent" points="8,-161 8,-183 130,-183 130,-161 8,-161"/>
<polygon fill="none" stroke="black" points="8,-161 8,-183 130,-183 130,-161 8,-161"/>
<text text-anchor="start" x="28" y="-169.2" font-family="Helvetica,sans-Serif" font-size="11.00">email</text>
<polygon fill="#ffffff" stroke="transparent" points="8,-139 8,-161 130,-161 130,-139 8,-139"/>
<polygon fill="none" stroke="black" points="8,-139 8,-161 130,-161 130,-139 8,-139"/>
<text text-anchor="start" x="28" y="-147.2" font-family="Helvetica,sans-Serif" font-size="11.00">first_name</text>
<polygon fill="#ffffff" stroke="transparent" points="8,-117 8,-139 130,-139 130,-117 8,-117"/>
<polygon fill="none" stroke="black" points="8,-117 8,-139 130,-139 130,-117 8,-117"/>
<text text-anchor="start" x="28" y="-125.2" font-family="Helvetica,sans-Serif" font-size="11.00">last_name</text>
<polygon fill="none" stroke="black" points="8,-99 8,-117 130,-117 130,-99 8,-99"/>
<text text-anchor="start" x="11" y="-105.2" font-family="Helvetica,sans-Serif" font-size="11.00">...</text>
<polygon fill="#ffffff" stroke="transparent" points="8,-81 8,-99 58,-99 58,-81 8,-81"/>
<polygon fill="none" stroke="black" points="8,-81 8,-99 58,-99 58,-81 8,-81"/>
<text text-anchor="start" x="11" y="-87.2" font-family="Helvetica,sans-Serif" font-size="11.00"> &#160;</text>
<polygon fill="#ffffff" stroke="transparent" points="58,-81 58,-99 89,-99 89,-81 58,-81"/>
<polygon fill="none" stroke="black" points="58,-81 58,-99 89,-99 89,-81 58,-81"/>
<text text-anchor="start" x="79" y="-87.2" font-family="Helvetica,sans-Serif" font-size="11.00"> &#160;</text>
<polygon fill="#ffffff" stroke="transparent" points="89,-81 89,-99 130,-99 130,-81 89,-81"/>
<polygon fill="none" stroke="black" points="89,-81 89,-99 130,-99 130,-81 89,-81"/>
<text text-anchor="start" x="111" y="-87.2" font-family="Helvetica,sans-Serif" font-size="11.00">4 &gt;</text>
</a>
</g>
</g>
<!-- chat_participants&#45;&gt;users -->
<g id="edge2" class="edge">
<title>chat_participants:w&#45;&gt;users:e</title>
<path fill="none" stroke="black" d="M385.16,-354.35C376.81,-360.77 373.58,-372.54 359,-377 279.1,-401.44 236.82,-428.47 171,-377 112.92,-331.58 204.73,-216 131,-216"/>
<polygon fill="black" stroke="black" points="391.37,-352.4 400.08,-353.43 395.18,-351.2 399,-350 399,-350 399,-350 395.18,-351.2 397.92,-346.57 391.37,-352.4 391.37,-352.4"/>
<ellipse fill="none" stroke="black" cx="388.31" cy="-353.36" rx="3.2" ry="3.2"/>
</g>
<!-- messages -->
<g id="node2" class="node">
<title>messages</title>
<g id="a_node2"><a xlink:href="../../tables/messages.html" xlink:title="messages" target="_top">
<polygon fill="#ffffff" stroke="transparent" points="423.5,-37 423.5,-205 524.5,-205 524.5,-37 423.5,-37"/>
<polygon fill="#f5f5f5" stroke="transparent" points="424,-183 424,-205 525,-205 525,-183 424,-183"/>
<polygon fill="none" stroke="black" points="424,-183 424,-205 525,-205 525,-183 424,-183"/>
<text text-anchor="start" x="429" y="-192.2" font-family="Helvetica,sans-Serif" font-weight="bold" font-size="11.00">messages</text>
<text text-anchor="start" x="486" y="-191.2" font-family="Helvetica,sans-Serif" font-size="11.00">[table]</text>
<polygon fill="none" stroke="black" points="424,-161 424,-183 525,-183 525,-161 424,-161"/>
<image xlink:href="../../images/primaryKeys.png" width="11px" height="12px" preserveAspectRatio="xMinYMin meet" x="429" y="-178"/>
<text text-anchor="start" x="449" y="-169.2" font-family="Helvetica,sans-Serif" font-size="11.00">id</text>
<polygon fill="none" stroke="black" points="424,-139 424,-161 525,-161 525,-139 424,-139"/>
<image xlink:href="../../images/foreignKeys.png" width="11px" height="12px" preserveAspectRatio="xMinYMin meet" x="429" y="-156"/>
<text text-anchor="start" x="449" y="-147.2" font-family="Helvetica,sans-Serif" font-size="11.00">chat_id</text>
<polygon fill="#ffffff" stroke="transparent" points="424,-117 424,-139 525,-139 525,-117 424,-117"/>
<polygon fill="none" stroke="black" points="424,-117 424,-139 525,-139 525,-117 424,-117"/>
<image xlink:href="../../images/foreignKeys.png" width="11px" height="12px" preserveAspectRatio="xMinYMin meet" x="429" y="-134"/>
<text text-anchor="start" x="449" y="-125.2" font-family="Helvetica,sans-Serif" font-size="11.00">sender_id</text>
<polygon fill="#ffffff" stroke="transparent" points="424,-95 424,-117 525,-117 525,-95 424,-95"/>
<polygon fill="none" stroke="black" points="424,-95 424,-117 525,-117 525,-95 424,-95"/>
<text text-anchor="start" x="449" y="-103.2" font-family="Helvetica,sans-Serif" font-size="11.00">content</text>
<polygon fill="#ffffff" stroke="transparent" points="424,-73 424,-95 525,-95 525,-73 424,-73"/>
<polygon fill="none" stroke="black" points="424,-73 424,-95 525,-95 525,-73 424,-73"/>
<text text-anchor="start" x="449" y="-81.2" font-family="Helvetica,sans-Serif" font-size="11.00">created_at</text>
<polygon fill="none" stroke="black" points="424,-55 424,-73 525,-73 525,-55 424,-55"/>
<text text-anchor="start" x="427" y="-61.2" font-family="Helvetica,sans-Serif" font-size="11.00">...</text>
<polygon fill="#ffffff" stroke="transparent" points="424,-37 424,-55 472,-55 472,-37 424,-37"/>
<polygon fill="none" stroke="black" points="424,-37 424,-55 472,-55 472,-37 424,-37"/>
<text text-anchor="start" x="427" y="-43.2" font-family="Helvetica,sans-Serif" font-size="11.00">&lt; 2</text>
<polygon fill="#ffffff" stroke="transparent" points="472,-37 472,-55 498,-55 498,-37 472,-37"/>
<polygon fill="none" stroke="black" points="472,-37 472,-55 498,-55 498,-37 472,-37"/>
<text text-anchor="start" x="488" y="-43.2" font-family="Helvetica,sans-Serif" font-size="11.00"> &#160;</text>
<polygon fill="#ffffff" stroke="transparent" points="498,-37 498,-55 525,-55 525,-37 498,-37"/>
<polygon fill="none" stroke="black" points="498,-37 498,-55 525,-55 525,-37 498,-37"/>
<text text-anchor="start" x="515" y="-43.2" font-family="Helvetica,sans-Serif" font-size="11.00"> &#160;</text>
</a>
</g>
</g>
<!-- messages&#45;&gt;chats -->
<g id="edge4" class="edge">
<title>messages:w&#45;&gt;chats:e</title>
<path fill="none" stroke="black" d="M408.37,-151.69C335.71,-170.14 400.18,-333 310,-333"/>
<polygon fill="black" stroke="black" points="415.05,-150.92 423.41,-153.58 419.03,-150.46 423,-150 423,-150 423,-150 419.03,-150.46 422.59,-146.42 415.05,-150.92 415.05,-150.92"/>
<ellipse fill="none" stroke="black" cx="411.87" cy="-151.29" rx="3.2" ry="3.2"/>
</g>
<!-- messages&#45;&gt;users -->
<g id="edge5" class="edge">
<title>messages:w&#45;&gt;users:e</title>
<path fill="none" stroke="black" d="M408.69,-125.24C385.76,-114.85 390.6,-77.94 359,-65 281.68,-33.33 237.22,-14.04 171,-65 115.98,-107.34 200.43,-216 131,-216"/>
<polygon fill="black" stroke="black" points="415.14,-126.49 422.32,-131.54 419.07,-127.24 423,-128 423,-128 423,-128 419.07,-127.24 423.68,-124.46 415.14,-126.49 415.14,-126.49"/>
<ellipse fill="none" stroke="black" cx="412" cy="-125.88" rx="3.2" ry="3.2"/>
</g>
<!-- sessions -->
<g id="node3" class="node">
<title>sessions</title>
<g id="a_node3"><a xlink:href="../../tables/sessions.html" xlink:title="sessions" target="_top">
<polygon fill="#ffffff" stroke="transparent" points="179,-75 179,-177 351,-177 351,-75 179,-75"/>
<polygon fill="#f5f5f5" stroke="transparent" points="179,-155 179,-177 351,-177 351,-155 179,-155"/>
<polygon fill="none" stroke="black" points="179,-155 179,-177 351,-177 351,-155 179,-155"/>
<text text-anchor="start" x="183.5" y="-164.2" font-family="Helvetica,sans-Serif" font-weight="bold" font-size="11.00">sessions</text>
<text text-anchor="start" x="312" y="-163.2" font-family="Helvetica,sans-Serif" font-size="11.00">[table]</text>
<polygon fill="none" stroke="black" points="179,-133 179,-155 351,-155 351,-133 179,-133"/>
<image xlink:href="../../images/primaryKeys.png" width="11px" height="12px" preserveAspectRatio="xMinYMin meet" x="184" y="-150"/>
<text text-anchor="start" x="199" y="-141.2" font-family="Helvetica,sans-Serif" font-size="11.00">id</text>
<polygon fill="none" stroke="black" points="179,-111 179,-133 351,-133 351,-111 179,-111"/>
<image xlink:href="../../images/foreignKeys.png" width="11px" height="12px" preserveAspectRatio="xMinYMin meet" x="184" y="-128"/>
<text text-anchor="start" x="199" y="-119.2" font-family="Helvetica,sans-Serif" font-size="11.00">user_id</text>
<polygon fill="none" stroke="black" points="179,-93 179,-111 351,-111 351,-93 179,-93"/>
<text text-anchor="start" x="182" y="-99.2" font-family="Helvetica,sans-Serif" font-size="11.00">...</text>
<polygon fill="#ffffff" stroke="transparent" points="179,-75 179,-93 263,-93 263,-75 179,-75"/>
<polygon fill="none" stroke="black" points="179,-75 179,-93 263,-93 263,-75 179,-75"/>
<text text-anchor="start" x="182" y="-81.2" font-family="Helvetica,sans-Serif" font-size="11.00">&lt; 1</text>
<polygon fill="#ffffff" stroke="transparent" points="263,-75 263,-93 307,-93 307,-75 263,-75"/>
<polygon fill="none" stroke="black" points="263,-75 263,-93 307,-93 307,-75 263,-75"/>
<text text-anchor="start" x="297" y="-81.2" font-family="Helvetica,sans-Serif" font-size="11.00"> &#160;</text>
<polygon fill="#ffffff" stroke="transparent" points="307,-75 307,-93 351,-93 351,-75 307,-75"/>
<polygon fill="none" stroke="black" points="307,-75 307,-93 351,-93 351,-75 307,-75"/>
<text text-anchor="start" x="341" y="-81.2" font-family="Helvetica,sans-Serif" font-size="11.00"> &#160;</text>
</a>
</g>
</g>
<!-- sessions&#45;&gt;users -->
<g id="edge6" class="edge">
<title>sessions:w&#45;&gt;users:e</title>
<path fill="none" stroke="black" d="M164.18,-126.28C141.71,-144.67 171.69,-216 131,-216"/>
<polygon fill="black" stroke="black" points="170.36,-124.37 179.07,-125.44 174.18,-123.18 178,-122 178,-122 178,-122 174.18,-123.18 176.93,-118.56 170.36,-124.37 170.36,-124.37"/>
<ellipse fill="none" stroke="black" cx="167.3" cy="-125.32" rx="3.2" ry="3.2"/>
</g>
<!-- chats&#45;&gt;users -->
<g id="edge3" class="edge">
<title>chats:w&#45;&gt;users:e</title>
<path fill="none" stroke="black" d="M205.56,-308.56C166.48,-293.69 183.32,-216 131,-216"/>
<polygon fill="black" stroke="black" points="212.11,-309.66 219.4,-314.55 216.06,-310.33 220,-311 220,-311 220,-311 216.06,-310.33 220.6,-307.45 212.11,-309.66 212.11,-309.66"/>
<ellipse fill="none" stroke="black" cx="208.96" cy="-309.13" rx="3.2" ry="3.2"/>
</g>
</g>
</svg>
