<?xml version="1.0" encoding="UTF-8" standalone="no"?>
<!DOCTYPE svg PUBLIC "-//W3C//DTD SVG 1.1//EN"
 "http://www.w3.org/Graphics/SVG/1.1/DTD/svg11.dtd">
<!-- Generated by graphviz version 2.47.1 (20210515.0534)
 -->
<!-- Title: largeRelationshipsDiagram Pages: 1 -->
<svg width="564pt" height="539pt"
 viewBox="0.00 0.00 564.00 539.42" xmlns="http://www.w3.org/2000/svg" xmlns:xlink="http://www.w3.org/1999/xlink">
<g id="graph0" class="graph" transform="scale(1 1) rotate(0) translate(4 535.42)">
<title>largeRelationshipsDiagram</title>
<polygon fill="#ffffff" stroke="transparent" points="-4,4 -4,-535.42 560,-535.42 560,4 -4,4"/>
<text text-anchor="middle" x="73.5" y="-7.2" font-family="Helvetica,sans-Serif" font-size="11.00">Generated by SchemaSpy</text>
<!-- chat_participants -->
<g id="node1" class="node">
<title>chat_participants</title>
<g id="a_node1"><a xlink:href="../../tables/chat_participants.html" xlink:title="chat_participants" target="_top">
<polygon fill="#ffffff" stroke="transparent" points="400,-399.42 400,-527.42 548,-527.42 548,-399.42 400,-399.42"/>
<polygon fill="#f5f5f5" stroke="transparent" points="400,-505.42 400,-527.42 548,-527.42 548,-505.42 400,-505.42"/>
<polygon fill="none" stroke="black" points="400,-505.42 400,-527.42 548,-527.42 548,-505.42 400,-505.42"/>
<text text-anchor="start" x="405" y="-514.62" font-family="Helvetica,sans-Serif" font-weight="bold" font-size="11.00">chat_participants</text>
<text text-anchor="start" x="509" y="-513.62" font-family="Helvetica,sans-Serif" font-size="11.00">[table]</text>
<polygon fill="none" stroke="black" points="400,-483.42 400,-505.42 548,-505.42 548,-483.42 400,-483.42"/>
<image xlink:href="../../images/primaryKeys.png" width="11px" height="12px" preserveAspectRatio="xMinYMin meet" x="405" y="-500.423"/>
<text text-anchor="start" x="432" y="-491.62" font-family="Helvetica,sans-Serif" font-size="11.00">chat_id</text>
<polygon fill="none" stroke="black" points="400,-461.42 400,-483.42 548,-483.42 548,-461.42 400,-461.42"/>
<image xlink:href="../../images/primaryKeys.png" width="11px" height="12px" preserveAspectRatio="xMinYMin meet" x="405" y="-478.423"/>
<text text-anchor="start" x="432" y="-469.62" font-family="Helvetica,sans-Serif" font-size="11.00">user_id</text>
<polygon fill="none" stroke="black" points="400,-439.42 400,-461.42 548,-461.42 548,-439.42 400,-439.42"/>
<text text-anchor="start" x="432" y="-447.62" font-family="Helvetica,sans-Serif" font-size="11.00">created_at</text>
<polygon fill="none" stroke="black" points="400,-417.42 400,-439.42 548,-439.42 548,-417.42 400,-417.42"/>
<text text-anchor="start" x="432" y="-425.62" font-family="Helvetica,sans-Serif" font-size="11.00">updated_at</text>
<polygon fill="#ffffff" stroke="transparent" points="400,-399.42 400,-417.42 455,-417.42 455,-399.42 400,-399.42"/>
<polygon fill="none" stroke="black" points="400,-399.42 400,-417.42 455,-417.42 455,-399.42 400,-399.42"/>
<text text-anchor="start" x="403" y="-405.62" font-family="Helvetica,sans-Serif" font-size="11.00">&lt; 2</text>
<polygon fill="#ffffff" stroke="transparent" points="455,-399.42 455,-417.42 518,-417.42 518,-399.42 455,-399.42"/>
<polygon fill="none" stroke="black" points="455,-399.42 455,-417.42 518,-417.42 518,-399.42 455,-399.42"/>
<text text-anchor="start" x="475" y="-405.62" font-family="Helvetica,sans-Serif" font-size="11.00">90 rows</text>
<polygon fill="#ffffff" stroke="transparent" points="518,-399.42 518,-417.42 548,-417.42 548,-399.42 518,-399.42"/>
<polygon fill="none" stroke="black" points="518,-399.42 518,-417.42 548,-417.42 548,-399.42 518,-399.42"/>
<text text-anchor="start" x="538" y="-405.62" font-family="Helvetica,sans-Serif" font-size="11.00"> &#160;</text>
</a>
</g>
</g>
<!-- chats -->
<g id="node4" class="node">
<title>chats</title>
<g id="a_node4"><a xlink:href="../../tables/chats.html" xlink:title="chats" target="_top">
<polygon fill="#ffffff" stroke="transparent" points="221,-316.42 221,-488.42 309,-488.42 309,-316.42 221,-316.42"/>
<polygon fill="#f5f5f5" stroke="transparent" points="221,-466.42 221,-488.42 309,-488.42 309,-466.42 221,-466.42"/>
<polygon fill="none" stroke="black" points="221,-466.42 221,-488.42 309,-488.42 309,-466.42 221,-466.42"/>
<text text-anchor="start" x="224.5" y="-475.62" font-family="Helvetica,sans-Serif" font-weight="bold" font-size="11.00">chats</text>
<text text-anchor="start" x="270" y="-474.62" font-family="Helvetica,sans-Serif" font-size="11.00">[table]</text>
<polygon fill="none" stroke="black" points="221,-444.42 221,-466.42 309,-466.42 309,-444.42 221,-444.42"/>
<image xlink:href="../../images/primaryKeys.png" width="11px" height="12px" preserveAspectRatio="xMinYMin meet" x="226" y="-461.423"/>
<text text-anchor="start" x="241" y="-452.62" font-family="Helvetica,sans-Serif" font-size="11.00">id</text>
<polygon fill="#ffffff" stroke="transparent" points="221,-422.42 221,-444.42 309,-444.42 309,-422.42 221,-422.42"/>
<polygon fill="none" stroke="black" points="221,-422.42 221,-444.42 309,-444.42 309,-422.42 221,-422.42"/>
<image xlink:href="../../images/foreignKeys.png" width="11px" height="12px" preserveAspectRatio="xMinYMin meet" x="226" y="-439.423"/>
<text text-anchor="start" x="241" y="-430.62" font-family="Helvetica,sans-Serif" font-size="11.00">created_by</text>
<polygon fill="none" stroke="black" points="221,-400.42 221,-422.42 309,-422.42 309,-400.42 221,-400.42"/>
<text text-anchor="start" x="241" y="-408.62" font-family="Helvetica,sans-Serif" font-size="11.00">chat_type</text>
<polygon fill="#ffffff" stroke="transparent" points="221,-378.42 221,-400.42 309,-400.42 309,-378.42 221,-378.42"/>
<polygon fill="none" stroke="black" points="221,-378.42 221,-400.42 309,-400.42 309,-378.42 221,-378.42"/>
<text text-anchor="start" x="241" y="-386.62" font-family="Helvetica,sans-Serif" font-size="11.00">name</text>
<polygon fill="#ffffff" stroke="transparent" points="221,-356.42 221,-378.42 309,-378.42 309,-356.42 221,-356.42"/>
<polygon fill="none" stroke="black" points="221,-356.42 221,-378.42 309,-378.42 309,-356.42 221,-356.42"/>
<text text-anchor="start" x="241" y="-364.62" font-family="Helvetica,sans-Serif" font-size="11.00">created_at</text>
<polygon fill="#ffffff" stroke="transparent" points="221,-334.42 221,-356.42 309,-356.42 309,-334.42 221,-334.42"/>
<polygon fill="none" stroke="black" points="221,-334.42 221,-356.42 309,-356.42 309,-334.42 221,-334.42"/>
<text text-anchor="start" x="241" y="-342.62" font-family="Helvetica,sans-Serif" font-size="11.00">updated_at</text>
<polygon fill="#ffffff" stroke="transparent" points="221,-316.42 221,-334.42 258,-334.42 258,-316.42 221,-316.42"/>
<polygon fill="none" stroke="black" points="221,-316.42 221,-334.42 258,-334.42 258,-316.42 221,-316.42"/>
<text text-anchor="start" x="224" y="-322.62" font-family="Helvetica,sans-Serif" font-size="11.00">&lt; 1</text>
<polygon fill="#ffffff" stroke="transparent" points="258,-316.42 258,-334.42 279,-334.42 279,-316.42 258,-316.42"/>
<polygon fill="none" stroke="black" points="258,-316.42 258,-334.42 279,-334.42 279,-316.42 258,-316.42"/>
<text text-anchor="start" x="269" y="-322.62" font-family="Helvetica,sans-Serif" font-size="11.00"> &#160;</text>
<polygon fill="#ffffff" stroke="transparent" points="279,-316.42 279,-334.42 309,-334.42 309,-316.42 279,-316.42"/>
<polygon fill="none" stroke="black" points="279,-316.42 279,-334.42 309,-334.42 309,-316.42 279,-316.42"/>
<text text-anchor="start" x="290" y="-322.62" font-family="Helvetica,sans-Serif" font-size="11.00">2 &gt;</text>
</a>
</g>
</g>
<!-- chat_participants&#45;&gt;chats -->
<g id="edge1" class="edge">
<title>chat_participants:w&#45;&gt;chats:e</title>
<path fill="none" stroke="black" d="M384.55,-492.75C354.52,-485.28 347.79,-455.42 310,-455.42"/>
<polygon fill="black" stroke="black" points="391.05,-493.5 398.59,-498 395.03,-493.96 399,-494.42 399,-494.42 399,-494.42 395.03,-493.96 399.41,-490.85 391.05,-493.5 391.05,-493.5"/>
<ellipse fill="none" stroke="black" cx="387.87" cy="-493.13" rx="3.2" ry="3.2"/>
</g>
<!-- users -->
<g id="node5" class="node">
<title>users</title>
<g id="a_node5"><a xlink:href="../../tables/users.html" xlink:title="users" target="_top">
<polygon fill="#ffffff" stroke="transparent" points="8,-87.42 8,-369.42 130,-369.42 130,-87.42 8,-87.42"/>
<polygon fill="#f5f5f5" stroke="transparent" points="8,-347.42 8,-369.42 130,-369.42 130,-347.42 8,-347.42"/>
<polygon fill="none" stroke="black" points="8,-347.42 8,-369.42 130,-369.42 130,-347.42 8,-347.42"/>
<text text-anchor="start" x="11.5" y="-356.62" font-family="Helvetica,sans-Serif" font-weight="bold" font-size="11.00">users</text>
<text text-anchor="start" x="91" y="-355.62" font-family="Helvetica,sans-Serif" font-size="11.00">[table]</text>
<polygon fill="none" stroke="black" points="8,-325.42 8,-347.42 130,-347.42 130,-325.42 8,-325.42"/>
<image xlink:href="../../images/primaryKeys.png" width="11px" height="12px" preserveAspectRatio="xMinYMin meet" x="13" y="-342.423"/>
<text text-anchor="start" x="28" y="-333.62" font-family="Helvetica,sans-Serif" font-size="11.00">id</text>
<polygon fill="#ffffff" stroke="transparent" points="8,-303.42 8,-325.42 130,-325.42 130,-303.42 8,-303.42"/>
<polygon fill="none" stroke="black" points="8,-303.42 8,-325.42 130,-325.42 130,-303.42 8,-303.42"/>
<text text-anchor="start" x="28" y="-311.62" font-family="Helvetica,sans-Serif" font-size="11.00">username</text>
<polygon fill="#ffffff" stroke="transparent" points="8,-281.42 8,-303.42 130,-303.42 130,-281.42 8,-281.42"/>
<polygon fill="none" stroke="black" points="8,-281.42 8,-303.42 130,-303.42 130,-281.42 8,-281.42"/>
<text text-anchor="start" x="28" y="-289.62" font-family="Helvetica,sans-Serif" font-size="11.00">email</text>
<polygon fill="none" stroke="black" points="8,-259.42 8,-281.42 130,-281.42 130,-259.42 8,-259.42"/>
<text text-anchor="start" x="28" y="-267.62" font-family="Helvetica,sans-Serif" font-size="11.00">new_email</text>
<polygon fill="none" stroke="black" points="8,-237.42 8,-259.42 130,-259.42 130,-237.42 8,-237.42"/>
<text text-anchor="start" x="28" y="-245.62" font-family="Helvetica,sans-Serif" font-size="11.00">notification_type</text>
<polygon fill="#ffffff" stroke="transparent" points="8,-215.42 8,-237.42 130,-237.42 130,-215.42 8,-215.42"/>
<polygon fill="none" stroke="black" points="8,-215.42 8,-237.42 130,-237.42 130,-215.42 8,-215.42"/>
<text text-anchor="start" x="28" y="-223.62" font-family="Helvetica,sans-Serif" font-size="11.00">first_name</text>
<polygon fill="#ffffff" stroke="transparent" points="8,-193.42 8,-215.42 130,-215.42 130,-193.42 8,-193.42"/>
<polygon fill="none" stroke="black" points="8,-193.42 8,-215.42 130,-215.42 130,-193.42 8,-193.42"/>
<text text-anchor="start" x="28" y="-201.62" font-family="Helvetica,sans-Serif" font-size="11.00">last_name</text>
<polygon fill="none" stroke="black" points="8,-171.42 8,-193.42 130,-193.42 130,-171.42 8,-171.42"/>
<text text-anchor="start" x="28" y="-179.62" font-family="Helvetica,sans-Serif" font-size="11.00">is_name_visible</text>
<polygon fill="none" stroke="black" points="8,-149.42 8,-171.42 130,-171.42 130,-149.42 8,-149.42"/>
<text text-anchor="start" x="28" y="-157.62" font-family="Helvetica,sans-Serif" font-size="11.00">deleted_at</text>
<polygon fill="none" stroke="black" points="8,-127.42 8,-149.42 130,-149.42 130,-127.42 8,-127.42"/>
<text text-anchor="start" x="28" y="-135.62" font-family="Helvetica,sans-Serif" font-size="11.00">created_at</text>
<polygon fill="none" stroke="black" points="8,-105.42 8,-127.42 130,-127.42 130,-105.42 8,-105.42"/>
<text text-anchor="start" x="28" y="-113.62" font-family="Helvetica,sans-Serif" font-size="11.00">updated_at</text>
<polygon fill="#ffffff" stroke="transparent" points="8,-87.42 8,-105.42 58,-105.42 58,-87.42 8,-87.42"/>
<polygon fill="none" stroke="black" points="8,-87.42 8,-105.42 58,-105.42 58,-87.42 8,-87.42"/>
<text text-anchor="start" x="11" y="-93.62" font-family="Helvetica,sans-Serif" font-size="11.00"> &#160;</text>
<polygon fill="#ffffff" stroke="transparent" points="58,-87.42 58,-105.42 89,-105.42 89,-87.42 58,-87.42"/>
<polygon fill="none" stroke="black" points="58,-87.42 58,-105.42 89,-105.42 89,-87.42 58,-87.42"/>
<text text-anchor="start" x="79" y="-93.62" font-family="Helvetica,sans-Serif" font-size="11.00"> &#160;</text>
<polygon fill="#ffffff" stroke="transparent" points="89,-87.42 89,-105.42 130,-105.42 130,-87.42 89,-87.42"/>
<polygon fill="none" stroke="black" points="89,-87.42 89,-105.42 130,-105.42 130,-87.42 89,-87.42"/>
<text text-anchor="start" x="111" y="-93.62" font-family="Helvetica,sans-Serif" font-size="11.00">4 &gt;</text>
</a>
</g>
</g>
<!-- chat_participants&#45;&gt;users -->
<g id="edge2" class="edge">
<title>chat_participants:w&#45;&gt;users:e</title>
<path fill="none" stroke="black" d="M385.16,-476.77C376.81,-483.2 373.58,-494.96 359,-499.42 279.1,-523.87 236.75,-550.99 171,-499.42 112.3,-453.39 205.59,-336.42 131,-336.42"/>
<polygon fill="black" stroke="black" points="391.37,-474.82 400.08,-475.86 395.18,-473.62 399,-472.42 399,-472.42 399,-472.42 395.18,-473.62 397.92,-468.99 391.37,-474.82 391.37,-474.82"/>
<ellipse fill="none" stroke="black" cx="388.31" cy="-475.78" rx="3.2" ry="3.2"/>
</g>
<!-- messages -->
<g id="node2" class="node">
<title>messages</title>
<g id="a_node2"><a xlink:href="../../tables/messages.html" xlink:title="messages" target="_top">
<polygon fill="#ffffff" stroke="transparent" points="423.5,-61.42 423.5,-255.42 524.5,-255.42 524.5,-61.42 423.5,-61.42"/>
<polygon fill="#f5f5f5" stroke="transparent" points="424,-233.42 424,-255.42 525,-255.42 525,-233.42 424,-233.42"/>
<polygon fill="none" stroke="black" points="424,-233.42 424,-255.42 525,-255.42 525,-233.42 424,-233.42"/>
<text text-anchor="start" x="429" y="-242.62" font-family="Helvetica,sans-Serif" font-weight="bold" font-size="11.00">messages</text>
<text text-anchor="start" x="486" y="-241.62" font-family="Helvetica,sans-Serif" font-size="11.00">[table]</text>
<polygon fill="none" stroke="black" points="424,-211.42 424,-233.42 525,-233.42 525,-211.42 424,-211.42"/>
<image xlink:href="../../images/primaryKeys.png" width="11px" height="12px" preserveAspectRatio="xMinYMin meet" x="429" y="-228.423"/>
<text text-anchor="start" x="449" y="-219.62" font-family="Helvetica,sans-Serif" font-size="11.00">id</text>
<polygon fill="none" stroke="black" points="424,-189.42 424,-211.42 525,-211.42 525,-189.42 424,-189.42"/>
<image xlink:href="../../images/foreignKeys.png" width="11px" height="12px" preserveAspectRatio="xMinYMin meet" x="429" y="-206.423"/>
<text text-anchor="start" x="449" y="-197.62" font-family="Helvetica,sans-Serif" font-size="11.00">chat_id</text>
<polygon fill="#ffffff" stroke="transparent" points="424,-167.42 424,-189.42 525,-189.42 525,-167.42 424,-167.42"/>
<polygon fill="none" stroke="black" points="424,-167.42 424,-189.42 525,-189.42 525,-167.42 424,-167.42"/>
<image xlink:href="../../images/foreignKeys.png" width="11px" height="12px" preserveAspectRatio="xMinYMin meet" x="429" y="-184.423"/>
<text text-anchor="start" x="449" y="-175.62" font-family="Helvetica,sans-Serif" font-size="11.00">sender_id</text>
<polygon fill="#ffffff" stroke="transparent" points="424,-145.42 424,-167.42 525,-167.42 525,-145.42 424,-145.42"/>
<polygon fill="none" stroke="black" points="424,-145.42 424,-167.42 525,-167.42 525,-145.42 424,-145.42"/>
<text text-anchor="start" x="449" y="-153.62" font-family="Helvetica,sans-Serif" font-size="11.00">content</text>
<polygon fill="none" stroke="black" points="424,-123.42 424,-145.42 525,-145.42 525,-123.42 424,-123.42"/>
<text text-anchor="start" x="449" y="-131.62" font-family="Helvetica,sans-Serif" font-size="11.00">read_by_list</text>
<polygon fill="#ffffff" stroke="transparent" points="424,-101.42 424,-123.42 525,-123.42 525,-101.42 424,-101.42"/>
<polygon fill="none" stroke="black" points="424,-101.42 424,-123.42 525,-123.42 525,-101.42 424,-101.42"/>
<text text-anchor="start" x="449" y="-109.62" font-family="Helvetica,sans-Serif" font-size="11.00">created_at</text>
<polygon fill="none" stroke="black" points="424,-79.42 424,-101.42 525,-101.42 525,-79.42 424,-79.42"/>
<text text-anchor="start" x="449" y="-87.62" font-family="Helvetica,sans-Serif" font-size="11.00">updated_at</text>
<polygon fill="#ffffff" stroke="transparent" points="424,-61.42 424,-79.42 472,-79.42 472,-61.42 424,-61.42"/>
<polygon fill="none" stroke="black" points="424,-61.42 424,-79.42 472,-79.42 472,-61.42 424,-61.42"/>
<text text-anchor="start" x="427" y="-67.62" font-family="Helvetica,sans-Serif" font-size="11.00">&lt; 2</text>
<polygon fill="#ffffff" stroke="transparent" points="472,-61.42 472,-79.42 498,-79.42 498,-61.42 472,-61.42"/>
<polygon fill="none" stroke="black" points="472,-61.42 472,-79.42 498,-79.42 498,-61.42 472,-61.42"/>
<text text-anchor="start" x="488" y="-67.62" font-family="Helvetica,sans-Serif" font-size="11.00"> &#160;</text>
<polygon fill="#ffffff" stroke="transparent" points="498,-61.42 498,-79.42 525,-79.42 525,-61.42 498,-61.42"/>
<polygon fill="none" stroke="black" points="498,-61.42 498,-79.42 525,-79.42 525,-61.42 498,-61.42"/>
<text text-anchor="start" x="515" y="-67.62" font-family="Helvetica,sans-Serif" font-size="11.00"> &#160;</text>
</a>
</g>
</g>
<!-- messages&#45;&gt;chats -->
<g id="edge4" class="edge">
<title>messages:w&#45;&gt;chats:e</title>
<path fill="none" stroke="black" d="M408.41,-201.79C310.15,-221.87 428.64,-455.42 310,-455.42"/>
<polygon fill="black" stroke="black" points="415.04,-201.17 423.34,-204.01 419.02,-200.8 423,-200.42 423,-200.42 423,-200.42 419.02,-200.8 422.66,-196.84 415.04,-201.17 415.04,-201.17"/>
<ellipse fill="none" stroke="black" cx="411.85" cy="-201.47" rx="3.2" ry="3.2"/>
</g>
<!-- messages&#45;&gt;users -->
<g id="edge5" class="edge">
<title>messages:w&#45;&gt;users:e</title>
<path fill="none" stroke="black" d="M408.69,-176.05C374.21,-162.5 402.8,-94.5 359,-69.42 286.49,-27.91 234.31,-14.89 171,-69.42 125.54,-108.58 191,-336.42 131,-336.42"/>
<polygon fill="black" stroke="black" points="415.11,-177.12 422.41,-181.97 419.05,-177.77 423,-178.42 423,-178.42 423,-178.42 419.05,-177.77 423.59,-174.87 415.11,-177.12 415.11,-177.12"/>
<ellipse fill="none" stroke="black" cx="411.95" cy="-176.59" rx="3.2" ry="3.2"/>
</g>
<!-- sessions -->
<g id="node3" class="node">
<title>sessions</title>
<g id="a_node3"><a xlink:href="../../tables/sessions.html" xlink:title="sessions" target="_top">
<polygon fill="#ffffff" stroke="transparent" points="179,-79.42 179,-295.42 351,-295.42 351,-79.42 179,-79.42"/>
<polygon fill="#f5f5f5" stroke="transparent" points="179,-273.42 179,-295.42 351,-295.42 351,-273.42 179,-273.42"/>
<polygon fill="none" stroke="black" points="179,-273.42 179,-295.42 351,-295.42 351,-273.42 179,-273.42"/>
<text text-anchor="start" x="183.5" y="-282.62" font-family="Helvetica,sans-Serif" font-weight="bold" font-size="11.00">sessions</text>
<text text-anchor="start" x="312" y="-281.62" font-family="Helvetica,sans-Serif" font-size="11.00">[table]</text>
<polygon fill="none" stroke="black" points="179,-251.42 179,-273.42 351,-273.42 351,-251.42 179,-251.42"/>
<image xlink:href="../../images/primaryKeys.png" width="11px" height="12px" preserveAspectRatio="xMinYMin meet" x="184" y="-268.423"/>
<text text-anchor="start" x="199" y="-259.62" font-family="Helvetica,sans-Serif" font-size="11.00">id</text>
<polygon fill="none" stroke="black" points="179,-229.42 179,-251.42 351,-251.42 351,-229.42 179,-229.42"/>
<image xlink:href="../../images/foreignKeys.png" width="11px" height="12px" preserveAspectRatio="xMinYMin meet" x="184" y="-246.423"/>
<text text-anchor="start" x="199" y="-237.62" font-family="Helvetica,sans-Serif" font-size="11.00">user_id</text>
<polygon fill="none" stroke="black" points="179,-207.42 179,-229.42 351,-229.42 351,-207.42 179,-207.42"/>
<text text-anchor="start" x="199" y="-215.62" font-family="Helvetica,sans-Serif" font-size="11.00">device_token</text>
<polygon fill="none" stroke="black" points="179,-185.42 179,-207.42 351,-207.42 351,-185.42 179,-185.42"/>
<text text-anchor="start" x="199" y="-193.62" font-family="Helvetica,sans-Serif" font-size="11.00">platform_type</text>
<polygon fill="none" stroke="black" points="179,-163.42 179,-185.42 351,-185.42 351,-163.42 179,-163.42"/>
<text text-anchor="start" x="199" y="-171.62" font-family="Helvetica,sans-Serif" font-size="11.00">refresh_token</text>
<polygon fill="none" stroke="black" points="179,-141.42 179,-163.42 351,-163.42 351,-141.42 179,-141.42"/>
<text text-anchor="start" x="199" y="-149.62" font-family="Helvetica,sans-Serif" font-size="11.00">refresh_token_expired_at</text>
<polygon fill="none" stroke="black" points="179,-119.42 179,-141.42 351,-141.42 351,-119.42 179,-119.42"/>
<text text-anchor="start" x="199" y="-127.62" font-family="Helvetica,sans-Serif" font-size="11.00">created_at</text>
<polygon fill="none" stroke="black" points="179,-97.42 179,-119.42 351,-119.42 351,-97.42 179,-97.42"/>
<text text-anchor="start" x="199" y="-105.62" font-family="Helvetica,sans-Serif" font-size="11.00">updated_at</text>
<polygon fill="#ffffff" stroke="transparent" points="179,-79.42 179,-97.42 263,-97.42 263,-79.42 179,-79.42"/>
<polygon fill="none" stroke="black" points="179,-79.42 179,-97.42 263,-97.42 263,-79.42 179,-79.42"/>
<text text-anchor="start" x="182" y="-85.62" font-family="Helvetica,sans-Serif" font-size="11.00">&lt; 1</text>
<polygon fill="#ffffff" stroke="transparent" points="263,-79.42 263,-97.42 307,-97.42 307,-79.42 263,-79.42"/>
<polygon fill="none" stroke="black" points="263,-79.42 263,-97.42 307,-97.42 307,-79.42 263,-79.42"/>
<text text-anchor="start" x="297" y="-85.62" font-family="Helvetica,sans-Serif" font-size="11.00"> &#160;</text>
<polygon fill="#ffffff" stroke="transparent" points="307,-79.42 307,-97.42 351,-97.42 351,-79.42 307,-79.42"/>
<polygon fill="none" stroke="black" points="307,-79.42 307,-97.42 351,-97.42 351,-79.42 307,-79.42"/>
<text text-anchor="start" x="341" y="-85.62" font-family="Helvetica,sans-Serif" font-size="11.00"> &#160;</text>
</a>
</g>
</g>
<!-- sessions&#45;&gt;users -->
<g id="edge6" class="edge">
<title>sessions:w&#45;&gt;users:e</title>
<path fill="none" stroke="black" d="M163.98,-244.8C141.29,-263.58 172.38,-336.42 131,-336.42"/>
<polygon fill="black" stroke="black" points="170.36,-242.81 179.07,-243.86 174.18,-241.61 178,-240.42 178,-240.42 178,-240.42 174.18,-241.61 176.93,-236.99 170.36,-242.81 170.36,-242.81"/>
<ellipse fill="none" stroke="black" cx="167.31" cy="-243.76" rx="3.2" ry="3.2"/>
</g>
<!-- chats&#45;&gt;users -->
<g id="edge3" class="edge">
<title>chats:w&#45;&gt;users:e</title>
<path fill="none" stroke="black" d="M205.68,-431.03C165.98,-416.09 184.02,-336.42 131,-336.42"/>
<polygon fill="black" stroke="black" points="212.11,-432.1 219.41,-436.97 216.05,-432.76 220,-433.42 220,-433.42 220,-433.42 216.05,-432.76 220.59,-429.87 212.11,-432.1 212.11,-432.1"/>
<ellipse fill="none" stroke="black" cx="208.95" cy="-431.57" rx="3.2" ry="3.2"/>
</g>
</g>
</svg>
