<?xml version="1.0" encoding="UTF-8" standalone="no"?>
<!DOCTYPE svg PUBLIC "-//W3C//DTD SVG 1.1//EN"
 "http://www.w3.org/Graphics/SVG/1.1/DTD/svg11.dtd">
<!-- Generated by graphviz version 2.47.1 (20210515.0534)
 -->
<!-- Title: oneDegreeRelationshipsDiagram Pages: 1 -->
<svg width="209pt" height="115pt"
 viewBox="0.00 0.00 209.00 115.00" xmlns="http://www.w3.org/2000/svg" xmlns:xlink="http://www.w3.org/1999/xlink">
<g id="graph0" class="graph" transform="scale(1 1) rotate(0) translate(4 111)">
<title>oneDegreeRelationshipsDiagram</title>
<polygon fill="#ffffff" stroke="transparent" points="-4,4 -4,-111 205,-111 205,4 -4,4"/>
<text text-anchor="middle" x="73.5" y="-7.2" font-family="Helvetica,sans-Serif" font-size="11.00">Generated by SchemaSpy</text>
<!-- alembic_version -->
<g id="node1" class="node">
<title>alembic_version</title>
<g id="a_node1"><a xlink:href="../../tables/alembic_version.html" xlink:title="alembic_version" target="_top">
<polygon fill="#ffffff" stroke="transparent" points="8,-37 8,-103 193,-103 193,-37 8,-37"/>
<polygon fill="#f5f5f5" stroke="transparent" points="10.5,-79 10.5,-101 191.5,-101 191.5,-79 10.5,-79"/>
<polygon fill="none" stroke="black" points="10.5,-79 10.5,-101 191.5,-101 191.5,-79 10.5,-79"/>
<text text-anchor="start" x="15.5" y="-88.2" font-family="Helvetica,sans-Serif" font-weight="bold" font-size="11.00">alembic_version</text>
<text text-anchor="start" x="152.5" y="-87.2" font-family="Helvetica,sans-Serif" font-size="11.00">[table]</text>
<polygon fill="none" stroke="black" points="10.5,-57 10.5,-79 127.5,-79 127.5,-57 10.5,-57"/>
<image xlink:href="../../images/primaryKeys.png" width="11px" height="12px" preserveAspectRatio="xMinYMin meet" x="15.5" y="-74"/>
<text text-anchor="start" x="30.5" y="-65.2" font-family="Helvetica,sans-Serif" font-size="11.00">version_num</text>
<polygon fill="none" stroke="black" points="127.5,-57 127.5,-79 191.5,-79 191.5,-57 127.5,-57"/>
<text text-anchor="start" x="130.5" y="-65.2" font-family="Helvetica,sans-Serif" font-size="11.00">varchar[32]</text>
<polygon fill="#ffffff" stroke="transparent" points="10.5,-39 10.5,-57 73.5,-57 73.5,-39 10.5,-39"/>
<polygon fill="none" stroke="black" points="10.5,-39 10.5,-57 73.5,-57 73.5,-39 10.5,-39"/>
<text text-anchor="start" x="13.5" y="-45.2" font-family="Helvetica,sans-Serif" font-size="11.00">&lt; 0</text>
<polygon fill="#ffffff" stroke="transparent" points="73.5,-39 73.5,-57 127.5,-57 127.5,-39 73.5,-39"/>
<polygon fill="none" stroke="black" points="73.5,-39 73.5,-57 127.5,-57 127.5,-39 73.5,-39"/>
<text text-anchor="start" x="117.5" y="-45.2" font-family="Helvetica,sans-Serif" font-size="11.00"> &#160;</text>
<polygon fill="#ffffff" stroke="transparent" points="127.5,-39 127.5,-57 191.5,-57 191.5,-39 127.5,-39"/>
<polygon fill="none" stroke="black" points="127.5,-39 127.5,-57 191.5,-57 191.5,-39 127.5,-39"/>
<text text-anchor="start" x="172.5" y="-45.2" font-family="Helvetica,sans-Serif" font-size="11.00">0 &gt;</text>
<polygon fill="none" stroke="black" stroke-width="2" points="9,-38 9,-102 192,-102 192,-38 9,-38"/>
</a>
</g>
</g>
</g>
</svg>
