<?xml version="1.0" encoding="UTF-8" standalone="no"?>
<!DOCTYPE svg PUBLIC "-//W3C//DTD SVG 1.1//EN"
 "http://www.w3.org/Graphics/SVG/1.1/DTD/svg11.dtd">
<!-- Generated by graphviz version 2.47.1 (20210515.0534)
 -->
<!-- Title: twoDegreesRelationshipsDiagram Pages: 1 -->
<svg width="529pt" height="366pt"
 viewBox="0.00 0.00 529.00 365.80" xmlns="http://www.w3.org/2000/svg" xmlns:xlink="http://www.w3.org/1999/xlink">
<g id="graph0" class="graph" transform="scale(1 1) rotate(0) translate(4 361.8)">
<title>twoDegreesRelationshipsDiagram</title>
<polygon fill="#ffffff" stroke="transparent" points="-4,4 -4,-361.8 525,-361.8 525,4 -4,4"/>
<text text-anchor="middle" x="73.5" y="-7.2" font-family="Helvetica,sans-Serif" font-size="11.00">Generated by SchemaSpy</text>
<!-- chat_participants -->
<g id="node1" class="node">
<title>chat_participants</title>
<g id="a_node1"><a xlink:href="../../tables/chat_participants.html" xlink:title="chat_participants" target="_top">
<polygon fill="#ffffff" stroke="transparent" points="365,-284 365,-342 513,-342 513,-284 365,-284"/>
<polygon fill="#f5f5f5" stroke="transparent" points="365,-320 365,-342 513,-342 513,-320 365,-320"/>
<polygon fill="none" stroke="black" points="365,-320 365,-342 513,-342 513,-320 365,-320"/>
<text text-anchor="start" x="370" y="-329.2" font-family="Helvetica,sans-Serif" font-weight="bold" font-size="11.00">chat_participants</text>
<text text-anchor="start" x="474" y="-328.2" font-family="Helvetica,sans-Serif" font-size="11.00">[table]</text>
<polygon fill="none" stroke="black" points="365,-302 365,-320 513,-320 513,-302 365,-302"/>
<text text-anchor="start" x="368" y="-308.2" font-family="Helvetica,sans-Serif" font-size="11.00">...</text>
<polygon fill="#ffffff" stroke="transparent" points="365,-284 365,-302 420,-302 420,-284 365,-284"/>
<polygon fill="none" stroke="black" points="365,-284 365,-302 420,-302 420,-284 365,-284"/>
<text text-anchor="start" x="368" y="-290.2" font-family="Helvetica,sans-Serif" font-size="11.00">&lt; 2</text>
<polygon fill="#ffffff" stroke="transparent" points="420,-284 420,-302 483,-302 483,-284 420,-284"/>
<polygon fill="none" stroke="black" points="420,-284 420,-302 483,-302 483,-284 420,-284"/>
<text text-anchor="start" x="440" y="-290.2" font-family="Helvetica,sans-Serif" font-size="11.00">90 rows</text>
<polygon fill="#ffffff" stroke="transparent" points="483,-284 483,-302 513,-302 513,-284 483,-284"/>
<polygon fill="none" stroke="black" points="483,-284 483,-302 513,-302 513,-284 483,-284"/>
<text text-anchor="start" x="503" y="-290.2" font-family="Helvetica,sans-Serif" font-size="11.00"> &#160;</text>
</a>
</g>
</g>
<!-- chats -->
<g id="node2" class="node">
<title>chats</title>
<g id="a_node2"><a xlink:href="../../tables/chats.html" xlink:title="chats" target="_top">
<polygon fill="#ffffff" stroke="transparent" points="133,-143 133,-319 316,-319 316,-143 133,-143"/>
<polygon fill="#f5f5f5" stroke="transparent" points="135.5,-295 135.5,-317 314.5,-317 314.5,-295 135.5,-295"/>
<polygon fill="none" stroke="black" points="135.5,-295 135.5,-317 314.5,-317 314.5,-295 135.5,-295"/>
<text text-anchor="start" x="139" y="-304.2" font-family="Helvetica,sans-Serif" font-weight="bold" font-size="11.00">chats</text>
<text text-anchor="start" x="275.5" y="-303.2" font-family="Helvetica,sans-Serif" font-size="11.00">[table]</text>
<polygon fill="none" stroke="black" points="135.5,-273 135.5,-295 223.5,-295 223.5,-273 135.5,-273"/>
<image xlink:href="../../images/primaryKeys.png" width="11px" height="12px" preserveAspectRatio="xMinYMin meet" x="140.5" y="-290"/>
<text text-anchor="start" x="155.5" y="-281.2" font-family="Helvetica,sans-Serif" font-size="11.00">id</text>
<polygon fill="none" stroke="black" points="223.5,-273 223.5,-295 314.5,-295 314.5,-273 223.5,-273"/>
<text text-anchor="start" x="226.5" y="-281.2" font-family="Helvetica,sans-Serif" font-size="11.00">serial[10]</text>
<polygon fill="#ffffff" stroke="transparent" points="135.5,-251 135.5,-273 223.5,-273 223.5,-251 135.5,-251"/>
<polygon fill="none" stroke="black" points="135.5,-251 135.5,-273 223.5,-273 223.5,-251 135.5,-251"/>
<image xlink:href="../../images/foreignKeys.png" width="11px" height="12px" preserveAspectRatio="xMinYMin meet" x="140.5" y="-268"/>
<text text-anchor="start" x="155.5" y="-259.2" font-family="Helvetica,sans-Serif" font-size="11.00">created_by</text>
<polygon fill="none" stroke="black" points="223.5,-251 223.5,-273 314.5,-273 314.5,-251 223.5,-251"/>
<text text-anchor="start" x="226.5" y="-259.2" font-family="Helvetica,sans-Serif" font-size="11.00">int4[10]</text>
<polygon fill="none" stroke="black" points="135.5,-229 135.5,-251 223.5,-251 223.5,-229 135.5,-229"/>
<text text-anchor="start" x="155.5" y="-237.2" font-family="Helvetica,sans-Serif" font-size="11.00">chat_type</text>
<polygon fill="none" stroke="black" points="223.5,-229 223.5,-251 314.5,-251 314.5,-229 223.5,-229"/>
<text text-anchor="start" x="226.5" y="-237.2" font-family="Helvetica,sans-Serif" font-size="11.00">int4[10]</text>
<polygon fill="#ffffff" stroke="transparent" points="135.5,-207 135.5,-229 223.5,-229 223.5,-207 135.5,-207"/>
<polygon fill="none" stroke="black" points="135.5,-207 135.5,-229 223.5,-229 223.5,-207 135.5,-207"/>
<text text-anchor="start" x="155.5" y="-215.2" font-family="Helvetica,sans-Serif" font-size="11.00">name</text>
<polygon fill="none" stroke="black" points="223.5,-207 223.5,-229 314.5,-229 314.5,-207 223.5,-207"/>
<text text-anchor="start" x="226.5" y="-215.2" font-family="Helvetica,sans-Serif" font-size="11.00">varchar[255]</text>
<polygon fill="#ffffff" stroke="transparent" points="135.5,-185 135.5,-207 223.5,-207 223.5,-185 135.5,-185"/>
<polygon fill="none" stroke="black" points="135.5,-185 135.5,-207 223.5,-207 223.5,-185 135.5,-185"/>
<text text-anchor="start" x="155.5" y="-193.2" font-family="Helvetica,sans-Serif" font-size="11.00">created_at</text>
<polygon fill="none" stroke="black" points="223.5,-185 223.5,-207 314.5,-207 314.5,-185 223.5,-185"/>
<text text-anchor="start" x="226.5" y="-193.2" font-family="Helvetica,sans-Serif" font-size="11.00">timestamp[29,6]</text>
<polygon fill="#ffffff" stroke="transparent" points="135.5,-163 135.5,-185 223.5,-185 223.5,-163 135.5,-163"/>
<polygon fill="none" stroke="black" points="135.5,-163 135.5,-185 223.5,-185 223.5,-163 135.5,-163"/>
<text text-anchor="start" x="155.5" y="-171.2" font-family="Helvetica,sans-Serif" font-size="11.00">updated_at</text>
<polygon fill="none" stroke="black" points="223.5,-163 223.5,-185 314.5,-185 314.5,-163 223.5,-163"/>
<text text-anchor="start" x="226.5" y="-171.2" font-family="Helvetica,sans-Serif" font-size="11.00">timestamp[29,6]</text>
<polygon fill="#ffffff" stroke="transparent" points="135.5,-145 135.5,-163 183.5,-163 183.5,-145 135.5,-145"/>
<polygon fill="none" stroke="black" points="135.5,-145 135.5,-163 183.5,-163 183.5,-145 135.5,-145"/>
<text text-anchor="start" x="138.5" y="-151.2" font-family="Helvetica,sans-Serif" font-size="11.00">&lt; 1</text>
<polygon fill="#ffffff" stroke="transparent" points="183.5,-145 183.5,-163 223.5,-163 223.5,-145 183.5,-145"/>
<polygon fill="none" stroke="black" points="183.5,-145 183.5,-163 223.5,-163 223.5,-145 183.5,-145"/>
<text text-anchor="start" x="213.5" y="-151.2" font-family="Helvetica,sans-Serif" font-size="11.00"> &#160;</text>
<polygon fill="#ffffff" stroke="transparent" points="223.5,-145 223.5,-163 314.5,-163 314.5,-145 223.5,-145"/>
<polygon fill="none" stroke="black" points="223.5,-145 223.5,-163 314.5,-163 314.5,-145 223.5,-145"/>
<text text-anchor="start" x="295.5" y="-151.2" font-family="Helvetica,sans-Serif" font-size="11.00">2 &gt;</text>
<polygon fill="none" stroke="black" stroke-width="2" points="134,-144 134,-318 315,-318 315,-144 134,-144"/>
</a>
</g>
</g>
<!-- chat_participants&#45;&gt;chats -->
<g id="edge1" class="edge">
<title>chat_participants:w&#45;&gt;chats:e</title>
<path fill="none" stroke="black" d="M342.67,-285.96C333.55,-284.73 324.39,-284 315.5,-284"/>
<polygon fill="black" stroke="black" points="349.02,-287 356.34,-291.83 352.97,-287.64 356.92,-288.28 356.92,-288.28 356.92,-288.28 352.97,-287.64 357.5,-284.73 349.02,-287 349.02,-287"/>
<ellipse fill="none" stroke="black" cx="345.86" cy="-286.48" rx="3.2" ry="3.2"/>
</g>
<!-- users -->
<g id="node3" class="node">
<title>users</title>
<g id="a_node3"><a xlink:href="../../tables/users.html" xlink:title="users" target="_top">
<polygon fill="#ffffff" stroke="transparent" points="8,-161 8,-219 84,-219 84,-161 8,-161"/>
<polygon fill="#f5f5f5" stroke="transparent" points="8,-197 8,-219 84,-219 84,-197 8,-197"/>
<polygon fill="none" stroke="black" points="8,-197 8,-219 84,-219 84,-197 8,-197"/>
<text text-anchor="start" x="11.5" y="-206.2" font-family="Helvetica,sans-Serif" font-weight="bold" font-size="11.00">users</text>
<text text-anchor="start" x="45" y="-205.2" font-family="Helvetica,sans-Serif" font-size="11.00">[table]</text>
<polygon fill="none" stroke="black" points="8,-179 8,-197 84,-197 84,-179 8,-179"/>
<text text-anchor="start" x="11" y="-185.2" font-family="Helvetica,sans-Serif" font-size="11.00">...</text>
<polygon fill="#ffffff" stroke="transparent" points="8,-161 8,-179 35,-179 35,-161 8,-161"/>
<polygon fill="none" stroke="black" points="8,-161 8,-179 35,-179 35,-161 8,-161"/>
<text text-anchor="start" x="11" y="-167.2" font-family="Helvetica,sans-Serif" font-size="11.00"> &#160;</text>
<polygon fill="#ffffff" stroke="transparent" points="35,-161 35,-179 55,-179 55,-161 35,-161"/>
<polygon fill="none" stroke="black" points="35,-161 35,-179 55,-179 55,-161 35,-161"/>
<text text-anchor="start" x="45" y="-167.2" font-family="Helvetica,sans-Serif" font-size="11.00"> &#160;</text>
<polygon fill="#ffffff" stroke="transparent" points="55,-161 55,-179 84,-179 84,-161 55,-161"/>
<polygon fill="none" stroke="black" points="55,-161 55,-179 84,-179 84,-161 55,-161"/>
<text text-anchor="start" x="65" y="-167.2" font-family="Helvetica,sans-Serif" font-size="11.00">4 &gt;</text>
</a>
</g>
</g>
<!-- chat_participants&#45;&gt;users -->
<g id="edge2" class="edge">
<title>chat_participants:w&#45;&gt;users:e</title>
<path fill="none" stroke="black" d="M342.89,-344.33C277.24,-359.98 190.35,-368.4 125,-330 86.02,-307.09 65.1,-256.86 55.01,-223.22"/>
<polygon fill="black" stroke="black" points="349.22,-342.73 357.86,-344.27 353.1,-341.76 356.98,-340.78 356.98,-340.78 356.98,-340.78 353.1,-341.76 356.1,-337.29 349.22,-342.73 349.22,-342.73"/>
<ellipse fill="none" stroke="black" cx="346.12" cy="-343.51" rx="3.2" ry="3.2"/>
</g>
<!-- chats&#45;&gt;users -->
<g id="edge3" class="edge">
<title>chats:w&#45;&gt;users:e</title>
<path fill="none" stroke="black" d="M119.97,-260.03C99.61,-254.53 82.12,-238.43 69.37,-223.05"/>
<polygon fill="black" stroke="black" points="126.57,-260.92 134.02,-265.57 130.54,-261.46 134.5,-262 134.5,-262 134.5,-262 130.54,-261.46 134.98,-258.43 126.57,-260.92 126.57,-260.92"/>
<ellipse fill="none" stroke="black" cx="123.4" cy="-260.49" rx="3.2" ry="3.2"/>
</g>
<!-- messages -->
<g id="node4" class="node">
<title>messages</title>
<g id="a_node4"><a xlink:href="../../tables/messages.html" xlink:title="messages" target="_top">
<polygon fill="#ffffff" stroke="transparent" points="388.5,-179 388.5,-237 489.5,-237 489.5,-179 388.5,-179"/>
<polygon fill="#f5f5f5" stroke="transparent" points="389,-215 389,-237 490,-237 490,-215 389,-215"/>
<polygon fill="none" stroke="black" points="389,-215 389,-237 490,-237 490,-215 389,-215"/>
<text text-anchor="start" x="394" y="-224.2" font-family="Helvetica,sans-Serif" font-weight="bold" font-size="11.00">messages</text>
<text text-anchor="start" x="451" y="-223.2" font-family="Helvetica,sans-Serif" font-size="11.00">[table]</text>
<polygon fill="none" stroke="black" points="389,-197 389,-215 490,-215 490,-197 389,-197"/>
<text text-anchor="start" x="392" y="-203.2" font-family="Helvetica,sans-Serif" font-size="11.00">...</text>
<polygon fill="#ffffff" stroke="transparent" points="389,-179 389,-197 437,-197 437,-179 389,-179"/>
<polygon fill="none" stroke="black" points="389,-179 389,-197 437,-197 437,-179 389,-179"/>
<text text-anchor="start" x="392" y="-185.2" font-family="Helvetica,sans-Serif" font-size="11.00">&lt; 2</text>
<polygon fill="#ffffff" stroke="transparent" points="437,-179 437,-197 463,-197 463,-179 437,-179"/>
<polygon fill="none" stroke="black" points="437,-179 437,-197 463,-197 463,-179 437,-179"/>
<text text-anchor="start" x="453" y="-185.2" font-family="Helvetica,sans-Serif" font-size="11.00"> &#160;</text>
<polygon fill="#ffffff" stroke="transparent" points="463,-179 463,-197 490,-197 490,-179 463,-179"/>
<polygon fill="none" stroke="black" points="463,-179 463,-197 490,-197 490,-179 463,-179"/>
<text text-anchor="start" x="480" y="-185.2" font-family="Helvetica,sans-Serif" font-size="11.00"> &#160;</text>
</a>
</g>
</g>
<!-- messages&#45;&gt;chats -->
<g id="edge4" class="edge">
<title>messages:w&#45;&gt;chats:e</title>
<path fill="none" stroke="black" d="M383.73,-249.56C358.37,-267.3 330.52,-284 315.5,-284"/>
<polygon fill="black" stroke="black" points="389.02,-245.77 397.62,-244.04 392.27,-243.44 395.53,-241.11 395.53,-241.11 395.53,-241.11 392.27,-243.44 393.43,-238.19 389.02,-245.77 389.02,-245.77"/>
<ellipse fill="none" stroke="black" cx="386.42" cy="-247.63" rx="3.2" ry="3.2"/>
</g>
<!-- messages&#45;&gt;users -->
<g id="edge5" class="edge">
<title>messages:w&#45;&gt;users:e</title>
<path fill="none" stroke="black" d="M479.36,-163.03C500.47,-106.53 221.91,-99.92 125,-132 109.3,-137.2 94.19,-146.92 81.52,-156.93"/>
<polygon fill="black" stroke="black" points="475.58,-168.44 468.05,-172.94 473.29,-171.72 471,-175 471,-175 471,-175 473.29,-171.72 473.95,-177.06 475.58,-168.44 475.58,-168.44"/>
<ellipse fill="none" stroke="black" cx="477.41" cy="-165.82" rx="3.2" ry="3.2"/>
</g>
<!-- sessions -->
<g id="node5" class="node">
<title>sessions</title>
<g id="a_node5"><a xlink:href="../../tables/sessions.html" xlink:title="sessions" target="_top">
<polygon fill="#ffffff" stroke="transparent" points="178,-37 178,-95 271,-95 271,-37 178,-37"/>
<polygon fill="#f5f5f5" stroke="transparent" points="178.5,-73 178.5,-95 271.5,-95 271.5,-73 178.5,-73"/>
<polygon fill="none" stroke="black" points="178.5,-73 178.5,-95 271.5,-95 271.5,-73 178.5,-73"/>
<text text-anchor="start" x="183" y="-82.2" font-family="Helvetica,sans-Serif" font-weight="bold" font-size="11.00">sessions</text>
<text text-anchor="start" x="232.5" y="-81.2" font-family="Helvetica,sans-Serif" font-size="11.00">[table]</text>
<polygon fill="none" stroke="black" points="178.5,-55 178.5,-73 271.5,-73 271.5,-55 178.5,-55"/>
<text text-anchor="start" x="181.5" y="-61.2" font-family="Helvetica,sans-Serif" font-size="11.00">...</text>
<polygon fill="#ffffff" stroke="transparent" points="178.5,-37 178.5,-55 222.5,-55 222.5,-37 178.5,-37"/>
<polygon fill="none" stroke="black" points="178.5,-37 178.5,-55 222.5,-55 222.5,-37 178.5,-37"/>
<text text-anchor="start" x="181.5" y="-43.2" font-family="Helvetica,sans-Serif" font-size="11.00">&lt; 1</text>
<polygon fill="#ffffff" stroke="transparent" points="222.5,-37 222.5,-55 246.5,-55 246.5,-37 222.5,-37"/>
<polygon fill="none" stroke="black" points="222.5,-37 222.5,-55 246.5,-55 246.5,-37 222.5,-37"/>
<text text-anchor="start" x="236.5" y="-43.2" font-family="Helvetica,sans-Serif" font-size="11.00"> &#160;</text>
<polygon fill="#ffffff" stroke="transparent" points="246.5,-37 246.5,-55 271.5,-55 271.5,-37 246.5,-37"/>
<polygon fill="none" stroke="black" points="246.5,-37 246.5,-55 271.5,-55 271.5,-37 246.5,-37"/>
<text text-anchor="start" x="261.5" y="-43.2" font-family="Helvetica,sans-Serif" font-size="11.00"> &#160;</text>
</a>
</g>
</g>
<!-- sessions&#45;&gt;users -->
<g id="edge6" class="edge">
<title>sessions:w&#45;&gt;users:e</title>
<path fill="none" stroke="black" d="M163.1,-65.35C116.78,-74.05 82.07,-122.99 63.16,-156.89"/>
<polygon fill="black" stroke="black" points="169.53,-64.75 177.84,-67.58 173.52,-64.37 177.5,-64 177.5,-64 177.5,-64 173.52,-64.37 177.16,-60.42 169.53,-64.75 169.53,-64.75"/>
<ellipse fill="none" stroke="black" cx="166.35" cy="-65.04" rx="3.2" ry="3.2"/>
</g>
</g>
</svg>
