<?xml version="1.0" encoding="UTF-8" standalone="no"?>
<!DOCTYPE svg PUBLIC "-//W3C//DTD SVG 1.1//EN"
 "http://www.w3.org/Graphics/SVG/1.1/DTD/svg11.dtd">
<!-- Generated by graphviz version 2.47.1 (20210515.0534)
 -->
<!-- Title: twoDegreesRelationshipsDiagram Pages: 1 -->
<svg width="511pt" height="309pt"
 viewBox="0.00 0.00 511.00 309.00" xmlns="http://www.w3.org/2000/svg" xmlns:xlink="http://www.w3.org/1999/xlink">
<g id="graph0" class="graph" transform="scale(1 1) rotate(0) translate(4 305)">
<title>twoDegreesRelationshipsDiagram</title>
<polygon fill="#ffffff" stroke="transparent" points="-4,4 -4,-305 507,-305 507,4 -4,4"/>
<text text-anchor="middle" x="73.5" y="-7.2" font-family="Helvetica,sans-Serif" font-size="11.00">Generated by SchemaSpy</text>
<!-- chat_participants -->
<g id="node1" class="node">
<title>chat_participants</title>
<g id="a_node1"><a xlink:href="../../tables/chat_participants.html" xlink:title="chat_participants" target="_top">
<polygon fill="#ffffff" stroke="transparent" points="275,-165 275,-297 495,-297 495,-165 275,-165"/>
<polygon fill="#f5f5f5" stroke="transparent" points="277,-273 277,-295 493,-295 493,-273 277,-273"/>
<polygon fill="none" stroke="black" points="277,-273 277,-295 493,-295 493,-273 277,-273"/>
<text text-anchor="start" x="282" y="-282.2" font-family="Helvetica,sans-Serif" font-weight="bold" font-size="11.00">chat_participants</text>
<text text-anchor="start" x="454" y="-281.2" font-family="Helvetica,sans-Serif" font-size="11.00">[table]</text>
<polygon fill="none" stroke="black" points="277,-251 277,-273 402,-273 402,-251 277,-251"/>
<image xlink:href="../../images/primaryKeys.png" width="11px" height="12px" preserveAspectRatio="xMinYMin meet" x="282" y="-268"/>
<text text-anchor="start" x="297" y="-259.2" font-family="Helvetica,sans-Serif" font-size="11.00">chat_id</text>
<polygon fill="none" stroke="black" points="402,-251 402,-273 493,-273 493,-251 402,-251"/>
<text text-anchor="start" x="405" y="-259.2" font-family="Helvetica,sans-Serif" font-size="11.00">int4[10]</text>
<polygon fill="none" stroke="black" points="277,-229 277,-251 402,-251 402,-229 277,-229"/>
<image xlink:href="../../images/primaryKeys.png" width="11px" height="12px" preserveAspectRatio="xMinYMin meet" x="282" y="-246"/>
<text text-anchor="start" x="297" y="-237.2" font-family="Helvetica,sans-Serif" font-size="11.00">user_id</text>
<polygon fill="none" stroke="black" points="402,-229 402,-251 493,-251 493,-229 402,-229"/>
<text text-anchor="start" x="405" y="-237.2" font-family="Helvetica,sans-Serif" font-size="11.00">int4[10]</text>
<polygon fill="none" stroke="black" points="277,-207 277,-229 402,-229 402,-207 277,-207"/>
<text text-anchor="start" x="297" y="-215.2" font-family="Helvetica,sans-Serif" font-size="11.00">created_at</text>
<polygon fill="none" stroke="black" points="402,-207 402,-229 493,-229 493,-207 402,-207"/>
<text text-anchor="start" x="405" y="-215.2" font-family="Helvetica,sans-Serif" font-size="11.00">timestamp[29,6]</text>
<polygon fill="none" stroke="black" points="277,-185 277,-207 402,-207 402,-185 277,-185"/>
<text text-anchor="start" x="297" y="-193.2" font-family="Helvetica,sans-Serif" font-size="11.00">updated_at</text>
<polygon fill="none" stroke="black" points="402,-185 402,-207 493,-207 493,-185 402,-185"/>
<text text-anchor="start" x="405" y="-193.2" font-family="Helvetica,sans-Serif" font-size="11.00">timestamp[29,6]</text>
<polygon fill="#ffffff" stroke="transparent" points="277,-167 277,-185 327,-185 327,-167 277,-167"/>
<polygon fill="none" stroke="black" points="277,-167 277,-185 327,-185 327,-167 277,-167"/>
<text text-anchor="start" x="280" y="-173.2" font-family="Helvetica,sans-Serif" font-size="11.00">&lt; 2</text>
<polygon fill="#ffffff" stroke="transparent" points="327,-167 327,-185 402,-185 402,-167 327,-167"/>
<polygon fill="none" stroke="black" points="327,-167 327,-185 402,-185 402,-167 327,-167"/>
<text text-anchor="start" x="359" y="-173.2" font-family="Helvetica,sans-Serif" font-size="11.00">90 rows</text>
<polygon fill="#ffffff" stroke="transparent" points="402,-167 402,-185 493,-185 493,-167 402,-167"/>
<polygon fill="none" stroke="black" points="402,-167 402,-185 493,-185 493,-167 402,-167"/>
<text text-anchor="start" x="474" y="-173.2" font-family="Helvetica,sans-Serif" font-size="11.00">0 &gt;</text>
<polygon fill="none" stroke="black" stroke-width="2" points="276,-166 276,-296 494,-296 494,-166 276,-166"/>
</a>
</g>
</g>
<!-- chats -->
<g id="node2" class="node">
<title>chats</title>
<g id="a_node2"><a xlink:href="../../tables/chats.html" xlink:title="chats" target="_top">
<polygon fill="#ffffff" stroke="transparent" points="141.5,-143 141.5,-201 217.5,-201 217.5,-143 141.5,-143"/>
<polygon fill="#f5f5f5" stroke="transparent" points="141.5,-179 141.5,-201 217.5,-201 217.5,-179 141.5,-179"/>
<polygon fill="none" stroke="black" points="141.5,-179 141.5,-201 217.5,-201 217.5,-179 141.5,-179"/>
<text text-anchor="start" x="145" y="-188.2" font-family="Helvetica,sans-Serif" font-weight="bold" font-size="11.00">chats</text>
<text text-anchor="start" x="178.5" y="-187.2" font-family="Helvetica,sans-Serif" font-size="11.00">[table]</text>
<polygon fill="none" stroke="black" points="141.5,-161 141.5,-179 217.5,-179 217.5,-161 141.5,-161"/>
<text text-anchor="start" x="144.5" y="-167.2" font-family="Helvetica,sans-Serif" font-size="11.00">...</text>
<polygon fill="#ffffff" stroke="transparent" points="141.5,-143 141.5,-161 172.5,-161 172.5,-143 141.5,-143"/>
<polygon fill="none" stroke="black" points="141.5,-143 141.5,-161 172.5,-161 172.5,-143 141.5,-143"/>
<text text-anchor="start" x="144.5" y="-149.2" font-family="Helvetica,sans-Serif" font-size="11.00">&lt; 1</text>
<polygon fill="#ffffff" stroke="transparent" points="172.5,-143 172.5,-161 190.5,-161 190.5,-143 172.5,-143"/>
<polygon fill="none" stroke="black" points="172.5,-143 172.5,-161 190.5,-161 190.5,-143 172.5,-143"/>
<text text-anchor="start" x="180.5" y="-149.2" font-family="Helvetica,sans-Serif" font-size="11.00"> &#160;</text>
<polygon fill="#ffffff" stroke="transparent" points="190.5,-143 190.5,-161 217.5,-161 217.5,-143 190.5,-143"/>
<polygon fill="none" stroke="black" points="190.5,-143 190.5,-161 217.5,-161 217.5,-143 190.5,-143"/>
<text text-anchor="start" x="198.5" y="-149.2" font-family="Helvetica,sans-Serif" font-size="11.00">2 &gt;</text>
</a>
</g>
</g>
<!-- chat_participants&#45;&gt;chats -->
<g id="edge1" class="edge">
<title>chat_participants:w&#45;&gt;chats:e</title>
<path fill="none" stroke="black" d="M264.84,-252.8C252.49,-241.6 232.08,-222.06 214.43,-205"/>
<polygon fill="black" stroke="black" points="269.83,-256.91 273.71,-264.78 272.91,-259.45 276,-262 276,-262 276,-262 272.91,-259.45 278.29,-259.22 269.83,-256.91 269.83,-256.91"/>
<ellipse fill="none" stroke="black" cx="267.36" cy="-254.87" rx="3.2" ry="3.2"/>
</g>
<!-- users -->
<g id="node3" class="node">
<title>users</title>
<g id="a_node3"><a xlink:href="../../tables/users.html" xlink:title="users" target="_top">
<polygon fill="#ffffff" stroke="transparent" points="8,-116 8,-174 84,-174 84,-116 8,-116"/>
<polygon fill="#f5f5f5" stroke="transparent" points="8,-152 8,-174 84,-174 84,-152 8,-152"/>
<polygon fill="none" stroke="black" points="8,-152 8,-174 84,-174 84,-152 8,-152"/>
<text text-anchor="start" x="11.5" y="-161.2" font-family="Helvetica,sans-Serif" font-weight="bold" font-size="11.00">users</text>
<text text-anchor="start" x="45" y="-160.2" font-family="Helvetica,sans-Serif" font-size="11.00">[table]</text>
<polygon fill="none" stroke="black" points="8,-134 8,-152 84,-152 84,-134 8,-134"/>
<text text-anchor="start" x="11" y="-140.2" font-family="Helvetica,sans-Serif" font-size="11.00">...</text>
<polygon fill="#ffffff" stroke="transparent" points="8,-116 8,-134 35,-134 35,-116 8,-116"/>
<polygon fill="none" stroke="black" points="8,-116 8,-134 35,-134 35,-116 8,-116"/>
<text text-anchor="start" x="11" y="-122.2" font-family="Helvetica,sans-Serif" font-size="11.00"> &#160;</text>
<polygon fill="#ffffff" stroke="transparent" points="35,-116 35,-134 55,-134 55,-116 35,-116"/>
<polygon fill="none" stroke="black" points="35,-116 35,-134 55,-134 55,-116 35,-116"/>
<text text-anchor="start" x="45" y="-122.2" font-family="Helvetica,sans-Serif" font-size="11.00"> &#160;</text>
<polygon fill="#ffffff" stroke="transparent" points="55,-116 55,-134 84,-134 84,-116 55,-116"/>
<polygon fill="none" stroke="black" points="55,-116 55,-134 84,-134 84,-116 55,-116"/>
<text text-anchor="start" x="65" y="-122.2" font-family="Helvetica,sans-Serif" font-size="11.00">4 &gt;</text>
</a>
</g>
</g>
<!-- chat_participants&#45;&gt;users -->
<g id="edge2" class="edge">
<title>chat_participants:w&#45;&gt;users:e</title>
<path fill="none" stroke="black" d="M261.54,-240.01C204.38,-240.05 181.99,-239.29 125,-212 107.77,-203.75 91.32,-190.69 78,-178.29"/>
<polygon fill="black" stroke="black" points="268,-240.01 276,-243.6 272,-240 276,-240 276,-240 276,-240 272,-240 276,-236.4 268,-240.01 268,-240.01"/>
<ellipse fill="none" stroke="black" cx="264.8" cy="-240.01" rx="3.2" ry="3.2"/>
</g>
<!-- chats&#45;&gt;users -->
<g id="edge3" class="edge">
<title>chats:w&#45;&gt;users:e</title>
<path fill="none" stroke="black" d="M118.95,-159.77C110.01,-157.94 100.92,-156.07 92.34,-154.31"/>
<polygon fill="black" stroke="black" points="125.41,-161.1 132.52,-166.23 129.33,-161.9 133.25,-162.71 133.25,-162.71 133.25,-162.71 129.33,-161.9 133.97,-159.18 125.41,-161.1 125.41,-161.1"/>
<ellipse fill="none" stroke="black" cx="122.27" cy="-160.46" rx="3.2" ry="3.2"/>
</g>
<!-- messages -->
<g id="node4" class="node">
<title>messages</title>
<g id="a_node4"><a xlink:href="../../tables/messages.html" xlink:title="messages" target="_top">
<polygon fill="#ffffff" stroke="transparent" points="334.5,-86 334.5,-144 435.5,-144 435.5,-86 334.5,-86"/>
<polygon fill="#f5f5f5" stroke="transparent" points="335,-122 335,-144 436,-144 436,-122 335,-122"/>
<polygon fill="none" stroke="black" points="335,-122 335,-144 436,-144 436,-122 335,-122"/>
<text text-anchor="start" x="340" y="-131.2" font-family="Helvetica,sans-Serif" font-weight="bold" font-size="11.00">messages</text>
<text text-anchor="start" x="397" y="-130.2" font-family="Helvetica,sans-Serif" font-size="11.00">[table]</text>
<polygon fill="none" stroke="black" points="335,-104 335,-122 436,-122 436,-104 335,-104"/>
<text text-anchor="start" x="338" y="-110.2" font-family="Helvetica,sans-Serif" font-size="11.00">...</text>
<polygon fill="#ffffff" stroke="transparent" points="335,-86 335,-104 383,-104 383,-86 335,-86"/>
<polygon fill="none" stroke="black" points="335,-86 335,-104 383,-104 383,-86 335,-86"/>
<text text-anchor="start" x="338" y="-92.2" font-family="Helvetica,sans-Serif" font-size="11.00">&lt; 2</text>
<polygon fill="#ffffff" stroke="transparent" points="383,-86 383,-104 409,-104 409,-86 383,-86"/>
<polygon fill="none" stroke="black" points="383,-86 383,-104 409,-104 409,-86 383,-86"/>
<text text-anchor="start" x="399" y="-92.2" font-family="Helvetica,sans-Serif" font-size="11.00"> &#160;</text>
<polygon fill="#ffffff" stroke="transparent" points="409,-86 409,-104 436,-104 436,-86 409,-86"/>
<polygon fill="none" stroke="black" points="409,-86 409,-104 436,-104 436,-86 409,-86"/>
<text text-anchor="start" x="426" y="-92.2" font-family="Helvetica,sans-Serif" font-size="11.00"> &#160;</text>
</a>
</g>
</g>
<!-- messages&#45;&gt;chats -->
<g id="edge4" class="edge">
<title>messages:w&#45;&gt;chats:e</title>
<path fill="none" stroke="black" d="M319.58,-113.72C285.84,-117.03 251.77,-131.09 225.79,-144.57"/>
<polygon fill="black" stroke="black" points="326.01,-113.4 334.18,-116.6 330.01,-113.2 334,-113 334,-113 334,-113 330.01,-113.2 333.82,-109.4 326.01,-113.4 326.01,-113.4"/>
<ellipse fill="none" stroke="black" cx="322.81" cy="-113.56" rx="3.2" ry="3.2"/>
</g>
<!-- messages&#45;&gt;users -->
<g id="edge5" class="edge">
<title>messages:w&#45;&gt;users:e</title>
<path fill="none" stroke="black" d="M319.53,-113.13C237.07,-114.58 145.3,-127.89 92.06,-136.84"/>
<polygon fill="black" stroke="black" points="326,-113.07 334.03,-116.6 330,-113.04 334,-113 334,-113 334,-113 330,-113.04 333.97,-109.4 326,-113.07 326,-113.07"/>
<ellipse fill="none" stroke="black" cx="322.8" cy="-113.1" rx="3.2" ry="3.2"/>
</g>
<!-- sessions -->
<g id="node5" class="node">
<title>sessions</title>
<g id="a_node5"><a xlink:href="../../tables/sessions.html" xlink:title="sessions" target="_top">
<polygon fill="#ffffff" stroke="transparent" points="133,-37 133,-95 226,-95 226,-37 133,-37"/>
<polygon fill="#f5f5f5" stroke="transparent" points="133.5,-73 133.5,-95 226.5,-95 226.5,-73 133.5,-73"/>
<polygon fill="none" stroke="black" points="133.5,-73 133.5,-95 226.5,-95 226.5,-73 133.5,-73"/>
<text text-anchor="start" x="138" y="-82.2" font-family="Helvetica,sans-Serif" font-weight="bold" font-size="11.00">sessions</text>
<text text-anchor="start" x="187.5" y="-81.2" font-family="Helvetica,sans-Serif" font-size="11.00">[table]</text>
<polygon fill="none" stroke="black" points="133.5,-55 133.5,-73 226.5,-73 226.5,-55 133.5,-55"/>
<text text-anchor="start" x="136.5" y="-61.2" font-family="Helvetica,sans-Serif" font-size="11.00">...</text>
<polygon fill="#ffffff" stroke="transparent" points="133.5,-37 133.5,-55 177.5,-55 177.5,-37 133.5,-37"/>
<polygon fill="none" stroke="black" points="133.5,-37 133.5,-55 177.5,-55 177.5,-37 133.5,-37"/>
<text text-anchor="start" x="136.5" y="-43.2" font-family="Helvetica,sans-Serif" font-size="11.00">&lt; 1</text>
<polygon fill="#ffffff" stroke="transparent" points="177.5,-37 177.5,-55 201.5,-55 201.5,-37 177.5,-37"/>
<polygon fill="none" stroke="black" points="177.5,-37 177.5,-55 201.5,-55 201.5,-37 177.5,-37"/>
<text text-anchor="start" x="191.5" y="-43.2" font-family="Helvetica,sans-Serif" font-size="11.00"> &#160;</text>
<polygon fill="#ffffff" stroke="transparent" points="201.5,-37 201.5,-55 226.5,-55 226.5,-37 201.5,-37"/>
<polygon fill="none" stroke="black" points="201.5,-37 201.5,-55 226.5,-55 226.5,-37 201.5,-37"/>
<text text-anchor="start" x="216.5" y="-43.2" font-family="Helvetica,sans-Serif" font-size="11.00"> &#160;</text>
</a>
</g>
</g>
<!-- sessions&#45;&gt;users -->
<g id="edge6" class="edge">
<title>sessions:w&#45;&gt;users:e</title>
<path fill="none" stroke="black" d="M117.97,-66.1C95.52,-72.6 77.46,-93.11 65.18,-111.59"/>
<polygon fill="black" stroke="black" points="124.58,-65.14 133.01,-67.56 128.54,-64.57 132.5,-64 132.5,-64 132.5,-64 128.54,-64.57 131.99,-60.44 124.58,-65.14 124.58,-65.14"/>
<ellipse fill="none" stroke="black" cx="121.41" cy="-65.6" rx="3.2" ry="3.2"/>
</g>
</g>
</svg>
