<?xml version="1.0" encoding="UTF-8" standalone="no"?>
<!DOCTYPE svg PUBLIC "-//W3C//DTD SVG 1.1//EN"
 "http://www.w3.org/Graphics/SVG/1.1/DTD/svg11.dtd">
<!-- Generated by graphviz version 2.47.1 (20210515.0534)
 -->
<!-- Title: oneDegreeRelationshipsDiagram Pages: 1 -->
<svg width="575pt" height="379pt"
 viewBox="0.00 0.00 575.00 379.00" xmlns="http://www.w3.org/2000/svg" xmlns:xlink="http://www.w3.org/1999/xlink">
<g id="graph0" class="graph" transform="scale(1 1) rotate(0) translate(4 375)">
<title>oneDegreeRelationshipsDiagram</title>
<polygon fill="#ffffff" stroke="transparent" points="-4,4 -4,-375 571,-375 571,4 -4,4"/>
<text text-anchor="middle" x="73.5" y="-7.2" font-family="Helvetica,sans-Serif" font-size="11.00">Generated by SchemaSpy</text>
<!-- chat_participants -->
<g id="node1" class="node">
<title>chat_participants</title>
<g id="a_node1"><a xlink:href="../../tables/chat_participants.html" xlink:title="chat_participants" target="_top">
<polygon fill="#ffffff" stroke="transparent" points="411,-265 411,-367 559,-367 559,-265 411,-265"/>
<polygon fill="#f5f5f5" stroke="transparent" points="411,-345 411,-367 559,-367 559,-345 411,-345"/>
<polygon fill="none" stroke="black" points="411,-345 411,-367 559,-367 559,-345 411,-345"/>
<text text-anchor="start" x="416" y="-354.2" font-family="Helvetica,sans-Serif" font-weight="bold" font-size="11.00">chat_participants</text>
<text text-anchor="start" x="520" y="-353.2" font-family="Helvetica,sans-Serif" font-size="11.00">[table]</text>
<polygon fill="none" stroke="black" points="411,-323 411,-345 559,-345 559,-323 411,-323"/>
<image xlink:href="../../images/primaryKeys.png" width="11px" height="12px" preserveAspectRatio="xMinYMin meet" x="416" y="-340"/>
<text text-anchor="start" x="443" y="-331.2" font-family="Helvetica,sans-Serif" font-size="11.00">chat_id</text>
<polygon fill="none" stroke="black" points="411,-301 411,-323 559,-323 559,-301 411,-301"/>
<image xlink:href="../../images/primaryKeys.png" width="11px" height="12px" preserveAspectRatio="xMinYMin meet" x="416" y="-318"/>
<text text-anchor="start" x="443" y="-309.2" font-family="Helvetica,sans-Serif" font-size="11.00">user_id</text>
<polygon fill="none" stroke="black" points="411,-283 411,-301 559,-301 559,-283 411,-283"/>
<text text-anchor="start" x="414" y="-289.2" font-family="Helvetica,sans-Serif" font-size="11.00">...</text>
<polygon fill="#ffffff" stroke="transparent" points="411,-265 411,-283 466,-283 466,-265 411,-265"/>
<polygon fill="none" stroke="black" points="411,-265 411,-283 466,-283 466,-265 411,-265"/>
<text text-anchor="start" x="414" y="-271.2" font-family="Helvetica,sans-Serif" font-size="11.00">&lt; 2</text>
<polygon fill="#ffffff" stroke="transparent" points="466,-265 466,-283 529,-283 529,-265 466,-265"/>
<polygon fill="none" stroke="black" points="466,-265 466,-283 529,-283 529,-265 466,-265"/>
<text text-anchor="start" x="486" y="-271.2" font-family="Helvetica,sans-Serif" font-size="11.00">90 rows</text>
<polygon fill="#ffffff" stroke="transparent" points="529,-265 529,-283 559,-283 559,-265 529,-265"/>
<polygon fill="none" stroke="black" points="529,-265 529,-283 559,-283 559,-265 529,-265"/>
<text text-anchor="start" x="549" y="-271.2" font-family="Helvetica,sans-Serif" font-size="11.00"> &#160;</text>
</a>
</g>
</g>
<!-- chats -->
<g id="node2" class="node">
<title>chats</title>
<g id="a_node2"><a xlink:href="../../tables/chats.html" xlink:title="chats" target="_top">
<polygon fill="#ffffff" stroke="transparent" points="179,-132 179,-308 362,-308 362,-132 179,-132"/>
<polygon fill="#f5f5f5" stroke="transparent" points="181.5,-284 181.5,-306 360.5,-306 360.5,-284 181.5,-284"/>
<polygon fill="none" stroke="black" points="181.5,-284 181.5,-306 360.5,-306 360.5,-284 181.5,-284"/>
<text text-anchor="start" x="185" y="-293.2" font-family="Helvetica,sans-Serif" font-weight="bold" font-size="11.00">chats</text>
<text text-anchor="start" x="321.5" y="-292.2" font-family="Helvetica,sans-Serif" font-size="11.00">[table]</text>
<polygon fill="none" stroke="black" points="181.5,-262 181.5,-284 269.5,-284 269.5,-262 181.5,-262"/>
<image xlink:href="../../images/primaryKeys.png" width="11px" height="12px" preserveAspectRatio="xMinYMin meet" x="186.5" y="-279"/>
<text text-anchor="start" x="201.5" y="-270.2" font-family="Helvetica,sans-Serif" font-size="11.00">id</text>
<polygon fill="none" stroke="black" points="269.5,-262 269.5,-284 360.5,-284 360.5,-262 269.5,-262"/>
<text text-anchor="start" x="272.5" y="-270.2" font-family="Helvetica,sans-Serif" font-size="11.00">serial[10]</text>
<polygon fill="#ffffff" stroke="transparent" points="181.5,-240 181.5,-262 269.5,-262 269.5,-240 181.5,-240"/>
<polygon fill="none" stroke="black" points="181.5,-240 181.5,-262 269.5,-262 269.5,-240 181.5,-240"/>
<image xlink:href="../../images/foreignKeys.png" width="11px" height="12px" preserveAspectRatio="xMinYMin meet" x="186.5" y="-257"/>
<text text-anchor="start" x="201.5" y="-248.2" font-family="Helvetica,sans-Serif" font-size="11.00">created_by</text>
<polygon fill="none" stroke="black" points="269.5,-240 269.5,-262 360.5,-262 360.5,-240 269.5,-240"/>
<text text-anchor="start" x="272.5" y="-248.2" font-family="Helvetica,sans-Serif" font-size="11.00">int4[10]</text>
<polygon fill="none" stroke="black" points="181.5,-218 181.5,-240 269.5,-240 269.5,-218 181.5,-218"/>
<text text-anchor="start" x="201.5" y="-226.2" font-family="Helvetica,sans-Serif" font-size="11.00">chat_type</text>
<polygon fill="none" stroke="black" points="269.5,-218 269.5,-240 360.5,-240 360.5,-218 269.5,-218"/>
<text text-anchor="start" x="272.5" y="-226.2" font-family="Helvetica,sans-Serif" font-size="11.00">int4[10]</text>
<polygon fill="#ffffff" stroke="transparent" points="181.5,-196 181.5,-218 269.5,-218 269.5,-196 181.5,-196"/>
<polygon fill="none" stroke="black" points="181.5,-196 181.5,-218 269.5,-218 269.5,-196 181.5,-196"/>
<text text-anchor="start" x="201.5" y="-204.2" font-family="Helvetica,sans-Serif" font-size="11.00">name</text>
<polygon fill="none" stroke="black" points="269.5,-196 269.5,-218 360.5,-218 360.5,-196 269.5,-196"/>
<text text-anchor="start" x="272.5" y="-204.2" font-family="Helvetica,sans-Serif" font-size="11.00">varchar[255]</text>
<polygon fill="#ffffff" stroke="transparent" points="181.5,-174 181.5,-196 269.5,-196 269.5,-174 181.5,-174"/>
<polygon fill="none" stroke="black" points="181.5,-174 181.5,-196 269.5,-196 269.5,-174 181.5,-174"/>
<text text-anchor="start" x="201.5" y="-182.2" font-family="Helvetica,sans-Serif" font-size="11.00">created_at</text>
<polygon fill="none" stroke="black" points="269.5,-174 269.5,-196 360.5,-196 360.5,-174 269.5,-174"/>
<text text-anchor="start" x="272.5" y="-182.2" font-family="Helvetica,sans-Serif" font-size="11.00">timestamp[29,6]</text>
<polygon fill="#ffffff" stroke="transparent" points="181.5,-152 181.5,-174 269.5,-174 269.5,-152 181.5,-152"/>
<polygon fill="none" stroke="black" points="181.5,-152 181.5,-174 269.5,-174 269.5,-152 181.5,-152"/>
<text text-anchor="start" x="201.5" y="-160.2" font-family="Helvetica,sans-Serif" font-size="11.00">updated_at</text>
<polygon fill="none" stroke="black" points="269.5,-152 269.5,-174 360.5,-174 360.5,-152 269.5,-152"/>
<text text-anchor="start" x="272.5" y="-160.2" font-family="Helvetica,sans-Serif" font-size="11.00">timestamp[29,6]</text>
<polygon fill="#ffffff" stroke="transparent" points="181.5,-134 181.5,-152 229.5,-152 229.5,-134 181.5,-134"/>
<polygon fill="none" stroke="black" points="181.5,-134 181.5,-152 229.5,-152 229.5,-134 181.5,-134"/>
<text text-anchor="start" x="184.5" y="-140.2" font-family="Helvetica,sans-Serif" font-size="11.00">&lt; 1</text>
<polygon fill="#ffffff" stroke="transparent" points="229.5,-134 229.5,-152 269.5,-152 269.5,-134 229.5,-134"/>
<polygon fill="none" stroke="black" points="229.5,-134 229.5,-152 269.5,-152 269.5,-134 229.5,-134"/>
<text text-anchor="start" x="259.5" y="-140.2" font-family="Helvetica,sans-Serif" font-size="11.00"> &#160;</text>
<polygon fill="#ffffff" stroke="transparent" points="269.5,-134 269.5,-152 360.5,-152 360.5,-134 269.5,-134"/>
<polygon fill="none" stroke="black" points="269.5,-134 269.5,-152 360.5,-152 360.5,-134 269.5,-134"/>
<text text-anchor="start" x="341.5" y="-140.2" font-family="Helvetica,sans-Serif" font-size="11.00">2 &gt;</text>
<polygon fill="none" stroke="black" stroke-width="2" points="180,-133 180,-307 361,-307 361,-133 180,-133"/>
</a>
</g>
</g>
<!-- chat_participants&#45;&gt;chats -->
<g id="edge1" class="edge">
<title>chat_participants:w&#45;&gt;chats:e</title>
<path fill="none" stroke="black" d="M396.05,-328.8C381.04,-314.05 389.91,-273 361.5,-273"/>
<polygon fill="black" stroke="black" points="402.5,-331.2 408.74,-337.37 406.25,-332.6 410,-334 410,-334 410,-334 406.25,-332.6 411.26,-330.63 402.5,-331.2 402.5,-331.2"/>
<ellipse fill="none" stroke="black" cx="399.51" cy="-330.09" rx="3.2" ry="3.2"/>
</g>
<!-- users -->
<g id="node3" class="node">
<title>users</title>
<g id="a_node3"><a xlink:href="../../tables/users.html" xlink:title="users" target="_top">
<polygon fill="#ffffff" stroke="transparent" points="8,-116 8,-284 130,-284 130,-116 8,-116"/>
<polygon fill="#f5f5f5" stroke="transparent" points="8,-262 8,-284 130,-284 130,-262 8,-262"/>
<polygon fill="none" stroke="black" points="8,-262 8,-284 130,-284 130,-262 8,-262"/>
<text text-anchor="start" x="11.5" y="-271.2" font-family="Helvetica,sans-Serif" font-weight="bold" font-size="11.00">users</text>
<text text-anchor="start" x="91" y="-270.2" font-family="Helvetica,sans-Serif" font-size="11.00">[table]</text>
<polygon fill="none" stroke="black" points="8,-240 8,-262 130,-262 130,-240 8,-240"/>
<image xlink:href="../../images/primaryKeys.png" width="11px" height="12px" preserveAspectRatio="xMinYMin meet" x="13" y="-257"/>
<text text-anchor="start" x="28" y="-248.2" font-family="Helvetica,sans-Serif" font-size="11.00">id</text>
<polygon fill="#ffffff" stroke="transparent" points="8,-218 8,-240 130,-240 130,-218 8,-218"/>
<polygon fill="none" stroke="black" points="8,-218 8,-240 130,-240 130,-218 8,-218"/>
<text text-anchor="start" x="28" y="-226.2" font-family="Helvetica,sans-Serif" font-size="11.00">username</text>
<polygon fill="#ffffff" stroke="transparent" points="8,-196 8,-218 130,-218 130,-196 8,-196"/>
<polygon fill="none" stroke="black" points="8,-196 8,-218 130,-218 130,-196 8,-196"/>
<text text-anchor="start" x="28" y="-204.2" font-family="Helvetica,sans-Serif" font-size="11.00">email</text>
<polygon fill="#ffffff" stroke="transparent" points="8,-174 8,-196 130,-196 130,-174 8,-174"/>
<polygon fill="none" stroke="black" points="8,-174 8,-196 130,-196 130,-174 8,-174"/>
<text text-anchor="start" x="28" y="-182.2" font-family="Helvetica,sans-Serif" font-size="11.00">first_name</text>
<polygon fill="#ffffff" stroke="transparent" points="8,-152 8,-174 130,-174 130,-152 8,-152"/>
<polygon fill="none" stroke="black" points="8,-152 8,-174 130,-174 130,-152 8,-152"/>
<text text-anchor="start" x="28" y="-160.2" font-family="Helvetica,sans-Serif" font-size="11.00">last_name</text>
<polygon fill="none" stroke="black" points="8,-134 8,-152 130,-152 130,-134 8,-134"/>
<text text-anchor="start" x="11" y="-140.2" font-family="Helvetica,sans-Serif" font-size="11.00">...</text>
<polygon fill="#ffffff" stroke="transparent" points="8,-116 8,-134 58,-134 58,-116 8,-116"/>
<polygon fill="none" stroke="black" points="8,-116 8,-134 58,-134 58,-116 8,-116"/>
<text text-anchor="start" x="11" y="-122.2" font-family="Helvetica,sans-Serif" font-size="11.00"> &#160;</text>
<polygon fill="#ffffff" stroke="transparent" points="58,-116 58,-134 89,-134 89,-116 58,-116"/>
<polygon fill="none" stroke="black" points="58,-116 58,-134 89,-134 89,-116 58,-116"/>
<text text-anchor="start" x="79" y="-122.2" font-family="Helvetica,sans-Serif" font-size="11.00"> &#160;</text>
<polygon fill="#ffffff" stroke="transparent" points="89,-116 89,-134 130,-134 130,-116 89,-116"/>
<polygon fill="none" stroke="black" points="89,-116 89,-134 130,-134 130,-116 89,-116"/>
<text text-anchor="start" x="111" y="-122.2" font-family="Helvetica,sans-Serif" font-size="11.00">4 &gt;</text>
</a>
</g>
</g>
<!-- chat_participants&#45;&gt;users -->
<g id="edge2" class="edge">
<title>chat_participants:w&#45;&gt;users:e</title>
<path fill="none" stroke="black" d="M395.51,-313.49C387.7,-315.22 381.94,-317.96 370,-319 281.89,-326.65 247.77,-362.91 171,-319 140.56,-301.59 166.06,-251 131,-251"/>
<polygon fill="black" stroke="black" points="402.04,-312.82 410.37,-315.58 406.02,-312.41 410,-312 410,-312 410,-312 406.02,-312.41 409.63,-308.42 402.04,-312.82 402.04,-312.82"/>
<ellipse fill="none" stroke="black" cx="398.86" cy="-313.14" rx="3.2" ry="3.2"/>
</g>
<!-- chats&#45;&gt;users -->
<g id="edge3" class="edge">
<title>chats:w&#45;&gt;users:e</title>
<path fill="none" stroke="black" d="M165.84,-251C154.41,-251 147.16,-251 131,-251"/>
<polygon fill="black" stroke="black" points="172.5,-251 180.5,-254.6 176.5,-251 180.5,-251 180.5,-251 180.5,-251 176.5,-251 180.5,-247.4 172.5,-251 172.5,-251"/>
<ellipse fill="none" stroke="black" cx="169.3" cy="-251" rx="3.2" ry="3.2"/>
</g>
<!-- messages -->
<g id="node4" class="node">
<title>messages</title>
<g id="a_node4"><a xlink:href="../../tables/messages.html" xlink:title="messages" target="_top">
<polygon fill="#ffffff" stroke="transparent" points="434.5,-37 434.5,-205 535.5,-205 535.5,-37 434.5,-37"/>
<polygon fill="#f5f5f5" stroke="transparent" points="435,-183 435,-205 536,-205 536,-183 435,-183"/>
<polygon fill="none" stroke="black" points="435,-183 435,-205 536,-205 536,-183 435,-183"/>
<text text-anchor="start" x="440" y="-192.2" font-family="Helvetica,sans-Serif" font-weight="bold" font-size="11.00">messages</text>
<text text-anchor="start" x="497" y="-191.2" font-family="Helvetica,sans-Serif" font-size="11.00">[table]</text>
<polygon fill="none" stroke="black" points="435,-161 435,-183 536,-183 536,-161 435,-161"/>
<image xlink:href="../../images/primaryKeys.png" width="11px" height="12px" preserveAspectRatio="xMinYMin meet" x="440" y="-178"/>
<text text-anchor="start" x="460" y="-169.2" font-family="Helvetica,sans-Serif" font-size="11.00">id</text>
<polygon fill="none" stroke="black" points="435,-139 435,-161 536,-161 536,-139 435,-139"/>
<image xlink:href="../../images/foreignKeys.png" width="11px" height="12px" preserveAspectRatio="xMinYMin meet" x="440" y="-156"/>
<text text-anchor="start" x="460" y="-147.2" font-family="Helvetica,sans-Serif" font-size="11.00">chat_id</text>
<polygon fill="#ffffff" stroke="transparent" points="435,-117 435,-139 536,-139 536,-117 435,-117"/>
<polygon fill="none" stroke="black" points="435,-117 435,-139 536,-139 536,-117 435,-117"/>
<image xlink:href="../../images/foreignKeys.png" width="11px" height="12px" preserveAspectRatio="xMinYMin meet" x="440" y="-134"/>
<text text-anchor="start" x="460" y="-125.2" font-family="Helvetica,sans-Serif" font-size="11.00">sender_id</text>
<polygon fill="#ffffff" stroke="transparent" points="435,-95 435,-117 536,-117 536,-95 435,-95"/>
<polygon fill="none" stroke="black" points="435,-95 435,-117 536,-117 536,-95 435,-95"/>
<text text-anchor="start" x="460" y="-103.2" font-family="Helvetica,sans-Serif" font-size="11.00">content</text>
<polygon fill="#ffffff" stroke="transparent" points="435,-73 435,-95 536,-95 536,-73 435,-73"/>
<polygon fill="none" stroke="black" points="435,-73 435,-95 536,-95 536,-73 435,-73"/>
<text text-anchor="start" x="460" y="-81.2" font-family="Helvetica,sans-Serif" font-size="11.00">created_at</text>
<polygon fill="none" stroke="black" points="435,-55 435,-73 536,-73 536,-55 435,-55"/>
<text text-anchor="start" x="438" y="-61.2" font-family="Helvetica,sans-Serif" font-size="11.00">...</text>
<polygon fill="#ffffff" stroke="transparent" points="435,-37 435,-55 483,-55 483,-37 435,-37"/>
<polygon fill="none" stroke="black" points="435,-37 435,-55 483,-55 483,-37 435,-37"/>
<text text-anchor="start" x="438" y="-43.2" font-family="Helvetica,sans-Serif" font-size="11.00">&lt; 2</text>
<polygon fill="#ffffff" stroke="transparent" points="483,-37 483,-55 509,-55 509,-37 483,-37"/>
<polygon fill="none" stroke="black" points="483,-37 483,-55 509,-55 509,-37 483,-37"/>
<text text-anchor="start" x="499" y="-43.2" font-family="Helvetica,sans-Serif" font-size="11.00"> &#160;</text>
<polygon fill="#ffffff" stroke="transparent" points="509,-37 509,-55 536,-55 536,-37 509,-37"/>
<polygon fill="none" stroke="black" points="509,-37 509,-55 536,-55 536,-37 509,-37"/>
<text text-anchor="start" x="526" y="-43.2" font-family="Helvetica,sans-Serif" font-size="11.00"> &#160;</text>
</a>
</g>
</g>
<!-- messages&#45;&gt;chats -->
<g id="edge4" class="edge">
<title>messages:w&#45;&gt;chats:e</title>
<path fill="none" stroke="black" d="M419.84,-152.68C379.2,-170.67 419.38,-273 361.5,-273"/>
<polygon fill="black" stroke="black" points="426.14,-151.49 434.67,-153.54 430.07,-150.74 434,-150 434,-150 434,-150 430.07,-150.74 433.33,-146.46 426.14,-151.49 426.14,-151.49"/>
<ellipse fill="none" stroke="black" cx="423" cy="-152.09" rx="3.2" ry="3.2"/>
</g>
<!-- messages&#45;&gt;users -->
<g id="edge5" class="edge">
<title>messages:w&#45;&gt;users:e</title>
<path fill="none" stroke="black" d="M419.28,-127.6C312.54,-121.79 261.08,-55.62 171,-122 122.68,-157.61 191.03,-251 131,-251"/>
<polygon fill="black" stroke="black" points="426,-127.78 433.9,-131.6 430,-127.89 434,-128 434,-128 434,-128 430,-127.89 434.1,-124.4 426,-127.78 426,-127.78"/>
<ellipse fill="none" stroke="black" cx="422.8" cy="-127.7" rx="3.2" ry="3.2"/>
</g>
</g>
</svg>
