<?xml version="1.0" encoding="UTF-8" standalone="no"?>
<!DOCTYPE svg PUBLIC "-//W3C//DTD SVG 1.1//EN"
 "http://www.w3.org/Graphics/SVG/1.1/DTD/svg11.dtd">
<!-- Generated by graphviz version 2.47.1 (20210515.0534)
 -->
<!-- Title: twoDegreesRelationshipsDiagram Pages: 1 -->
<svg width="477pt" height="326pt"
 viewBox="0.00 0.00 477.00 326.00" xmlns="http://www.w3.org/2000/svg" xmlns:xlink="http://www.w3.org/1999/xlink">
<g id="graph0" class="graph" transform="scale(1 1) rotate(0) translate(4 322)">
<title>twoDegreesRelationshipsDiagram</title>
<polygon fill="#ffffff" stroke="transparent" points="-4,4 -4,-322 473,-322 473,4 -4,4"/>
<text text-anchor="middle" x="73.5" y="-7.2" font-family="Helvetica,sans-Serif" font-size="11.00">Generated by SchemaSpy</text>
<!-- chat_participants -->
<g id="node1" class="node">
<title>chat_participants</title>
<g id="a_node1"><a xlink:href="../../tables/chat_participants.html" xlink:title="chat_participants" target="_top">
<polygon fill="#ffffff" stroke="transparent" points="294,-256 294,-314 442,-314 442,-256 294,-256"/>
<polygon fill="#f5f5f5" stroke="transparent" points="294,-292 294,-314 442,-314 442,-292 294,-292"/>
<polygon fill="none" stroke="black" points="294,-292 294,-314 442,-314 442,-292 294,-292"/>
<text text-anchor="start" x="299" y="-301.2" font-family="Helvetica,sans-Serif" font-weight="bold" font-size="11.00">chat_participants</text>
<text text-anchor="start" x="403" y="-300.2" font-family="Helvetica,sans-Serif" font-size="11.00">[table]</text>
<polygon fill="none" stroke="black" points="294,-274 294,-292 442,-292 442,-274 294,-274"/>
<text text-anchor="start" x="297" y="-280.2" font-family="Helvetica,sans-Serif" font-size="11.00">...</text>
<polygon fill="#ffffff" stroke="transparent" points="294,-256 294,-274 349,-274 349,-256 294,-256"/>
<polygon fill="none" stroke="black" points="294,-256 294,-274 349,-274 349,-256 294,-256"/>
<text text-anchor="start" x="297" y="-262.2" font-family="Helvetica,sans-Serif" font-size="11.00">&lt; 2</text>
<polygon fill="#ffffff" stroke="transparent" points="349,-256 349,-274 412,-274 412,-256 349,-256"/>
<polygon fill="none" stroke="black" points="349,-256 349,-274 412,-274 412,-256 349,-256"/>
<text text-anchor="start" x="369" y="-262.2" font-family="Helvetica,sans-Serif" font-size="11.00">90 rows</text>
<polygon fill="#ffffff" stroke="transparent" points="412,-256 412,-274 442,-274 442,-256 412,-256"/>
<polygon fill="none" stroke="black" points="412,-256 412,-274 442,-274 442,-256 412,-256"/>
<text text-anchor="start" x="432" y="-262.2" font-family="Helvetica,sans-Serif" font-size="11.00"> &#160;</text>
</a>
</g>
</g>
<!-- chats -->
<g id="node2" class="node">
<title>chats</title>
<g id="a_node2"><a xlink:href="../../tables/chats.html" xlink:title="chats" target="_top">
<polygon fill="#ffffff" stroke="transparent" points="141.5,-186 141.5,-244 217.5,-244 217.5,-186 141.5,-186"/>
<polygon fill="#f5f5f5" stroke="transparent" points="141.5,-222 141.5,-244 217.5,-244 217.5,-222 141.5,-222"/>
<polygon fill="none" stroke="black" points="141.5,-222 141.5,-244 217.5,-244 217.5,-222 141.5,-222"/>
<text text-anchor="start" x="145" y="-231.2" font-family="Helvetica,sans-Serif" font-weight="bold" font-size="11.00">chats</text>
<text text-anchor="start" x="178.5" y="-230.2" font-family="Helvetica,sans-Serif" font-size="11.00">[table]</text>
<polygon fill="none" stroke="black" points="141.5,-204 141.5,-222 217.5,-222 217.5,-204 141.5,-204"/>
<text text-anchor="start" x="144.5" y="-210.2" font-family="Helvetica,sans-Serif" font-size="11.00">...</text>
<polygon fill="#ffffff" stroke="transparent" points="141.5,-186 141.5,-204 172.5,-204 172.5,-186 141.5,-186"/>
<polygon fill="none" stroke="black" points="141.5,-186 141.5,-204 172.5,-204 172.5,-186 141.5,-186"/>
<text text-anchor="start" x="144.5" y="-192.2" font-family="Helvetica,sans-Serif" font-size="11.00">&lt; 1</text>
<polygon fill="#ffffff" stroke="transparent" points="172.5,-186 172.5,-204 190.5,-204 190.5,-186 172.5,-186"/>
<polygon fill="none" stroke="black" points="172.5,-186 172.5,-204 190.5,-204 190.5,-186 172.5,-186"/>
<text text-anchor="start" x="180.5" y="-192.2" font-family="Helvetica,sans-Serif" font-size="11.00"> &#160;</text>
<polygon fill="#ffffff" stroke="transparent" points="190.5,-186 190.5,-204 217.5,-204 217.5,-186 190.5,-186"/>
<polygon fill="none" stroke="black" points="190.5,-186 190.5,-204 217.5,-204 217.5,-186 190.5,-186"/>
<text text-anchor="start" x="198.5" y="-192.2" font-family="Helvetica,sans-Serif" font-size="11.00">2 &gt;</text>
</a>
</g>
</g>
<!-- chat_participants&#45;&gt;chats -->
<g id="edge1" class="edge">
<title>chat_participants:w&#45;&gt;chats:e</title>
<path fill="none" stroke="black" d="M278.52,-281.66C254.17,-277.25 231.35,-262.63 213.87,-248.2"/>
<polygon fill="black" stroke="black" points="285.03,-282.26 292.67,-286.58 289.02,-282.63 293,-283 293,-283 293,-283 289.02,-282.63 293.33,-279.42 285.03,-282.26 285.03,-282.26"/>
<ellipse fill="none" stroke="black" cx="281.85" cy="-281.97" rx="3.2" ry="3.2"/>
</g>
<!-- users -->
<g id="node3" class="node">
<title>users</title>
<g id="a_node3"><a xlink:href="../../tables/users.html" xlink:title="users" target="_top">
<polygon fill="#ffffff" stroke="transparent" points="8,-159 8,-217 84,-217 84,-159 8,-159"/>
<polygon fill="#f5f5f5" stroke="transparent" points="8,-195 8,-217 84,-217 84,-195 8,-195"/>
<polygon fill="none" stroke="black" points="8,-195 8,-217 84,-217 84,-195 8,-195"/>
<text text-anchor="start" x="11.5" y="-204.2" font-family="Helvetica,sans-Serif" font-weight="bold" font-size="11.00">users</text>
<text text-anchor="start" x="45" y="-203.2" font-family="Helvetica,sans-Serif" font-size="11.00">[table]</text>
<polygon fill="none" stroke="black" points="8,-177 8,-195 84,-195 84,-177 8,-177"/>
<text text-anchor="start" x="11" y="-183.2" font-family="Helvetica,sans-Serif" font-size="11.00">...</text>
<polygon fill="#ffffff" stroke="transparent" points="8,-159 8,-177 35,-177 35,-159 8,-159"/>
<polygon fill="none" stroke="black" points="8,-159 8,-177 35,-177 35,-159 8,-159"/>
<text text-anchor="start" x="11" y="-165.2" font-family="Helvetica,sans-Serif" font-size="11.00"> &#160;</text>
<polygon fill="#ffffff" stroke="transparent" points="35,-159 35,-177 55,-177 55,-159 35,-159"/>
<polygon fill="none" stroke="black" points="35,-159 35,-177 55,-177 55,-159 35,-159"/>
<text text-anchor="start" x="45" y="-165.2" font-family="Helvetica,sans-Serif" font-size="11.00"> &#160;</text>
<polygon fill="#ffffff" stroke="transparent" points="55,-159 55,-177 84,-177 84,-159 55,-159"/>
<polygon fill="none" stroke="black" points="55,-159 55,-177 84,-177 84,-159 55,-159"/>
<text text-anchor="start" x="65" y="-165.2" font-family="Helvetica,sans-Serif" font-size="11.00">4 &gt;</text>
</a>
</g>
</g>
<!-- chat_participants&#45;&gt;users -->
<g id="edge2" class="edge">
<title>chat_participants:w&#45;&gt;users:e</title>
<path fill="none" stroke="black" d="M278.58,-283.04C213.95,-283.38 189.02,-284.94 125,-255 107.54,-246.83 90.92,-233.63 77.55,-221.1"/>
<polygon fill="black" stroke="black" points="285,-283.02 293.01,-286.6 289,-283.01 293,-283 293,-283 293,-283 289,-283.01 292.99,-279.4 285,-283.02 285,-283.02"/>
<ellipse fill="none" stroke="black" cx="281.8" cy="-283.03" rx="3.2" ry="3.2"/>
</g>
<!-- chats&#45;&gt;users -->
<g id="edge3" class="edge">
<title>chats:w&#45;&gt;users:e</title>
<path fill="none" stroke="black" d="M118.95,-202.77C110.01,-200.94 100.92,-199.07 92.34,-197.31"/>
<polygon fill="black" stroke="black" points="125.41,-204.1 132.52,-209.23 129.33,-204.9 133.25,-205.71 133.25,-205.71 133.25,-205.71 129.33,-204.9 133.97,-202.18 125.41,-204.1 125.41,-204.1"/>
<ellipse fill="none" stroke="black" cx="122.27" cy="-203.46" rx="3.2" ry="3.2"/>
</g>
<!-- messages -->
<g id="node4" class="node">
<title>messages</title>
<g id="a_node4"><a xlink:href="../../tables/messages.html" xlink:title="messages" target="_top">
<polygon fill="#ffffff" stroke="transparent" points="275,-37 275,-235 461,-235 461,-37 275,-37"/>
<polygon fill="#f5f5f5" stroke="transparent" points="277,-211 277,-233 459,-233 459,-211 277,-211"/>
<polygon fill="none" stroke="black" points="277,-211 277,-233 459,-233 459,-211 277,-211"/>
<text text-anchor="start" x="282" y="-220.2" font-family="Helvetica,sans-Serif" font-weight="bold" font-size="11.00">messages</text>
<text text-anchor="start" x="420" y="-219.2" font-family="Helvetica,sans-Serif" font-size="11.00">[table]</text>
<polygon fill="none" stroke="black" points="277,-189 277,-211 368,-211 368,-189 277,-189"/>
<image xlink:href="../../images/primaryKeys.png" width="11px" height="12px" preserveAspectRatio="xMinYMin meet" x="282" y="-206"/>
<text text-anchor="start" x="297" y="-197.2" font-family="Helvetica,sans-Serif" font-size="11.00">id</text>
<polygon fill="none" stroke="black" points="368,-189 368,-211 459,-211 459,-189 368,-189"/>
<text text-anchor="start" x="371" y="-197.2" font-family="Helvetica,sans-Serif" font-size="11.00">serial[10]</text>
<polygon fill="none" stroke="black" points="277,-167 277,-189 368,-189 368,-167 277,-167"/>
<image xlink:href="../../images/foreignKeys.png" width="11px" height="12px" preserveAspectRatio="xMinYMin meet" x="282" y="-184"/>
<text text-anchor="start" x="297" y="-175.2" font-family="Helvetica,sans-Serif" font-size="11.00">chat_id</text>
<polygon fill="none" stroke="black" points="368,-167 368,-189 459,-189 459,-167 368,-167"/>
<text text-anchor="start" x="371" y="-175.2" font-family="Helvetica,sans-Serif" font-size="11.00">int4[10]</text>
<polygon fill="#ffffff" stroke="transparent" points="277,-145 277,-167 368,-167 368,-145 277,-145"/>
<polygon fill="none" stroke="black" points="277,-145 277,-167 368,-167 368,-145 277,-145"/>
<image xlink:href="../../images/foreignKeys.png" width="11px" height="12px" preserveAspectRatio="xMinYMin meet" x="282" y="-162"/>
<text text-anchor="start" x="297" y="-153.2" font-family="Helvetica,sans-Serif" font-size="11.00">sender_id</text>
<polygon fill="none" stroke="black" points="368,-145 368,-167 459,-167 459,-145 368,-145"/>
<text text-anchor="start" x="371" y="-153.2" font-family="Helvetica,sans-Serif" font-size="11.00">int4[10]</text>
<polygon fill="#ffffff" stroke="transparent" points="277,-123 277,-145 368,-145 368,-123 277,-123"/>
<polygon fill="none" stroke="black" points="277,-123 277,-145 368,-145 368,-123 277,-123"/>
<text text-anchor="start" x="297" y="-131.2" font-family="Helvetica,sans-Serif" font-size="11.00">content</text>
<polygon fill="none" stroke="black" points="368,-123 368,-145 459,-145 459,-123 368,-123"/>
<text text-anchor="start" x="371" y="-131.2" font-family="Helvetica,sans-Serif" font-size="11.00">varchar[1024]</text>
<polygon fill="none" stroke="black" points="277,-101 277,-123 368,-123 368,-101 277,-101"/>
<text text-anchor="start" x="297" y="-109.2" font-family="Helvetica,sans-Serif" font-size="11.00">read_by_list</text>
<polygon fill="none" stroke="black" points="368,-101 368,-123 459,-123 459,-101 368,-101"/>
<text text-anchor="start" x="371" y="-109.2" font-family="Helvetica,sans-Serif" font-size="11.00">_int4[10]</text>
<polygon fill="#ffffff" stroke="transparent" points="277,-79 277,-101 368,-101 368,-79 277,-79"/>
<polygon fill="none" stroke="black" points="277,-79 277,-101 368,-101 368,-79 277,-79"/>
<text text-anchor="start" x="297" y="-87.2" font-family="Helvetica,sans-Serif" font-size="11.00">created_at</text>
<polygon fill="none" stroke="black" points="368,-79 368,-101 459,-101 459,-79 368,-79"/>
<text text-anchor="start" x="371" y="-87.2" font-family="Helvetica,sans-Serif" font-size="11.00">timestamp[29,6]</text>
<polygon fill="none" stroke="black" points="277,-57 277,-79 368,-79 368,-57 277,-57"/>
<text text-anchor="start" x="297" y="-65.2" font-family="Helvetica,sans-Serif" font-size="11.00">updated_at</text>
<polygon fill="none" stroke="black" points="368,-57 368,-79 459,-79 459,-57 368,-57"/>
<text text-anchor="start" x="371" y="-65.2" font-family="Helvetica,sans-Serif" font-size="11.00">timestamp[29,6]</text>
<polygon fill="#ffffff" stroke="transparent" points="277,-39 277,-57 327,-57 327,-39 277,-39"/>
<polygon fill="none" stroke="black" points="277,-39 277,-57 327,-57 327,-39 277,-39"/>
<text text-anchor="start" x="280" y="-45.2" font-family="Helvetica,sans-Serif" font-size="11.00">&lt; 2</text>
<polygon fill="#ffffff" stroke="transparent" points="327,-39 327,-57 368,-57 368,-39 327,-39"/>
<polygon fill="none" stroke="black" points="327,-39 327,-57 368,-57 368,-39 327,-39"/>
<text text-anchor="start" x="358" y="-45.2" font-family="Helvetica,sans-Serif" font-size="11.00"> &#160;</text>
<polygon fill="#ffffff" stroke="transparent" points="368,-39 368,-57 459,-57 459,-39 368,-39"/>
<polygon fill="none" stroke="black" points="368,-39 368,-57 459,-57 459,-39 368,-39"/>
<text text-anchor="start" x="440" y="-45.2" font-family="Helvetica,sans-Serif" font-size="11.00">0 &gt;</text>
<polygon fill="none" stroke="black" stroke-width="2" points="276,-38 276,-234 460,-234 460,-38 276,-38"/>
</a>
</g>
</g>
<!-- messages&#45;&gt;chats -->
<g id="edge4" class="edge">
<title>messages:w&#45;&gt;chats:e</title>
<path fill="none" stroke="black" d="M261.51,-179.15C249.15,-181.03 236.89,-185.03 225.78,-189.71"/>
<polygon fill="black" stroke="black" points="268.02,-178.63 276.28,-181.59 272.01,-178.32 276,-178 276,-178 276,-178 272.01,-178.32 275.72,-174.41 268.02,-178.63 268.02,-178.63"/>
<ellipse fill="none" stroke="black" cx="264.83" cy="-178.88" rx="3.2" ry="3.2"/>
</g>
<!-- messages&#45;&gt;users -->
<g id="edge5" class="edge">
<title>messages:w&#45;&gt;users:e</title>
<path fill="none" stroke="black" d="M261.56,-156.2C201.03,-157.84 134.96,-169.2 92.36,-177.88"/>
<polygon fill="black" stroke="black" points="268,-156.11 276.05,-159.6 272,-156.06 276,-156 276,-156 276,-156 272,-156.06 275.95,-152.4 268,-156.11 268,-156.11"/>
<ellipse fill="none" stroke="black" cx="264.8" cy="-156.16" rx="3.2" ry="3.2"/>
</g>
<!-- sessions -->
<g id="node5" class="node">
<title>sessions</title>
<g id="a_node5"><a xlink:href="../../tables/sessions.html" xlink:title="sessions" target="_top">
<polygon fill="#ffffff" stroke="transparent" points="133,-80 133,-138 226,-138 226,-80 133,-80"/>
<polygon fill="#f5f5f5" stroke="transparent" points="133.5,-116 133.5,-138 226.5,-138 226.5,-116 133.5,-116"/>
<polygon fill="none" stroke="black" points="133.5,-116 133.5,-138 226.5,-138 226.5,-116 133.5,-116"/>
<text text-anchor="start" x="138" y="-125.2" font-family="Helvetica,sans-Serif" font-weight="bold" font-size="11.00">sessions</text>
<text text-anchor="start" x="187.5" y="-124.2" font-family="Helvetica,sans-Serif" font-size="11.00">[table]</text>
<polygon fill="none" stroke="black" points="133.5,-98 133.5,-116 226.5,-116 226.5,-98 133.5,-98"/>
<text text-anchor="start" x="136.5" y="-104.2" font-family="Helvetica,sans-Serif" font-size="11.00">...</text>
<polygon fill="#ffffff" stroke="transparent" points="133.5,-80 133.5,-98 177.5,-98 177.5,-80 133.5,-80"/>
<polygon fill="none" stroke="black" points="133.5,-80 133.5,-98 177.5,-98 177.5,-80 133.5,-80"/>
<text text-anchor="start" x="136.5" y="-86.2" font-family="Helvetica,sans-Serif" font-size="11.00">&lt; 1</text>
<polygon fill="#ffffff" stroke="transparent" points="177.5,-80 177.5,-98 201.5,-98 201.5,-80 177.5,-80"/>
<polygon fill="none" stroke="black" points="177.5,-80 177.5,-98 201.5,-98 201.5,-80 177.5,-80"/>
<text text-anchor="start" x="191.5" y="-86.2" font-family="Helvetica,sans-Serif" font-size="11.00"> &#160;</text>
<polygon fill="#ffffff" stroke="transparent" points="201.5,-80 201.5,-98 226.5,-98 226.5,-80 201.5,-80"/>
<polygon fill="none" stroke="black" points="201.5,-80 201.5,-98 226.5,-98 226.5,-80 201.5,-80"/>
<text text-anchor="start" x="216.5" y="-86.2" font-family="Helvetica,sans-Serif" font-size="11.00"> &#160;</text>
</a>
</g>
</g>
<!-- sessions&#45;&gt;users -->
<g id="edge6" class="edge">
<title>sessions:w&#45;&gt;users:e</title>
<path fill="none" stroke="black" d="M117.97,-109.1C95.52,-115.6 77.46,-136.11 65.18,-154.59"/>
<polygon fill="black" stroke="black" points="124.58,-108.14 133.01,-110.56 128.54,-107.57 132.5,-107 132.5,-107 132.5,-107 128.54,-107.57 131.99,-103.44 124.58,-108.14 124.58,-108.14"/>
<ellipse fill="none" stroke="black" cx="121.41" cy="-108.6" rx="3.2" ry="3.2"/>
</g>
</g>
</svg>
