<?xml version="1.0" encoding="UTF-8" standalone="no"?>
<!DOCTYPE svg PUBLIC "-//W3C//DTD SVG 1.1//EN"
 "http://www.w3.org/Graphics/SVG/1.1/DTD/svg11.dtd">
<!-- Generated by graphviz version 2.47.1 (20210515.0534)
 -->
<!-- Title: oneDegreeRelationshipsDiagram Pages: 1 -->
<svg width="518pt" height="308pt"
 viewBox="0.00 0.00 518.00 308.00" xmlns="http://www.w3.org/2000/svg" xmlns:xlink="http://www.w3.org/1999/xlink">
<g id="graph0" class="graph" transform="scale(1 1) rotate(0) translate(4 304)">
<title>oneDegreeRelationshipsDiagram</title>
<polygon fill="#ffffff" stroke="transparent" points="-4,4 -4,-304 514,-304 514,4 -4,4"/>
<text text-anchor="middle" x="73.5" y="-7.2" font-family="Helvetica,sans-Serif" font-size="11.00">Generated by SchemaSpy</text>
<!-- chats -->
<g id="node1" class="node">
<title>chats</title>
<g id="a_node1"><a xlink:href="../../tables/chats.html" xlink:title="chats" target="_top">
<polygon fill="#ffffff" stroke="transparent" points="179,-128 179,-296 267,-296 267,-128 179,-128"/>
<polygon fill="#f5f5f5" stroke="transparent" points="179,-274 179,-296 267,-296 267,-274 179,-274"/>
<polygon fill="none" stroke="black" points="179,-274 179,-296 267,-296 267,-274 179,-274"/>
<text text-anchor="start" x="182.5" y="-283.2" font-family="Helvetica,sans-Serif" font-weight="bold" font-size="11.00">chats</text>
<text text-anchor="start" x="228" y="-282.2" font-family="Helvetica,sans-Serif" font-size="11.00">[table]</text>
<polygon fill="none" stroke="black" points="179,-252 179,-274 267,-274 267,-252 179,-252"/>
<image xlink:href="../../images/primaryKeys.png" width="11px" height="12px" preserveAspectRatio="xMinYMin meet" x="184" y="-269"/>
<text text-anchor="start" x="199" y="-260.2" font-family="Helvetica,sans-Serif" font-size="11.00">id</text>
<polygon fill="#ffffff" stroke="transparent" points="179,-230 179,-252 267,-252 267,-230 179,-230"/>
<polygon fill="none" stroke="black" points="179,-230 179,-252 267,-252 267,-230 179,-230"/>
<image xlink:href="../../images/foreignKeys.png" width="11px" height="12px" preserveAspectRatio="xMinYMin meet" x="184" y="-247"/>
<text text-anchor="start" x="199" y="-238.2" font-family="Helvetica,sans-Serif" font-size="11.00">created_by</text>
<polygon fill="#ffffff" stroke="transparent" points="179,-208 179,-230 267,-230 267,-208 179,-208"/>
<polygon fill="none" stroke="black" points="179,-208 179,-230 267,-230 267,-208 179,-208"/>
<text text-anchor="start" x="199" y="-216.2" font-family="Helvetica,sans-Serif" font-size="11.00">name</text>
<polygon fill="#ffffff" stroke="transparent" points="179,-186 179,-208 267,-208 267,-186 179,-186"/>
<polygon fill="none" stroke="black" points="179,-186 179,-208 267,-208 267,-186 179,-186"/>
<text text-anchor="start" x="199" y="-194.2" font-family="Helvetica,sans-Serif" font-size="11.00">created_at</text>
<polygon fill="#ffffff" stroke="transparent" points="179,-164 179,-186 267,-186 267,-164 179,-164"/>
<polygon fill="none" stroke="black" points="179,-164 179,-186 267,-186 267,-164 179,-164"/>
<text text-anchor="start" x="199" y="-172.2" font-family="Helvetica,sans-Serif" font-size="11.00">updated_at</text>
<polygon fill="none" stroke="black" points="179,-146 179,-164 267,-164 267,-146 179,-146"/>
<text text-anchor="start" x="182" y="-152.2" font-family="Helvetica,sans-Serif" font-size="11.00">...</text>
<polygon fill="#ffffff" stroke="transparent" points="179,-128 179,-146 216,-146 216,-128 179,-128"/>
<polygon fill="none" stroke="black" points="179,-128 179,-146 216,-146 216,-128 179,-128"/>
<text text-anchor="start" x="182" y="-134.2" font-family="Helvetica,sans-Serif" font-size="11.00">&lt; 1</text>
<polygon fill="#ffffff" stroke="transparent" points="216,-128 216,-146 237,-146 237,-128 216,-128"/>
<polygon fill="none" stroke="black" points="216,-128 216,-146 237,-146 237,-128 216,-128"/>
<text text-anchor="start" x="227" y="-134.2" font-family="Helvetica,sans-Serif" font-size="11.00"> &#160;</text>
<polygon fill="#ffffff" stroke="transparent" points="237,-128 237,-146 267,-146 267,-128 237,-128"/>
<polygon fill="none" stroke="black" points="237,-128 237,-146 267,-146 267,-128 237,-128"/>
<text text-anchor="start" x="248" y="-134.2" font-family="Helvetica,sans-Serif" font-size="11.00">2 &gt;</text>
</a>
</g>
</g>
<!-- users -->
<g id="node2" class="node">
<title>users</title>
<g id="a_node2"><a xlink:href="../../tables/users.html" xlink:title="users" target="_top">
<polygon fill="#ffffff" stroke="transparent" points="8,-37 8,-205 130,-205 130,-37 8,-37"/>
<polygon fill="#f5f5f5" stroke="transparent" points="8,-183 8,-205 130,-205 130,-183 8,-183"/>
<polygon fill="none" stroke="black" points="8,-183 8,-205 130,-205 130,-183 8,-183"/>
<text text-anchor="start" x="11.5" y="-192.2" font-family="Helvetica,sans-Serif" font-weight="bold" font-size="11.00">users</text>
<text text-anchor="start" x="91" y="-191.2" font-family="Helvetica,sans-Serif" font-size="11.00">[table]</text>
<polygon fill="none" stroke="black" points="8,-161 8,-183 130,-183 130,-161 8,-161"/>
<image xlink:href="../../images/primaryKeys.png" width="11px" height="12px" preserveAspectRatio="xMinYMin meet" x="13" y="-178"/>
<text text-anchor="start" x="28" y="-169.2" font-family="Helvetica,sans-Serif" font-size="11.00">id</text>
<polygon fill="#ffffff" stroke="transparent" points="8,-139 8,-161 130,-161 130,-139 8,-139"/>
<polygon fill="none" stroke="black" points="8,-139 8,-161 130,-161 130,-139 8,-139"/>
<text text-anchor="start" x="28" y="-147.2" font-family="Helvetica,sans-Serif" font-size="11.00">username</text>
<polygon fill="#ffffff" stroke="transparent" points="8,-117 8,-139 130,-139 130,-117 8,-117"/>
<polygon fill="none" stroke="black" points="8,-117 8,-139 130,-139 130,-117 8,-117"/>
<text text-anchor="start" x="28" y="-125.2" font-family="Helvetica,sans-Serif" font-size="11.00">email</text>
<polygon fill="#ffffff" stroke="transparent" points="8,-95 8,-117 130,-117 130,-95 8,-95"/>
<polygon fill="none" stroke="black" points="8,-95 8,-117 130,-117 130,-95 8,-95"/>
<text text-anchor="start" x="28" y="-103.2" font-family="Helvetica,sans-Serif" font-size="11.00">first_name</text>
<polygon fill="#ffffff" stroke="transparent" points="8,-73 8,-95 130,-95 130,-73 8,-73"/>
<polygon fill="none" stroke="black" points="8,-73 8,-95 130,-95 130,-73 8,-73"/>
<text text-anchor="start" x="28" y="-81.2" font-family="Helvetica,sans-Serif" font-size="11.00">last_name</text>
<polygon fill="none" stroke="black" points="8,-55 8,-73 130,-73 130,-55 8,-55"/>
<text text-anchor="start" x="11" y="-61.2" font-family="Helvetica,sans-Serif" font-size="11.00">...</text>
<polygon fill="#ffffff" stroke="transparent" points="8,-37 8,-55 58,-55 58,-37 8,-37"/>
<polygon fill="none" stroke="black" points="8,-37 8,-55 58,-55 58,-37 8,-37"/>
<text text-anchor="start" x="11" y="-43.2" font-family="Helvetica,sans-Serif" font-size="11.00"> &#160;</text>
<polygon fill="#ffffff" stroke="transparent" points="58,-37 58,-55 89,-55 89,-37 58,-37"/>
<polygon fill="none" stroke="black" points="58,-37 58,-55 89,-55 89,-37 58,-37"/>
<text text-anchor="start" x="79" y="-43.2" font-family="Helvetica,sans-Serif" font-size="11.00"> &#160;</text>
<polygon fill="#ffffff" stroke="transparent" points="89,-37 89,-55 130,-55 130,-37 89,-37"/>
<polygon fill="none" stroke="black" points="89,-37 89,-55 130,-55 130,-37 89,-37"/>
<text text-anchor="start" x="111" y="-43.2" font-family="Helvetica,sans-Serif" font-size="11.00">4 &gt;</text>
</a>
</g>
</g>
<!-- chats&#45;&gt;users -->
<g id="edge1" class="edge">
<title>chats:w&#45;&gt;users:e</title>
<path fill="none" stroke="black" d="M164.36,-236.04C148.09,-220.22 162.02,-172 131,-172"/>
<polygon fill="black" stroke="black" points="170.48,-238.26 176.77,-244.38 174.24,-239.63 178,-241 178,-241 178,-241 174.24,-239.63 179.23,-237.62 170.48,-238.26 170.48,-238.26"/>
<ellipse fill="none" stroke="black" cx="167.48" cy="-237.17" rx="3.2" ry="3.2"/>
</g>
<!-- messages -->
<g id="node3" class="node">
<title>messages</title>
<g id="a_node3"><a xlink:href="../../tables/messages.html" xlink:title="messages" target="_top">
<polygon fill="#ffffff" stroke="transparent" points="316,-53 316,-251 502,-251 502,-53 316,-53"/>
<polygon fill="#f5f5f5" stroke="transparent" points="318,-227 318,-249 500,-249 500,-227 318,-227"/>
<polygon fill="none" stroke="black" points="318,-227 318,-249 500,-249 500,-227 318,-227"/>
<text text-anchor="start" x="323" y="-236.2" font-family="Helvetica,sans-Serif" font-weight="bold" font-size="11.00">messages</text>
<text text-anchor="start" x="461" y="-235.2" font-family="Helvetica,sans-Serif" font-size="11.00">[table]</text>
<polygon fill="none" stroke="black" points="318,-205 318,-227 409,-227 409,-205 318,-205"/>
<image xlink:href="../../images/primaryKeys.png" width="11px" height="12px" preserveAspectRatio="xMinYMin meet" x="323" y="-222"/>
<text text-anchor="start" x="338" y="-213.2" font-family="Helvetica,sans-Serif" font-size="11.00">id</text>
<polygon fill="none" stroke="black" points="409,-205 409,-227 500,-227 500,-205 409,-205"/>
<text text-anchor="start" x="412" y="-213.2" font-family="Helvetica,sans-Serif" font-size="11.00">serial[10]</text>
<polygon fill="none" stroke="black" points="318,-183 318,-205 409,-205 409,-183 318,-183"/>
<image xlink:href="../../images/foreignKeys.png" width="11px" height="12px" preserveAspectRatio="xMinYMin meet" x="323" y="-200"/>
<text text-anchor="start" x="338" y="-191.2" font-family="Helvetica,sans-Serif" font-size="11.00">chat_id</text>
<polygon fill="none" stroke="black" points="409,-183 409,-205 500,-205 500,-183 409,-183"/>
<text text-anchor="start" x="412" y="-191.2" font-family="Helvetica,sans-Serif" font-size="11.00">int4[10]</text>
<polygon fill="#ffffff" stroke="transparent" points="318,-161 318,-183 409,-183 409,-161 318,-161"/>
<polygon fill="none" stroke="black" points="318,-161 318,-183 409,-183 409,-161 318,-161"/>
<image xlink:href="../../images/foreignKeys.png" width="11px" height="12px" preserveAspectRatio="xMinYMin meet" x="323" y="-178"/>
<text text-anchor="start" x="338" y="-169.2" font-family="Helvetica,sans-Serif" font-size="11.00">sender_id</text>
<polygon fill="none" stroke="black" points="409,-161 409,-183 500,-183 500,-161 409,-161"/>
<text text-anchor="start" x="412" y="-169.2" font-family="Helvetica,sans-Serif" font-size="11.00">int4[10]</text>
<polygon fill="#ffffff" stroke="transparent" points="318,-139 318,-161 409,-161 409,-139 318,-139"/>
<polygon fill="none" stroke="black" points="318,-139 318,-161 409,-161 409,-139 318,-139"/>
<text text-anchor="start" x="338" y="-147.2" font-family="Helvetica,sans-Serif" font-size="11.00">content</text>
<polygon fill="none" stroke="black" points="409,-139 409,-161 500,-161 500,-139 409,-139"/>
<text text-anchor="start" x="412" y="-147.2" font-family="Helvetica,sans-Serif" font-size="11.00">varchar[1024]</text>
<polygon fill="none" stroke="black" points="318,-117 318,-139 409,-139 409,-117 318,-117"/>
<text text-anchor="start" x="338" y="-125.2" font-family="Helvetica,sans-Serif" font-size="11.00">read_by_list</text>
<polygon fill="none" stroke="black" points="409,-117 409,-139 500,-139 500,-117 409,-117"/>
<text text-anchor="start" x="412" y="-125.2" font-family="Helvetica,sans-Serif" font-size="11.00">_int4[10]</text>
<polygon fill="#ffffff" stroke="transparent" points="318,-95 318,-117 409,-117 409,-95 318,-95"/>
<polygon fill="none" stroke="black" points="318,-95 318,-117 409,-117 409,-95 318,-95"/>
<text text-anchor="start" x="338" y="-103.2" font-family="Helvetica,sans-Serif" font-size="11.00">created_at</text>
<polygon fill="none" stroke="black" points="409,-95 409,-117 500,-117 500,-95 409,-95"/>
<text text-anchor="start" x="412" y="-103.2" font-family="Helvetica,sans-Serif" font-size="11.00">timestamp[29,6]</text>
<polygon fill="none" stroke="black" points="318,-73 318,-95 409,-95 409,-73 318,-73"/>
<text text-anchor="start" x="338" y="-81.2" font-family="Helvetica,sans-Serif" font-size="11.00">updated_at</text>
<polygon fill="none" stroke="black" points="409,-73 409,-95 500,-95 500,-73 409,-73"/>
<text text-anchor="start" x="412" y="-81.2" font-family="Helvetica,sans-Serif" font-size="11.00">timestamp[29,6]</text>
<polygon fill="#ffffff" stroke="transparent" points="318,-55 318,-73 368,-73 368,-55 318,-55"/>
<polygon fill="none" stroke="black" points="318,-55 318,-73 368,-73 368,-55 318,-55"/>
<text text-anchor="start" x="321" y="-61.2" font-family="Helvetica,sans-Serif" font-size="11.00">&lt; 2</text>
<polygon fill="#ffffff" stroke="transparent" points="368,-55 368,-73 409,-73 409,-55 368,-55"/>
<polygon fill="none" stroke="black" points="368,-55 368,-73 409,-73 409,-55 368,-55"/>
<text text-anchor="start" x="399" y="-61.2" font-family="Helvetica,sans-Serif" font-size="11.00"> &#160;</text>
<polygon fill="#ffffff" stroke="transparent" points="409,-55 409,-73 500,-73 500,-55 409,-55"/>
<polygon fill="none" stroke="black" points="409,-55 409,-73 500,-73 500,-55 409,-55"/>
<text text-anchor="start" x="481" y="-61.2" font-family="Helvetica,sans-Serif" font-size="11.00">0 &gt;</text>
<polygon fill="none" stroke="black" stroke-width="2" points="317,-54 317,-250 501,-250 501,-54 317,-54"/>
</a>
</g>
</g>
<!-- messages&#45;&gt;chats -->
<g id="edge2" class="edge">
<title>messages:w&#45;&gt;chats:e</title>
<path fill="none" stroke="black" d="M303.08,-198.96C286.27,-214.78 299.44,-263 268,-263"/>
<polygon fill="black" stroke="black" points="309.46,-196.69 318.21,-197.39 313.23,-195.34 317,-194 317,-194 317,-194 313.23,-195.34 315.79,-190.61 309.46,-196.69 309.46,-196.69"/>
<ellipse fill="none" stroke="black" cx="306.45" cy="-197.76" rx="3.2" ry="3.2"/>
</g>
<!-- messages&#45;&gt;users -->
<g id="edge3" class="edge">
<title>messages:w&#45;&gt;users:e</title>
<path fill="none" stroke="black" d="M303.08,-167.21C291.31,-156.07 296.55,-128.54 275,-118 233.48,-97.69 212.28,-97.21 171,-118 144.33,-131.44 160.87,-172 131,-172"/>
<polygon fill="black" stroke="black" points="309.43,-169.4 315.83,-175.4 313.22,-170.7 317,-172 317,-172 317,-172 313.22,-170.7 318.17,-168.6 309.43,-169.4 309.43,-169.4"/>
<ellipse fill="none" stroke="black" cx="306.41" cy="-168.36" rx="3.2" ry="3.2"/>
</g>
</g>
</svg>
