<?xml version="1.0" encoding="UTF-8" standalone="no"?>
<!DOCTYPE svg PUBLIC "-//W3C//DTD SVG 1.1//EN"
 "http://www.w3.org/Graphics/SVG/1.1/DTD/svg11.dtd">
<!-- Generated by graphviz version 2.47.1 (20210515.0534)
 -->
<!-- Title: twoDegreesRelationshipsDiagram Pages: 1 -->
<svg width="670pt" height="423pt"
 viewBox="0.00 0.00 670.00 423.00" xmlns="http://www.w3.org/2000/svg" xmlns:xlink="http://www.w3.org/1999/xlink">
<g id="graph0" class="graph" transform="scale(1 1) rotate(0) translate(4 419)">
<title>twoDegreesRelationshipsDiagram</title>
<polygon fill="#ffffff" stroke="transparent" points="-4,4 -4,-419 666,-419 666,4 -4,4"/>
<text text-anchor="middle" x="73.5" y="-7.2" font-family="Helvetica,sans-Serif" font-size="11.00">Generated by SchemaSpy</text>
<!-- chat_participants -->
<g id="node1" class="node">
<title>chat_participants</title>
<g id="a_node1"><a xlink:href="../../tables/chat_participants.html" xlink:title="chat_participants" target="_top">
<polygon fill="#ffffff" stroke="transparent" points="506,-353 506,-411 654,-411 654,-353 506,-353"/>
<polygon fill="#f5f5f5" stroke="transparent" points="506,-389 506,-411 654,-411 654,-389 506,-389"/>
<polygon fill="none" stroke="black" points="506,-389 506,-411 654,-411 654,-389 506,-389"/>
<text text-anchor="start" x="511" y="-398.2" font-family="Helvetica,sans-Serif" font-weight="bold" font-size="11.00">chat_participants</text>
<text text-anchor="start" x="615" y="-397.2" font-family="Helvetica,sans-Serif" font-size="11.00">[table]</text>
<polygon fill="none" stroke="black" points="506,-371 506,-389 654,-389 654,-371 506,-371"/>
<text text-anchor="start" x="509" y="-377.2" font-family="Helvetica,sans-Serif" font-size="11.00">...</text>
<polygon fill="#ffffff" stroke="transparent" points="506,-353 506,-371 561,-371 561,-353 506,-353"/>
<polygon fill="none" stroke="black" points="506,-353 506,-371 561,-371 561,-353 506,-353"/>
<text text-anchor="start" x="509" y="-359.2" font-family="Helvetica,sans-Serif" font-size="11.00">&lt; 2</text>
<polygon fill="#ffffff" stroke="transparent" points="561,-353 561,-371 624,-371 624,-353 561,-353"/>
<polygon fill="none" stroke="black" points="561,-353 561,-371 624,-371 624,-353 561,-353"/>
<text text-anchor="start" x="581" y="-359.2" font-family="Helvetica,sans-Serif" font-size="11.00">90 rows</text>
<polygon fill="#ffffff" stroke="transparent" points="624,-353 624,-371 654,-371 654,-353 624,-353"/>
<polygon fill="none" stroke="black" points="624,-353 624,-371 654,-371 654,-353 624,-353"/>
<text text-anchor="start" x="644" y="-359.2" font-family="Helvetica,sans-Serif" font-size="11.00"> &#160;</text>
</a>
</g>
</g>
<!-- chats -->
<g id="node2" class="node">
<title>chats</title>
<g id="a_node2"><a xlink:href="../../tables/chats.html" xlink:title="chats" target="_top">
<polygon fill="#ffffff" stroke="transparent" points="280,-305 280,-363 356,-363 356,-305 280,-305"/>
<polygon fill="#f5f5f5" stroke="transparent" points="280,-341 280,-363 356,-363 356,-341 280,-341"/>
<polygon fill="none" stroke="black" points="280,-341 280,-363 356,-363 356,-341 280,-341"/>
<text text-anchor="start" x="283.5" y="-350.2" font-family="Helvetica,sans-Serif" font-weight="bold" font-size="11.00">chats</text>
<text text-anchor="start" x="317" y="-349.2" font-family="Helvetica,sans-Serif" font-size="11.00">[table]</text>
<polygon fill="none" stroke="black" points="280,-323 280,-341 356,-341 356,-323 280,-323"/>
<text text-anchor="start" x="283" y="-329.2" font-family="Helvetica,sans-Serif" font-size="11.00">...</text>
<polygon fill="#ffffff" stroke="transparent" points="280,-305 280,-323 311,-323 311,-305 280,-305"/>
<polygon fill="none" stroke="black" points="280,-305 280,-323 311,-323 311,-305 280,-305"/>
<text text-anchor="start" x="283" y="-311.2" font-family="Helvetica,sans-Serif" font-size="11.00">&lt; 1</text>
<polygon fill="#ffffff" stroke="transparent" points="311,-305 311,-323 329,-323 329,-305 311,-305"/>
<polygon fill="none" stroke="black" points="311,-305 311,-323 329,-323 329,-305 311,-305"/>
<text text-anchor="start" x="319" y="-311.2" font-family="Helvetica,sans-Serif" font-size="11.00"> &#160;</text>
<polygon fill="#ffffff" stroke="transparent" points="329,-305 329,-323 356,-323 356,-305 329,-305"/>
<polygon fill="none" stroke="black" points="329,-305 329,-323 356,-323 356,-305 329,-305"/>
<text text-anchor="start" x="337" y="-311.2" font-family="Helvetica,sans-Serif" font-size="11.00">2 &gt;</text>
</a>
</g>
</g>
<!-- chat_participants&#45;&gt;chats -->
<g id="edge1" class="edge">
<title>chat_participants:w&#45;&gt;chats:e</title>
<path fill="none" stroke="black" d="M490.54,-379.25C434.08,-373.14 421.02,-332 357,-332"/>
<polygon fill="black" stroke="black" points="497.01,-379.58 504.81,-383.6 501.01,-379.79 505,-380 505,-380 505,-380 501.01,-379.79 505.19,-376.4 497.01,-379.58 497.01,-379.58"/>
<ellipse fill="none" stroke="black" cx="493.82" cy="-379.42" rx="3.2" ry="3.2"/>
</g>
<!-- users -->
<g id="node3" class="node">
<title>users</title>
<g id="a_node3"><a xlink:href="../../tables/users.html" xlink:title="users" target="_top">
<polygon fill="#ffffff" stroke="transparent" points="8,-171 8,-339 130,-339 130,-171 8,-171"/>
<polygon fill="#f5f5f5" stroke="transparent" points="8,-317 8,-339 130,-339 130,-317 8,-317"/>
<polygon fill="none" stroke="black" points="8,-317 8,-339 130,-339 130,-317 8,-317"/>
<text text-anchor="start" x="11.5" y="-326.2" font-family="Helvetica,sans-Serif" font-weight="bold" font-size="11.00">users</text>
<text text-anchor="start" x="91" y="-325.2" font-family="Helvetica,sans-Serif" font-size="11.00">[table]</text>
<polygon fill="none" stroke="black" points="8,-295 8,-317 130,-317 130,-295 8,-295"/>
<image xlink:href="../../images/primaryKeys.png" width="11px" height="12px" preserveAspectRatio="xMinYMin meet" x="13" y="-312"/>
<text text-anchor="start" x="28" y="-303.2" font-family="Helvetica,sans-Serif" font-size="11.00">id</text>
<polygon fill="#ffffff" stroke="transparent" points="8,-273 8,-295 130,-295 130,-273 8,-273"/>
<polygon fill="none" stroke="black" points="8,-273 8,-295 130,-295 130,-273 8,-273"/>
<text text-anchor="start" x="28" y="-281.2" font-family="Helvetica,sans-Serif" font-size="11.00">username</text>
<polygon fill="#ffffff" stroke="transparent" points="8,-251 8,-273 130,-273 130,-251 8,-251"/>
<polygon fill="none" stroke="black" points="8,-251 8,-273 130,-273 130,-251 8,-251"/>
<text text-anchor="start" x="28" y="-259.2" font-family="Helvetica,sans-Serif" font-size="11.00">email</text>
<polygon fill="#ffffff" stroke="transparent" points="8,-229 8,-251 130,-251 130,-229 8,-229"/>
<polygon fill="none" stroke="black" points="8,-229 8,-251 130,-251 130,-229 8,-229"/>
<text text-anchor="start" x="28" y="-237.2" font-family="Helvetica,sans-Serif" font-size="11.00">first_name</text>
<polygon fill="#ffffff" stroke="transparent" points="8,-207 8,-229 130,-229 130,-207 8,-207"/>
<polygon fill="none" stroke="black" points="8,-207 8,-229 130,-229 130,-207 8,-207"/>
<text text-anchor="start" x="28" y="-215.2" font-family="Helvetica,sans-Serif" font-size="11.00">last_name</text>
<polygon fill="none" stroke="black" points="8,-189 8,-207 130,-207 130,-189 8,-189"/>
<text text-anchor="start" x="11" y="-195.2" font-family="Helvetica,sans-Serif" font-size="11.00">...</text>
<polygon fill="#ffffff" stroke="transparent" points="8,-171 8,-189 58,-189 58,-171 8,-171"/>
<polygon fill="none" stroke="black" points="8,-171 8,-189 58,-189 58,-171 8,-171"/>
<text text-anchor="start" x="11" y="-177.2" font-family="Helvetica,sans-Serif" font-size="11.00"> &#160;</text>
<polygon fill="#ffffff" stroke="transparent" points="58,-171 58,-189 89,-189 89,-171 58,-171"/>
<polygon fill="none" stroke="black" points="58,-171 58,-189 89,-189 89,-171 58,-171"/>
<text text-anchor="start" x="79" y="-177.2" font-family="Helvetica,sans-Serif" font-size="11.00"> &#160;</text>
<polygon fill="#ffffff" stroke="transparent" points="89,-171 89,-189 130,-189 130,-171 89,-171"/>
<polygon fill="none" stroke="black" points="89,-171 89,-189 130,-189 130,-171 89,-171"/>
<text text-anchor="start" x="111" y="-177.2" font-family="Helvetica,sans-Serif" font-size="11.00">4 &gt;</text>
</a>
</g>
</g>
<!-- chat_participants&#45;&gt;users -->
<g id="edge2" class="edge">
<title>chat_participants:w&#45;&gt;users:e</title>
<path fill="none" stroke="black" d="M490.51,-380.22C352.65,-384.41 294.95,-446.38 171,-374 140.72,-356.32 166.06,-306 131,-306"/>
<polygon fill="black" stroke="black" points="497,-380.12 505.05,-383.6 501,-380.06 505,-380 505,-380 505,-380 501,-380.06 504.95,-376.4 497,-380.12 497,-380.12"/>
<ellipse fill="none" stroke="black" cx="493.8" cy="-380.17" rx="3.2" ry="3.2"/>
</g>
<!-- chats&#45;&gt;users -->
<g id="edge3" class="edge">
<title>chats:w&#45;&gt;users:e</title>
<path fill="none" stroke="black" d="M264.6,-331.57C209.71,-328.19 192.7,-306 131,-306"/>
<polygon fill="black" stroke="black" points="271,-331.76 278.89,-335.6 275,-331.88 279,-332 279,-332 279,-332 275,-331.88 279.11,-328.4 271,-331.76 271,-331.76"/>
<ellipse fill="none" stroke="black" cx="267.8" cy="-331.67" rx="3.2" ry="3.2"/>
</g>
<!-- messages -->
<g id="node4" class="node">
<title>messages</title>
<g id="a_node4"><a xlink:href="../../tables/messages.html" xlink:title="messages" target="_top">
<polygon fill="#ffffff" stroke="transparent" points="529.5,-267 529.5,-325 630.5,-325 630.5,-267 529.5,-267"/>
<polygon fill="#f5f5f5" stroke="transparent" points="530,-303 530,-325 631,-325 631,-303 530,-303"/>
<polygon fill="none" stroke="black" points="530,-303 530,-325 631,-325 631,-303 530,-303"/>
<text text-anchor="start" x="535" y="-312.2" font-family="Helvetica,sans-Serif" font-weight="bold" font-size="11.00">messages</text>
<text text-anchor="start" x="592" y="-311.2" font-family="Helvetica,sans-Serif" font-size="11.00">[table]</text>
<polygon fill="none" stroke="black" points="530,-285 530,-303 631,-303 631,-285 530,-285"/>
<text text-anchor="start" x="533" y="-291.2" font-family="Helvetica,sans-Serif" font-size="11.00">...</text>
<polygon fill="#ffffff" stroke="transparent" points="530,-267 530,-285 578,-285 578,-267 530,-267"/>
<polygon fill="none" stroke="black" points="530,-267 530,-285 578,-285 578,-267 530,-267"/>
<text text-anchor="start" x="533" y="-273.2" font-family="Helvetica,sans-Serif" font-size="11.00">&lt; 2</text>
<polygon fill="#ffffff" stroke="transparent" points="578,-267 578,-285 604,-285 604,-267 578,-267"/>
<polygon fill="none" stroke="black" points="578,-267 578,-285 604,-285 604,-267 578,-267"/>
<text text-anchor="start" x="594" y="-273.2" font-family="Helvetica,sans-Serif" font-size="11.00"> &#160;</text>
<polygon fill="#ffffff" stroke="transparent" points="604,-267 604,-285 631,-285 631,-267 604,-267"/>
<polygon fill="none" stroke="black" points="604,-267 604,-285 631,-285 631,-267 604,-267"/>
<text text-anchor="start" x="621" y="-273.2" font-family="Helvetica,sans-Serif" font-size="11.00"> &#160;</text>
</a>
</g>
</g>
<!-- messages&#45;&gt;chats -->
<g id="edge4" class="edge">
<title>messages:w&#45;&gt;chats:e</title>
<path fill="none" stroke="black" d="M514.2,-294.48C448.39,-298.88 430.09,-332 357,-332"/>
<polygon fill="black" stroke="black" points="521,-294.26 529.12,-297.6 525,-294.13 529,-294 529,-294 529,-294 525,-294.13 528.88,-290.4 521,-294.26 521,-294.26"/>
<ellipse fill="none" stroke="black" cx="517.81" cy="-294.36" rx="3.2" ry="3.2"/>
</g>
<!-- messages&#45;&gt;users -->
<g id="edge5" class="edge">
<title>messages:w&#45;&gt;users:e</title>
<path fill="none" stroke="black" d="M514.42,-293.94C367.2,-292.76 323.72,-274.17 171,-295 152.73,-297.49 149.44,-306 131,-306"/>
<polygon fill="black" stroke="black" points="521,-293.97 528.99,-297.6 525,-293.98 529,-294 529,-294 529,-294 525,-293.98 529.01,-290.4 521,-293.97 521,-293.97"/>
<ellipse fill="none" stroke="black" cx="517.8" cy="-293.96" rx="3.2" ry="3.2"/>
</g>
<!-- sessions -->
<g id="node5" class="node">
<title>sessions</title>
<g id="a_node5"><a xlink:href="../../tables/sessions.html" xlink:title="sessions" target="_top">
<polygon fill="#ffffff" stroke="transparent" points="179,-37 179,-257 457,-257 457,-37 179,-37"/>
<polygon fill="#f5f5f5" stroke="transparent" points="181,-233 181,-255 455,-255 455,-233 181,-233"/>
<polygon fill="none" stroke="black" points="181,-233 181,-255 455,-255 455,-233 181,-233"/>
<text text-anchor="start" x="185.5" y="-242.2" font-family="Helvetica,sans-Serif" font-weight="bold" font-size="11.00">sessions</text>
<text text-anchor="start" x="416" y="-241.2" font-family="Helvetica,sans-Serif" font-size="11.00">[table]</text>
<polygon fill="none" stroke="black" points="181,-211 181,-233 353,-233 353,-211 181,-211"/>
<image xlink:href="../../images/primaryKeys.png" width="11px" height="12px" preserveAspectRatio="xMinYMin meet" x="186" y="-228"/>
<text text-anchor="start" x="201" y="-219.2" font-family="Helvetica,sans-Serif" font-size="11.00">id</text>
<polygon fill="none" stroke="black" points="353,-211 353,-233 455,-233 455,-211 353,-211"/>
<text text-anchor="start" x="356" y="-219.2" font-family="Helvetica,sans-Serif" font-size="11.00">serial[10]</text>
<polygon fill="none" stroke="black" points="181,-189 181,-211 353,-211 353,-189 181,-189"/>
<image xlink:href="../../images/foreignKeys.png" width="11px" height="12px" preserveAspectRatio="xMinYMin meet" x="186" y="-206"/>
<text text-anchor="start" x="201" y="-197.2" font-family="Helvetica,sans-Serif" font-size="11.00">user_id</text>
<polygon fill="none" stroke="black" points="353,-189 353,-211 455,-211 455,-189 353,-189"/>
<text text-anchor="start" x="356" y="-197.2" font-family="Helvetica,sans-Serif" font-size="11.00">int4[10]</text>
<polygon fill="none" stroke="black" points="181,-167 181,-189 353,-189 353,-167 181,-167"/>
<text text-anchor="start" x="201" y="-175.2" font-family="Helvetica,sans-Serif" font-size="11.00">device_token</text>
<polygon fill="none" stroke="black" points="353,-167 353,-189 455,-189 455,-167 353,-167"/>
<text text-anchor="start" x="356" y="-175.2" font-family="Helvetica,sans-Serif" font-size="11.00">bytea[2147483647]</text>
<polygon fill="none" stroke="black" points="181,-145 181,-167 353,-167 353,-145 181,-145"/>
<text text-anchor="start" x="201" y="-153.2" font-family="Helvetica,sans-Serif" font-size="11.00">platform_type</text>
<polygon fill="none" stroke="black" points="353,-145 353,-167 455,-167 455,-145 353,-145"/>
<text text-anchor="start" x="356" y="-153.2" font-family="Helvetica,sans-Serif" font-size="11.00">int4[10]</text>
<polygon fill="none" stroke="black" points="181,-123 181,-145 353,-145 353,-123 181,-123"/>
<text text-anchor="start" x="201" y="-131.2" font-family="Helvetica,sans-Serif" font-size="11.00">refresh_token</text>
<polygon fill="none" stroke="black" points="353,-123 353,-145 455,-145 455,-123 353,-123"/>
<text text-anchor="start" x="356" y="-131.2" font-family="Helvetica,sans-Serif" font-size="11.00">bytea[2147483647]</text>
<polygon fill="none" stroke="black" points="181,-101 181,-123 353,-123 353,-101 181,-101"/>
<text text-anchor="start" x="201" y="-109.2" font-family="Helvetica,sans-Serif" font-size="11.00">refresh_token_expired_at</text>
<polygon fill="none" stroke="black" points="353,-101 353,-123 455,-123 455,-101 353,-101"/>
<text text-anchor="start" x="356" y="-109.2" font-family="Helvetica,sans-Serif" font-size="11.00">timestamptz[35,6]</text>
<polygon fill="none" stroke="black" points="181,-79 181,-101 353,-101 353,-79 181,-79"/>
<text text-anchor="start" x="201" y="-87.2" font-family="Helvetica,sans-Serif" font-size="11.00">created_at</text>
<polygon fill="none" stroke="black" points="353,-79 353,-101 455,-101 455,-79 353,-79"/>
<text text-anchor="start" x="356" y="-87.2" font-family="Helvetica,sans-Serif" font-size="11.00">timestamp[29,6]</text>
<polygon fill="none" stroke="black" points="181,-57 181,-79 353,-79 353,-57 181,-57"/>
<text text-anchor="start" x="201" y="-65.2" font-family="Helvetica,sans-Serif" font-size="11.00">updated_at</text>
<polygon fill="none" stroke="black" points="353,-57 353,-79 455,-79 455,-57 353,-57"/>
<text text-anchor="start" x="356" y="-65.2" font-family="Helvetica,sans-Serif" font-size="11.00">timestamp[29,6]</text>
<polygon fill="#ffffff" stroke="transparent" points="181,-39 181,-57 271,-57 271,-39 181,-39"/>
<polygon fill="none" stroke="black" points="181,-39 181,-57 271,-57 271,-39 181,-39"/>
<text text-anchor="start" x="184" y="-45.2" font-family="Helvetica,sans-Serif" font-size="11.00">&lt; 1</text>
<polygon fill="#ffffff" stroke="transparent" points="271,-39 271,-57 353,-57 353,-39 271,-39"/>
<polygon fill="none" stroke="black" points="271,-39 271,-57 353,-57 353,-39 271,-39"/>
<text text-anchor="start" x="343" y="-45.2" font-family="Helvetica,sans-Serif" font-size="11.00"> &#160;</text>
<polygon fill="#ffffff" stroke="transparent" points="353,-39 353,-57 455,-57 455,-39 353,-39"/>
<polygon fill="none" stroke="black" points="353,-39 353,-57 455,-57 455,-39 353,-39"/>
<text text-anchor="start" x="436" y="-45.2" font-family="Helvetica,sans-Serif" font-size="11.00">0 &gt;</text>
<polygon fill="none" stroke="black" stroke-width="2" points="180,-38 180,-256 456,-256 456,-38 180,-38"/>
</a>
</g>
</g>
<!-- sessions&#45;&gt;users -->
<g id="edge6" class="edge">
<title>sessions:w&#45;&gt;users:e</title>
<path fill="none" stroke="black" d="M165.81,-204.03C139.48,-223.39 176.82,-306 131,-306"/>
<polygon fill="black" stroke="black" points="172.3,-202.18 180.98,-203.46 176.15,-201.09 180,-200 180,-200 180,-200 176.15,-201.09 179.02,-196.54 172.3,-202.18 172.3,-202.18"/>
<ellipse fill="none" stroke="black" cx="169.23" cy="-203.06" rx="3.2" ry="3.2"/>
</g>
</g>
</svg>
