<?xml version="1.0" encoding="UTF-8" standalone="no"?>
<!DOCTYPE svg PUBLIC "-//W3C//DTD SVG 1.1//EN"
 "http://www.w3.org/Graphics/SVG/1.1/DTD/svg11.dtd">
<!-- Generated by graphviz version 2.47.1 (20210515.0534)
 -->
<!-- Title: oneDegreeRelationshipsDiagram Pages: 1 -->
<svg width="473pt" height="269pt"
 viewBox="0.00 0.00 473.00 269.00" xmlns="http://www.w3.org/2000/svg" xmlns:xlink="http://www.w3.org/1999/xlink">
<g id="graph0" class="graph" transform="scale(1 1) rotate(0) translate(4 265)">
<title>oneDegreeRelationshipsDiagram</title>
<polygon fill="#ffffff" stroke="transparent" points="-4,4 -4,-265 469,-265 469,4 -4,4"/>
<text text-anchor="middle" x="73.5" y="-7.2" font-family="Helvetica,sans-Serif" font-size="11.00">Generated by SchemaSpy</text>
<!-- sessions -->
<g id="node1" class="node">
<title>sessions</title>
<g id="a_node1"><a xlink:href="../../tables/sessions.html" xlink:title="sessions" target="_top">
<polygon fill="#ffffff" stroke="transparent" points="179,-37 179,-257 457,-257 457,-37 179,-37"/>
<polygon fill="#f5f5f5" stroke="transparent" points="181,-233 181,-255 455,-255 455,-233 181,-233"/>
<polygon fill="none" stroke="black" points="181,-233 181,-255 455,-255 455,-233 181,-233"/>
<text text-anchor="start" x="185.5" y="-242.2" font-family="Helvetica,sans-Serif" font-weight="bold" font-size="11.00">sessions</text>
<text text-anchor="start" x="416" y="-241.2" font-family="Helvetica,sans-Serif" font-size="11.00">[table]</text>
<polygon fill="none" stroke="black" points="181,-211 181,-233 353,-233 353,-211 181,-211"/>
<image xlink:href="../../images/primaryKeys.png" width="11px" height="12px" preserveAspectRatio="xMinYMin meet" x="186" y="-228"/>
<text text-anchor="start" x="201" y="-219.2" font-family="Helvetica,sans-Serif" font-size="11.00">id</text>
<polygon fill="none" stroke="black" points="353,-211 353,-233 455,-233 455,-211 353,-211"/>
<text text-anchor="start" x="356" y="-219.2" font-family="Helvetica,sans-Serif" font-size="11.00">serial[10]</text>
<polygon fill="none" stroke="black" points="181,-189 181,-211 353,-211 353,-189 181,-189"/>
<image xlink:href="../../images/foreignKeys.png" width="11px" height="12px" preserveAspectRatio="xMinYMin meet" x="186" y="-206"/>
<text text-anchor="start" x="201" y="-197.2" font-family="Helvetica,sans-Serif" font-size="11.00">user_id</text>
<polygon fill="none" stroke="black" points="353,-189 353,-211 455,-211 455,-189 353,-189"/>
<text text-anchor="start" x="356" y="-197.2" font-family="Helvetica,sans-Serif" font-size="11.00">int4[10]</text>
<polygon fill="none" stroke="black" points="181,-167 181,-189 353,-189 353,-167 181,-167"/>
<text text-anchor="start" x="201" y="-175.2" font-family="Helvetica,sans-Serif" font-size="11.00">device_token</text>
<polygon fill="none" stroke="black" points="353,-167 353,-189 455,-189 455,-167 353,-167"/>
<text text-anchor="start" x="356" y="-175.2" font-family="Helvetica,sans-Serif" font-size="11.00">bytea[2147483647]</text>
<polygon fill="none" stroke="black" points="181,-145 181,-167 353,-167 353,-145 181,-145"/>
<text text-anchor="start" x="201" y="-153.2" font-family="Helvetica,sans-Serif" font-size="11.00">platform_type</text>
<polygon fill="none" stroke="black" points="353,-145 353,-167 455,-167 455,-145 353,-145"/>
<text text-anchor="start" x="356" y="-153.2" font-family="Helvetica,sans-Serif" font-size="11.00">int4[10]</text>
<polygon fill="none" stroke="black" points="181,-123 181,-145 353,-145 353,-123 181,-123"/>
<text text-anchor="start" x="201" y="-131.2" font-family="Helvetica,sans-Serif" font-size="11.00">refresh_token</text>
<polygon fill="none" stroke="black" points="353,-123 353,-145 455,-145 455,-123 353,-123"/>
<text text-anchor="start" x="356" y="-131.2" font-family="Helvetica,sans-Serif" font-size="11.00">bytea[2147483647]</text>
<polygon fill="none" stroke="black" points="181,-101 181,-123 353,-123 353,-101 181,-101"/>
<text text-anchor="start" x="201" y="-109.2" font-family="Helvetica,sans-Serif" font-size="11.00">refresh_token_expired_at</text>
<polygon fill="none" stroke="black" points="353,-101 353,-123 455,-123 455,-101 353,-101"/>
<text text-anchor="start" x="356" y="-109.2" font-family="Helvetica,sans-Serif" font-size="11.00">timestamptz[35,6]</text>
<polygon fill="none" stroke="black" points="181,-79 181,-101 353,-101 353,-79 181,-79"/>
<text text-anchor="start" x="201" y="-87.2" font-family="Helvetica,sans-Serif" font-size="11.00">created_at</text>
<polygon fill="none" stroke="black" points="353,-79 353,-101 455,-101 455,-79 353,-79"/>
<text text-anchor="start" x="356" y="-87.2" font-family="Helvetica,sans-Serif" font-size="11.00">timestamp[29,6]</text>
<polygon fill="none" stroke="black" points="181,-57 181,-79 353,-79 353,-57 181,-57"/>
<text text-anchor="start" x="201" y="-65.2" font-family="Helvetica,sans-Serif" font-size="11.00">updated_at</text>
<polygon fill="none" stroke="black" points="353,-57 353,-79 455,-79 455,-57 353,-57"/>
<text text-anchor="start" x="356" y="-65.2" font-family="Helvetica,sans-Serif" font-size="11.00">timestamp[29,6]</text>
<polygon fill="#ffffff" stroke="transparent" points="181,-39 181,-57 271,-57 271,-39 181,-39"/>
<polygon fill="none" stroke="black" points="181,-39 181,-57 271,-57 271,-39 181,-39"/>
<text text-anchor="start" x="184" y="-45.2" font-family="Helvetica,sans-Serif" font-size="11.00">&lt; 1</text>
<polygon fill="#ffffff" stroke="transparent" points="271,-39 271,-57 353,-57 353,-39 271,-39"/>
<polygon fill="none" stroke="black" points="271,-39 271,-57 353,-57 353,-39 271,-39"/>
<text text-anchor="start" x="343" y="-45.2" font-family="Helvetica,sans-Serif" font-size="11.00"> &#160;</text>
<polygon fill="#ffffff" stroke="transparent" points="353,-39 353,-57 455,-57 455,-39 353,-39"/>
<polygon fill="none" stroke="black" points="353,-39 353,-57 455,-57 455,-39 353,-39"/>
<text text-anchor="start" x="436" y="-45.2" font-family="Helvetica,sans-Serif" font-size="11.00">0 &gt;</text>
<polygon fill="none" stroke="black" stroke-width="2" points="180,-38 180,-256 456,-256 456,-38 180,-38"/>
</a>
</g>
</g>
<!-- users -->
<g id="node2" class="node">
<title>users</title>
<g id="a_node2"><a xlink:href="../../tables/users.html" xlink:title="users" target="_top">
<polygon fill="#ffffff" stroke="transparent" points="8,-65 8,-233 130,-233 130,-65 8,-65"/>
<polygon fill="#f5f5f5" stroke="transparent" points="8,-211 8,-233 130,-233 130,-211 8,-211"/>
<polygon fill="none" stroke="black" points="8,-211 8,-233 130,-233 130,-211 8,-211"/>
<text text-anchor="start" x="11.5" y="-220.2" font-family="Helvetica,sans-Serif" font-weight="bold" font-size="11.00">users</text>
<text text-anchor="start" x="91" y="-219.2" font-family="Helvetica,sans-Serif" font-size="11.00">[table]</text>
<polygon fill="none" stroke="black" points="8,-189 8,-211 130,-211 130,-189 8,-189"/>
<image xlink:href="../../images/primaryKeys.png" width="11px" height="12px" preserveAspectRatio="xMinYMin meet" x="13" y="-206"/>
<text text-anchor="start" x="28" y="-197.2" font-family="Helvetica,sans-Serif" font-size="11.00">id</text>
<polygon fill="#ffffff" stroke="transparent" points="8,-167 8,-189 130,-189 130,-167 8,-167"/>
<polygon fill="none" stroke="black" points="8,-167 8,-189 130,-189 130,-167 8,-167"/>
<text text-anchor="start" x="28" y="-175.2" font-family="Helvetica,sans-Serif" font-size="11.00">username</text>
<polygon fill="#ffffff" stroke="transparent" points="8,-145 8,-167 130,-167 130,-145 8,-145"/>
<polygon fill="none" stroke="black" points="8,-145 8,-167 130,-167 130,-145 8,-145"/>
<text text-anchor="start" x="28" y="-153.2" font-family="Helvetica,sans-Serif" font-size="11.00">email</text>
<polygon fill="#ffffff" stroke="transparent" points="8,-123 8,-145 130,-145 130,-123 8,-123"/>
<polygon fill="none" stroke="black" points="8,-123 8,-145 130,-145 130,-123 8,-123"/>
<text text-anchor="start" x="28" y="-131.2" font-family="Helvetica,sans-Serif" font-size="11.00">first_name</text>
<polygon fill="#ffffff" stroke="transparent" points="8,-101 8,-123 130,-123 130,-101 8,-101"/>
<polygon fill="none" stroke="black" points="8,-101 8,-123 130,-123 130,-101 8,-101"/>
<text text-anchor="start" x="28" y="-109.2" font-family="Helvetica,sans-Serif" font-size="11.00">last_name</text>
<polygon fill="none" stroke="black" points="8,-83 8,-101 130,-101 130,-83 8,-83"/>
<text text-anchor="start" x="11" y="-89.2" font-family="Helvetica,sans-Serif" font-size="11.00">...</text>
<polygon fill="#ffffff" stroke="transparent" points="8,-65 8,-83 58,-83 58,-65 8,-65"/>
<polygon fill="none" stroke="black" points="8,-65 8,-83 58,-83 58,-65 8,-65"/>
<text text-anchor="start" x="11" y="-71.2" font-family="Helvetica,sans-Serif" font-size="11.00"> &#160;</text>
<polygon fill="#ffffff" stroke="transparent" points="58,-65 58,-83 89,-83 89,-65 58,-65"/>
<polygon fill="none" stroke="black" points="58,-65 58,-83 89,-83 89,-65 58,-65"/>
<text text-anchor="start" x="79" y="-71.2" font-family="Helvetica,sans-Serif" font-size="11.00"> &#160;</text>
<polygon fill="#ffffff" stroke="transparent" points="89,-65 89,-83 130,-83 130,-65 89,-65"/>
<polygon fill="none" stroke="black" points="89,-65 89,-83 130,-83 130,-65 89,-65"/>
<text text-anchor="start" x="111" y="-71.2" font-family="Helvetica,sans-Serif" font-size="11.00">4 &gt;</text>
</a>
</g>
</g>
<!-- sessions&#45;&gt;users -->
<g id="edge1" class="edge">
<title>sessions:w&#45;&gt;users:e</title>
<path fill="none" stroke="black" d="M165.49,-200C154.18,-200 146.99,-200 131,-200"/>
<polygon fill="black" stroke="black" points="172,-200 180,-203.6 176,-200 180,-200 180,-200 180,-200 176,-200 180,-196.4 172,-200 172,-200"/>
<ellipse fill="none" stroke="black" cx="168.8" cy="-200" rx="3.2" ry="3.2"/>
</g>
</g>
</svg>
