<?xml version="1.0" encoding="UTF-8" standalone="no"?>
<!DOCTYPE svg PUBLIC "-//W3C//DTD SVG 1.1//EN"
 "http://www.w3.org/Graphics/SVG/1.1/DTD/svg11.dtd">
<!-- Generated by graphviz version 2.47.1 (20210515.0534)
 -->
<!-- Title: oneDegreeRelationshipsDiagram Pages: 1 -->
<svg width="668pt" height="485pt"
 viewBox="0.00 0.00 668.00 485.00" xmlns="http://www.w3.org/2000/svg" xmlns:xlink="http://www.w3.org/1999/xlink">
<g id="graph0" class="graph" transform="scale(1 1) rotate(0) translate(4 481)">
<title>oneDegreeRelationshipsDiagram</title>
<polygon fill="#ffffff" stroke="transparent" points="-4,4 -4,-481 664,-481 664,4 -4,4"/>
<text text-anchor="middle" x="73.5" y="-7.2" font-family="Helvetica,sans-Serif" font-size="11.00">Generated by SchemaSpy</text>
<!-- chat_participants -->
<g id="node1" class="node">
<title>chat_participants</title>
<g id="a_node1"><a xlink:href="../../tables/chat_participants.html" xlink:title="chat_participants" target="_top">
<polygon fill="#ffffff" stroke="transparent" points="504,-371 504,-473 652,-473 652,-371 504,-371"/>
<polygon fill="#f5f5f5" stroke="transparent" points="504,-451 504,-473 652,-473 652,-451 504,-451"/>
<polygon fill="none" stroke="black" points="504,-451 504,-473 652,-473 652,-451 504,-451"/>
<text text-anchor="start" x="509" y="-460.2" font-family="Helvetica,sans-Serif" font-weight="bold" font-size="11.00">chat_participants</text>
<text text-anchor="start" x="613" y="-459.2" font-family="Helvetica,sans-Serif" font-size="11.00">[table]</text>
<polygon fill="none" stroke="black" points="504,-429 504,-451 652,-451 652,-429 504,-429"/>
<image xlink:href="../../images/primaryKeys.png" width="11px" height="12px" preserveAspectRatio="xMinYMin meet" x="509" y="-446"/>
<text text-anchor="start" x="536" y="-437.2" font-family="Helvetica,sans-Serif" font-size="11.00">chat_id</text>
<polygon fill="none" stroke="black" points="504,-407 504,-429 652,-429 652,-407 504,-407"/>
<image xlink:href="../../images/primaryKeys.png" width="11px" height="12px" preserveAspectRatio="xMinYMin meet" x="509" y="-424"/>
<text text-anchor="start" x="536" y="-415.2" font-family="Helvetica,sans-Serif" font-size="11.00">user_id</text>
<polygon fill="none" stroke="black" points="504,-389 504,-407 652,-407 652,-389 504,-389"/>
<text text-anchor="start" x="507" y="-395.2" font-family="Helvetica,sans-Serif" font-size="11.00">...</text>
<polygon fill="#ffffff" stroke="transparent" points="504,-371 504,-389 559,-389 559,-371 504,-371"/>
<polygon fill="none" stroke="black" points="504,-371 504,-389 559,-389 559,-371 504,-371"/>
<text text-anchor="start" x="507" y="-377.2" font-family="Helvetica,sans-Serif" font-size="11.00">&lt; 2</text>
<polygon fill="#ffffff" stroke="transparent" points="559,-371 559,-389 622,-389 622,-371 559,-371"/>
<polygon fill="none" stroke="black" points="559,-371 559,-389 622,-389 622,-371 559,-371"/>
<text text-anchor="start" x="579" y="-377.2" font-family="Helvetica,sans-Serif" font-size="11.00">90 rows</text>
<polygon fill="#ffffff" stroke="transparent" points="622,-371 622,-389 652,-389 652,-371 622,-371"/>
<polygon fill="none" stroke="black" points="622,-371 622,-389 652,-389 652,-371 622,-371"/>
<text text-anchor="start" x="642" y="-377.2" font-family="Helvetica,sans-Serif" font-size="11.00"> &#160;</text>
</a>
</g>
</g>
<!-- chats -->
<g id="node2" class="node">
<title>chats</title>
<g id="a_node2"><a xlink:href="../../tables/chats.html" xlink:title="chats" target="_top">
<polygon fill="#ffffff" stroke="transparent" points="325,-244 325,-412 413,-412 413,-244 325,-244"/>
<polygon fill="#f5f5f5" stroke="transparent" points="325,-390 325,-412 413,-412 413,-390 325,-390"/>
<polygon fill="none" stroke="black" points="325,-390 325,-412 413,-412 413,-390 325,-390"/>
<text text-anchor="start" x="328.5" y="-399.2" font-family="Helvetica,sans-Serif" font-weight="bold" font-size="11.00">chats</text>
<text text-anchor="start" x="374" y="-398.2" font-family="Helvetica,sans-Serif" font-size="11.00">[table]</text>
<polygon fill="none" stroke="black" points="325,-368 325,-390 413,-390 413,-368 325,-368"/>
<image xlink:href="../../images/primaryKeys.png" width="11px" height="12px" preserveAspectRatio="xMinYMin meet" x="330" y="-385"/>
<text text-anchor="start" x="345" y="-376.2" font-family="Helvetica,sans-Serif" font-size="11.00">id</text>
<polygon fill="#ffffff" stroke="transparent" points="325,-346 325,-368 413,-368 413,-346 325,-346"/>
<polygon fill="none" stroke="black" points="325,-346 325,-368 413,-368 413,-346 325,-346"/>
<image xlink:href="../../images/foreignKeys.png" width="11px" height="12px" preserveAspectRatio="xMinYMin meet" x="330" y="-363"/>
<text text-anchor="start" x="345" y="-354.2" font-family="Helvetica,sans-Serif" font-size="11.00">created_by</text>
<polygon fill="#ffffff" stroke="transparent" points="325,-324 325,-346 413,-346 413,-324 325,-324"/>
<polygon fill="none" stroke="black" points="325,-324 325,-346 413,-346 413,-324 325,-324"/>
<text text-anchor="start" x="345" y="-332.2" font-family="Helvetica,sans-Serif" font-size="11.00">name</text>
<polygon fill="#ffffff" stroke="transparent" points="325,-302 325,-324 413,-324 413,-302 325,-302"/>
<polygon fill="none" stroke="black" points="325,-302 325,-324 413,-324 413,-302 325,-302"/>
<text text-anchor="start" x="345" y="-310.2" font-family="Helvetica,sans-Serif" font-size="11.00">created_at</text>
<polygon fill="#ffffff" stroke="transparent" points="325,-280 325,-302 413,-302 413,-280 325,-280"/>
<polygon fill="none" stroke="black" points="325,-280 325,-302 413,-302 413,-280 325,-280"/>
<text text-anchor="start" x="345" y="-288.2" font-family="Helvetica,sans-Serif" font-size="11.00">updated_at</text>
<polygon fill="none" stroke="black" points="325,-262 325,-280 413,-280 413,-262 325,-262"/>
<text text-anchor="start" x="328" y="-268.2" font-family="Helvetica,sans-Serif" font-size="11.00">...</text>
<polygon fill="#ffffff" stroke="transparent" points="325,-244 325,-262 362,-262 362,-244 325,-244"/>
<polygon fill="none" stroke="black" points="325,-244 325,-262 362,-262 362,-244 325,-244"/>
<text text-anchor="start" x="328" y="-250.2" font-family="Helvetica,sans-Serif" font-size="11.00">&lt; 1</text>
<polygon fill="#ffffff" stroke="transparent" points="362,-244 362,-262 383,-262 383,-244 362,-244"/>
<polygon fill="none" stroke="black" points="362,-244 362,-262 383,-262 383,-244 362,-244"/>
<text text-anchor="start" x="373" y="-250.2" font-family="Helvetica,sans-Serif" font-size="11.00"> &#160;</text>
<polygon fill="#ffffff" stroke="transparent" points="383,-244 383,-262 413,-262 413,-244 383,-244"/>
<polygon fill="none" stroke="black" points="383,-244 383,-262 413,-262 413,-244 383,-244"/>
<text text-anchor="start" x="394" y="-250.2" font-family="Helvetica,sans-Serif" font-size="11.00">2 &gt;</text>
</a>
</g>
</g>
<!-- chat_participants&#45;&gt;chats -->
<g id="edge1" class="edge">
<title>chat_participants:w&#45;&gt;chats:e</title>
<path fill="none" stroke="black" d="M488.66,-437.83C455.91,-426.96 456.52,-379 414,-379"/>
<polygon fill="black" stroke="black" points="495.09,-438.8 502.46,-443.56 499.05,-439.4 503,-440 503,-440 503,-440 499.05,-439.4 503.54,-436.44 495.09,-438.8 495.09,-438.8"/>
<ellipse fill="none" stroke="black" cx="491.93" cy="-438.32" rx="3.2" ry="3.2"/>
</g>
<!-- users -->
<g id="node3" class="node">
<title>users</title>
<g id="a_node3"><a xlink:href="../../tables/users.html" xlink:title="users" target="_top">
<polygon fill="#ffffff" stroke="transparent" points="8,-37 8,-323 234,-323 234,-37 8,-37"/>
<polygon fill="#f5f5f5" stroke="transparent" points="10,-299 10,-321 232,-321 232,-299 10,-299"/>
<polygon fill="none" stroke="black" points="10,-299 10,-321 232,-321 232,-299 10,-299"/>
<text text-anchor="start" x="13.5" y="-308.2" font-family="Helvetica,sans-Serif" font-weight="bold" font-size="11.00">users</text>
<text text-anchor="start" x="193" y="-307.2" font-family="Helvetica,sans-Serif" font-size="11.00">[table]</text>
<polygon fill="none" stroke="black" points="10,-277 10,-299 132,-299 132,-277 10,-277"/>
<image xlink:href="../../images/primaryKeys.png" width="11px" height="12px" preserveAspectRatio="xMinYMin meet" x="15" y="-294"/>
<text text-anchor="start" x="30" y="-285.2" font-family="Helvetica,sans-Serif" font-size="11.00">id</text>
<polygon fill="none" stroke="black" points="132,-277 132,-299 232,-299 232,-277 132,-277"/>
<text text-anchor="start" x="135" y="-285.2" font-family="Helvetica,sans-Serif" font-size="11.00">serial[10]</text>
<polygon fill="#ffffff" stroke="transparent" points="10,-255 10,-277 132,-277 132,-255 10,-255"/>
<polygon fill="none" stroke="black" points="10,-255 10,-277 132,-277 132,-255 10,-255"/>
<text text-anchor="start" x="30" y="-263.2" font-family="Helvetica,sans-Serif" font-size="11.00">username</text>
<polygon fill="none" stroke="black" points="132,-255 132,-277 232,-277 232,-255 132,-255"/>
<text text-anchor="start" x="135" y="-263.2" font-family="Helvetica,sans-Serif" font-size="11.00">varchar[32]</text>
<polygon fill="#ffffff" stroke="transparent" points="10,-233 10,-255 132,-255 132,-233 10,-233"/>
<polygon fill="none" stroke="black" points="10,-233 10,-255 132,-255 132,-233 10,-233"/>
<text text-anchor="start" x="30" y="-241.2" font-family="Helvetica,sans-Serif" font-size="11.00">email</text>
<polygon fill="none" stroke="black" points="132,-233 132,-255 232,-255 232,-233 132,-233"/>
<text text-anchor="start" x="135" y="-241.2" font-family="Helvetica,sans-Serif" font-size="11.00">varchar[255]</text>
<polygon fill="none" stroke="black" points="10,-211 10,-233 132,-233 132,-211 10,-211"/>
<text text-anchor="start" x="30" y="-219.2" font-family="Helvetica,sans-Serif" font-size="11.00">new_email</text>
<polygon fill="none" stroke="black" points="132,-211 132,-233 232,-233 232,-211 132,-211"/>
<text text-anchor="start" x="135" y="-219.2" font-family="Helvetica,sans-Serif" font-size="11.00">varchar[255]</text>
<polygon fill="none" stroke="black" points="10,-189 10,-211 132,-211 132,-189 10,-189"/>
<text text-anchor="start" x="30" y="-197.2" font-family="Helvetica,sans-Serif" font-size="11.00">notification_type</text>
<polygon fill="none" stroke="black" points="132,-189 132,-211 232,-211 232,-189 132,-189"/>
<text text-anchor="start" x="135" y="-197.2" font-family="Helvetica,sans-Serif" font-size="11.00">int4[10]</text>
<polygon fill="#ffffff" stroke="transparent" points="10,-167 10,-189 132,-189 132,-167 10,-167"/>
<polygon fill="none" stroke="black" points="10,-167 10,-189 132,-189 132,-167 10,-167"/>
<text text-anchor="start" x="30" y="-175.2" font-family="Helvetica,sans-Serif" font-size="11.00">first_name</text>
<polygon fill="none" stroke="black" points="132,-167 132,-189 232,-189 232,-167 132,-167"/>
<text text-anchor="start" x="135" y="-175.2" font-family="Helvetica,sans-Serif" font-size="11.00">varchar[30]</text>
<polygon fill="#ffffff" stroke="transparent" points="10,-145 10,-167 132,-167 132,-145 10,-145"/>
<polygon fill="none" stroke="black" points="10,-145 10,-167 132,-167 132,-145 10,-145"/>
<text text-anchor="start" x="30" y="-153.2" font-family="Helvetica,sans-Serif" font-size="11.00">last_name</text>
<polygon fill="none" stroke="black" points="132,-145 132,-167 232,-167 232,-145 132,-145"/>
<text text-anchor="start" x="135" y="-153.2" font-family="Helvetica,sans-Serif" font-size="11.00">varchar[30]</text>
<polygon fill="none" stroke="black" points="10,-123 10,-145 132,-145 132,-123 10,-123"/>
<text text-anchor="start" x="30" y="-131.2" font-family="Helvetica,sans-Serif" font-size="11.00">is_name_visible</text>
<polygon fill="none" stroke="black" points="132,-123 132,-145 232,-145 232,-123 132,-123"/>
<text text-anchor="start" x="135" y="-131.2" font-family="Helvetica,sans-Serif" font-size="11.00">bool[1]</text>
<polygon fill="none" stroke="black" points="10,-101 10,-123 132,-123 132,-101 10,-101"/>
<text text-anchor="start" x="30" y="-109.2" font-family="Helvetica,sans-Serif" font-size="11.00">deleted_at</text>
<polygon fill="none" stroke="black" points="132,-101 132,-123 232,-123 232,-101 132,-101"/>
<text text-anchor="start" x="135" y="-109.2" font-family="Helvetica,sans-Serif" font-size="11.00">timestamptz[35,6]</text>
<polygon fill="none" stroke="black" points="10,-79 10,-101 132,-101 132,-79 10,-79"/>
<text text-anchor="start" x="30" y="-87.2" font-family="Helvetica,sans-Serif" font-size="11.00">created_at</text>
<polygon fill="none" stroke="black" points="132,-79 132,-101 232,-101 232,-79 132,-79"/>
<text text-anchor="start" x="135" y="-87.2" font-family="Helvetica,sans-Serif" font-size="11.00">timestamp[29,6]</text>
<polygon fill="none" stroke="black" points="10,-57 10,-79 132,-79 132,-57 10,-57"/>
<text text-anchor="start" x="30" y="-65.2" font-family="Helvetica,sans-Serif" font-size="11.00">updated_at</text>
<polygon fill="none" stroke="black" points="132,-57 132,-79 232,-79 232,-57 132,-57"/>
<text text-anchor="start" x="135" y="-65.2" font-family="Helvetica,sans-Serif" font-size="11.00">timestamp[29,6]</text>
<polygon fill="#ffffff" stroke="transparent" points="10,-39 10,-57 75,-57 75,-39 10,-39"/>
<polygon fill="none" stroke="black" points="10,-39 10,-57 75,-57 75,-39 10,-39"/>
<text text-anchor="start" x="13" y="-45.2" font-family="Helvetica,sans-Serif" font-size="11.00">&lt; 0</text>
<polygon fill="#ffffff" stroke="transparent" points="75,-39 75,-57 132,-57 132,-39 75,-39"/>
<polygon fill="none" stroke="black" points="75,-39 75,-57 132,-57 132,-39 75,-39"/>
<text text-anchor="start" x="122" y="-45.2" font-family="Helvetica,sans-Serif" font-size="11.00"> &#160;</text>
<polygon fill="#ffffff" stroke="transparent" points="132,-39 132,-57 232,-57 232,-39 132,-39"/>
<polygon fill="none" stroke="black" points="132,-39 132,-57 232,-57 232,-39 132,-39"/>
<text text-anchor="start" x="213" y="-45.2" font-family="Helvetica,sans-Serif" font-size="11.00">4 &gt;</text>
<polygon fill="none" stroke="black" stroke-width="2" points="9,-38 9,-322 233,-322 233,-38 9,-38"/>
</a>
</g>
</g>
<!-- chat_participants&#45;&gt;users -->
<g id="edge2" class="edge">
<title>chat_participants:w&#45;&gt;users:e</title>
<path fill="none" stroke="black" d="M488.55,-419.06C480.72,-420.3 474.87,-422.26 463,-423 379.61,-428.19 342.29,-472.54 275,-423 224.4,-385.75 295.84,-288 233,-288"/>
<polygon fill="black" stroke="black" points="495.02,-418.59 503.26,-421.59 499.01,-418.29 503,-418 503,-418 503,-418 499.01,-418.29 502.74,-414.41 495.02,-418.59 495.02,-418.59"/>
<ellipse fill="none" stroke="black" cx="491.83" cy="-418.82" rx="3.2" ry="3.2"/>
</g>
<!-- chats&#45;&gt;users -->
<g id="edge3" class="edge">
<title>chats:w&#45;&gt;users:e</title>
<path fill="none" stroke="black" d="M309.38,-354.7C274.81,-342.73 278.2,-288 233,-288"/>
<polygon fill="black" stroke="black" points="316.1,-355.76 323.44,-360.56 320.05,-356.38 324,-357 324,-357 324,-357 320.05,-356.38 324.56,-353.44 316.1,-355.76 316.1,-355.76"/>
<ellipse fill="none" stroke="black" cx="312.94" cy="-355.26" rx="3.2" ry="3.2"/>
</g>
<!-- messages -->
<g id="node4" class="node">
<title>messages</title>
<g id="a_node4"><a xlink:href="../../tables/messages.html" xlink:title="messages" target="_top">
<polygon fill="#ffffff" stroke="transparent" points="527.5,-164 527.5,-332 628.5,-332 628.5,-164 527.5,-164"/>
<polygon fill="#f5f5f5" stroke="transparent" points="528,-310 528,-332 629,-332 629,-310 528,-310"/>
<polygon fill="none" stroke="black" points="528,-310 528,-332 629,-332 629,-310 528,-310"/>
<text text-anchor="start" x="533" y="-319.2" font-family="Helvetica,sans-Serif" font-weight="bold" font-size="11.00">messages</text>
<text text-anchor="start" x="590" y="-318.2" font-family="Helvetica,sans-Serif" font-size="11.00">[table]</text>
<polygon fill="none" stroke="black" points="528,-288 528,-310 629,-310 629,-288 528,-288"/>
<image xlink:href="../../images/primaryKeys.png" width="11px" height="12px" preserveAspectRatio="xMinYMin meet" x="533" y="-305"/>
<text text-anchor="start" x="553" y="-296.2" font-family="Helvetica,sans-Serif" font-size="11.00">id</text>
<polygon fill="none" stroke="black" points="528,-266 528,-288 629,-288 629,-266 528,-266"/>
<image xlink:href="../../images/foreignKeys.png" width="11px" height="12px" preserveAspectRatio="xMinYMin meet" x="533" y="-283"/>
<text text-anchor="start" x="553" y="-274.2" font-family="Helvetica,sans-Serif" font-size="11.00">chat_id</text>
<polygon fill="#ffffff" stroke="transparent" points="528,-244 528,-266 629,-266 629,-244 528,-244"/>
<polygon fill="none" stroke="black" points="528,-244 528,-266 629,-266 629,-244 528,-244"/>
<image xlink:href="../../images/foreignKeys.png" width="11px" height="12px" preserveAspectRatio="xMinYMin meet" x="533" y="-261"/>
<text text-anchor="start" x="553" y="-252.2" font-family="Helvetica,sans-Serif" font-size="11.00">sender_id</text>
<polygon fill="#ffffff" stroke="transparent" points="528,-222 528,-244 629,-244 629,-222 528,-222"/>
<polygon fill="none" stroke="black" points="528,-222 528,-244 629,-244 629,-222 528,-222"/>
<text text-anchor="start" x="553" y="-230.2" font-family="Helvetica,sans-Serif" font-size="11.00">content</text>
<polygon fill="#ffffff" stroke="transparent" points="528,-200 528,-222 629,-222 629,-200 528,-200"/>
<polygon fill="none" stroke="black" points="528,-200 528,-222 629,-222 629,-200 528,-200"/>
<text text-anchor="start" x="553" y="-208.2" font-family="Helvetica,sans-Serif" font-size="11.00">created_at</text>
<polygon fill="none" stroke="black" points="528,-182 528,-200 629,-200 629,-182 528,-182"/>
<text text-anchor="start" x="531" y="-188.2" font-family="Helvetica,sans-Serif" font-size="11.00">...</text>
<polygon fill="#ffffff" stroke="transparent" points="528,-164 528,-182 576,-182 576,-164 528,-164"/>
<polygon fill="none" stroke="black" points="528,-164 528,-182 576,-182 576,-164 528,-164"/>
<text text-anchor="start" x="531" y="-170.2" font-family="Helvetica,sans-Serif" font-size="11.00">&lt; 2</text>
<polygon fill="#ffffff" stroke="transparent" points="576,-164 576,-182 602,-182 602,-164 576,-164"/>
<polygon fill="none" stroke="black" points="576,-164 576,-182 602,-182 602,-164 576,-164"/>
<text text-anchor="start" x="592" y="-170.2" font-family="Helvetica,sans-Serif" font-size="11.00"> &#160;</text>
<polygon fill="#ffffff" stroke="transparent" points="602,-164 602,-182 629,-182 629,-164 602,-164"/>
<polygon fill="none" stroke="black" points="602,-164 602,-182 629,-182 629,-164 602,-164"/>
<text text-anchor="start" x="619" y="-170.2" font-family="Helvetica,sans-Serif" font-size="11.00"> &#160;</text>
</a>
</g>
</g>
<!-- messages&#45;&gt;chats -->
<g id="edge4" class="edge">
<title>messages:w&#45;&gt;chats:e</title>
<path fill="none" stroke="black" d="M512.7,-278.77C462.28,-292.31 476.37,-379 414,-379"/>
<polygon fill="black" stroke="black" points="519.06,-277.98 527.44,-280.57 523.03,-277.49 527,-277 527,-277 527,-277 523.03,-277.49 526.56,-273.43 519.06,-277.98 519.06,-277.98"/>
<ellipse fill="none" stroke="black" cx="515.88" cy="-278.38" rx="3.2" ry="3.2"/>
</g>
<!-- messages&#45;&gt;users -->
<g id="edge5" class="edge">
<title>messages:w&#45;&gt;users:e</title>
<path fill="none" stroke="black" d="M512.51,-253.47C494.49,-249.3 487.02,-237.84 463,-234 380.49,-220.81 350.06,-197.29 275,-234 247.69,-247.36 263.4,-288 233,-288"/>
<polygon fill="black" stroke="black" points="519.04,-254.16 526.62,-258.58 523.02,-254.58 527,-255 527,-255 527,-255 523.02,-254.58 527.38,-251.42 519.04,-254.16 519.04,-254.16"/>
<ellipse fill="none" stroke="black" cx="515.86" cy="-253.82" rx="3.2" ry="3.2"/>
</g>
<!-- sessions -->
<g id="node5" class="node">
<title>sessions</title>
<g id="a_node5"><a xlink:href="../../tables/sessions.html" xlink:title="sessions" target="_top">
<polygon fill="#ffffff" stroke="transparent" points="283,-94 283,-196 455,-196 455,-94 283,-94"/>
<polygon fill="#f5f5f5" stroke="transparent" points="283,-174 283,-196 455,-196 455,-174 283,-174"/>
<polygon fill="none" stroke="black" points="283,-174 283,-196 455,-196 455,-174 283,-174"/>
<text text-anchor="start" x="287.5" y="-183.2" font-family="Helvetica,sans-Serif" font-weight="bold" font-size="11.00">sessions</text>
<text text-anchor="start" x="416" y="-182.2" font-family="Helvetica,sans-Serif" font-size="11.00">[table]</text>
<polygon fill="none" stroke="black" points="283,-152 283,-174 455,-174 455,-152 283,-152"/>
<image xlink:href="../../images/primaryKeys.png" width="11px" height="12px" preserveAspectRatio="xMinYMin meet" x="288" y="-169"/>
<text text-anchor="start" x="303" y="-160.2" font-family="Helvetica,sans-Serif" font-size="11.00">id</text>
<polygon fill="none" stroke="black" points="283,-130 283,-152 455,-152 455,-130 283,-130"/>
<image xlink:href="../../images/foreignKeys.png" width="11px" height="12px" preserveAspectRatio="xMinYMin meet" x="288" y="-147"/>
<text text-anchor="start" x="303" y="-138.2" font-family="Helvetica,sans-Serif" font-size="11.00">user_id</text>
<polygon fill="none" stroke="black" points="283,-112 283,-130 455,-130 455,-112 283,-112"/>
<text text-anchor="start" x="286" y="-118.2" font-family="Helvetica,sans-Serif" font-size="11.00">...</text>
<polygon fill="#ffffff" stroke="transparent" points="283,-94 283,-112 367,-112 367,-94 283,-94"/>
<polygon fill="none" stroke="black" points="283,-94 283,-112 367,-112 367,-94 283,-94"/>
<text text-anchor="start" x="286" y="-100.2" font-family="Helvetica,sans-Serif" font-size="11.00">&lt; 1</text>
<polygon fill="#ffffff" stroke="transparent" points="367,-94 367,-112 411,-112 411,-94 367,-94"/>
<polygon fill="none" stroke="black" points="367,-94 367,-112 411,-112 411,-94 367,-94"/>
<text text-anchor="start" x="401" y="-100.2" font-family="Helvetica,sans-Serif" font-size="11.00"> &#160;</text>
<polygon fill="#ffffff" stroke="transparent" points="411,-94 411,-112 455,-112 455,-94 411,-94"/>
<polygon fill="none" stroke="black" points="411,-94 411,-112 455,-112 455,-94 411,-94"/>
<text text-anchor="start" x="445" y="-100.2" font-family="Helvetica,sans-Serif" font-size="11.00"> &#160;</text>
</a>
</g>
</g>
<!-- sessions&#45;&gt;users -->
<g id="edge6" class="edge">
<title>sessions:w&#45;&gt;users:e</title>
<path fill="none" stroke="black" d="M267.8,-143.94C226.93,-164.65 296.08,-288 233,-288"/>
<polygon fill="black" stroke="black" points="274.17,-142.62 282.73,-144.53 278.08,-141.81 282,-141 282,-141 282,-141 278.08,-141.81 281.27,-137.47 274.17,-142.62 274.17,-142.62"/>
<ellipse fill="none" stroke="black" cx="271.03" cy="-143.27" rx="3.2" ry="3.2"/>
</g>
</g>
</svg>
