<?xml version="1.0" encoding="UTF-8" standalone="no"?>
<!DOCTYPE svg PUBLIC "-//W3C//DTD SVG 1.1//EN"
 "http://www.w3.org/Graphics/SVG/1.1/DTD/svg11.dtd">
<!-- Generated by graphviz version 2.47.1 (20210515.0534)
 -->
<!-- Title: orphans Pages: 1 -->
<svg width="209pt" height="82pt"
 viewBox="0.00 0.00 209.00 82.00" xmlns="http://www.w3.org/2000/svg" xmlns:xlink="http://www.w3.org/1999/xlink">
<g id="graph0" class="graph" transform="scale(1 1) rotate(0) translate(4 78)">
<title>orphans</title>
<polygon fill="#ffffff" stroke="transparent" points="-4,4 -4,-78 205,-78 205,4 -4,4"/>
<!-- alembic_version -->
<g id="node1" class="node">
<title>alembic_version</title>
<g id="a_node1"><a xlink:href="../../tables/alembic_version.html" xlink:title="alembic_version" target="_top">
<polygon fill="#ffffff" stroke="transparent" points="8,-4 8,-70 193,-70 193,-4 8,-4"/>
<polygon fill="#f5f5f5" stroke="transparent" points="10.5,-46 10.5,-68 191.5,-68 191.5,-46 10.5,-46"/>
<polygon fill="none" stroke="black" points="10.5,-46 10.5,-68 191.5,-68 191.5,-46 10.5,-46"/>
<text text-anchor="start" x="15.5" y="-55.2" font-family="Helvetica,sans-Serif" font-weight="bold" font-size="11.00">alembic_version</text>
<text text-anchor="start" x="152.5" y="-54.2" font-family="Helvetica,sans-Serif" font-size="11.00">[table]</text>
<polygon fill="none" stroke="black" points="10.5,-24 10.5,-46 127.5,-46 127.5,-24 10.5,-24"/>
<image xlink:href="../../images/primaryKeys.png" width="11px" height="12px" preserveAspectRatio="xMinYMin meet" x="15.5" y="-41"/>
<text text-anchor="start" x="30.5" y="-32.2" font-family="Helvetica,sans-Serif" font-size="11.00">version_num</text>
<polygon fill="none" stroke="black" points="127.5,-24 127.5,-46 191.5,-46 191.5,-24 127.5,-24"/>
<text text-anchor="start" x="130.5" y="-32.2" font-family="Helvetica,sans-Serif" font-size="11.00">varchar[32]</text>
<polygon fill="#ffffff" stroke="transparent" points="10.5,-6 10.5,-24 73.5,-24 73.5,-6 10.5,-6"/>
<polygon fill="none" stroke="black" points="10.5,-6 10.5,-24 73.5,-24 73.5,-6 10.5,-6"/>
<text text-anchor="start" x="13.5" y="-12.2" font-family="Helvetica,sans-Serif" font-size="11.00">&lt; 0</text>
<polygon fill="#ffffff" stroke="transparent" points="73.5,-6 73.5,-24 127.5,-24 127.5,-6 73.5,-6"/>
<polygon fill="none" stroke="black" points="73.5,-6 73.5,-24 127.5,-24 127.5,-6 73.5,-6"/>
<text text-anchor="start" x="117.5" y="-12.2" font-family="Helvetica,sans-Serif" font-size="11.00"> &#160;</text>
<polygon fill="#ffffff" stroke="transparent" points="127.5,-6 127.5,-24 191.5,-24 191.5,-6 127.5,-6"/>
<polygon fill="none" stroke="black" points="127.5,-6 127.5,-24 191.5,-24 191.5,-6 127.5,-6"/>
<text text-anchor="start" x="172.5" y="-12.2" font-family="Helvetica,sans-Serif" font-size="11.00">0 &gt;</text>
<polygon fill="none" stroke="black" stroke-width="2" points="9,-5 9,-69 192,-69 192,-5 9,-5"/>
</a>
</g>
</g>
</g>
</svg>
